# Blender 4.3.2
# www.blender.org
mtllib Chair.mtl
o Cylinder
v 0.000000 0.150198 -0.039087
v 0.000000 1.072721 -0.039087
v 0.007625 0.150198 -0.038336
v 0.007625 1.072721 -0.038336
v 0.014958 0.150198 -0.036111
v 0.014958 1.072721 -0.036111
v 0.021715 0.150198 -0.032499
v 0.021715 1.072721 -0.032499
v 0.027639 0.150198 -0.027639
v 0.027639 1.072721 -0.027639
v 0.032499 0.150198 -0.021715
v 0.032499 1.072721 -0.021715
v 0.036111 0.150198 -0.014958
v 0.036111 1.072721 -0.014958
v 0.038336 0.150198 -0.007625
v 0.038336 1.072721 -0.007625
v 0.039087 0.150198 0.000000
v 0.039087 1.072721 0.000000
v 0.038336 0.150198 0.007625
v 0.038336 1.072721 0.007625
v 0.036111 0.150198 0.014958
v 0.036111 1.072721 0.014958
v 0.032499 0.150198 0.021715
v 0.032499 1.072721 0.021715
v 0.027639 0.150198 0.027639
v 0.027639 1.072721 0.027639
v 0.021715 0.150198 0.032499
v 0.021715 1.072721 0.032499
v 0.014958 0.150198 0.036111
v 0.014958 1.072721 0.036111
v 0.007625 0.150198 0.038336
v 0.007625 1.072721 0.038336
v 0.000000 0.150198 0.039087
v 0.000000 1.072721 0.039087
v -0.007625 0.150198 0.038336
v -0.007625 1.072721 0.038336
v -0.014958 0.150198 0.036111
v -0.014958 1.072721 0.036111
v -0.021715 0.150198 0.032499
v -0.021715 1.072721 0.032499
v -0.027639 0.150198 0.027639
v -0.027639 1.072721 0.027639
v -0.032499 0.150198 0.021715
v -0.032499 1.072721 0.021715
v -0.036111 0.150198 0.014958
v -0.036111 1.072721 0.014958
v -0.038336 0.150198 0.007625
v -0.038336 1.072721 0.007625
v -0.039087 0.150198 0.000000
v -0.039087 1.072721 0.000000
v -0.038336 0.150198 -0.007625
v -0.038336 1.072721 -0.007625
v -0.036111 0.150198 -0.014958
v -0.036111 1.072721 -0.014958
v -0.032499 0.150198 -0.021715
v -0.032499 1.072721 -0.021715
v -0.027639 0.150198 -0.027639
v -0.027639 1.072721 -0.027639
v -0.021715 0.150198 -0.032499
v -0.021715 1.072721 -0.032499
v -0.014958 0.150198 -0.036111
v -0.014958 1.072721 -0.036111
v -0.007625 0.150198 -0.038336
v -0.007625 1.072721 -0.038336
v -0.000000 1.103478 -0.271581
v 0.052983 1.103478 -0.266362
v -0.000000 1.103478 0.271581
v 0.150882 1.103478 -0.225811
v -0.103929 1.103478 -0.250908
v -0.052983 1.103478 0.266362
v 0.192036 1.103478 -0.192036
v -0.052983 1.103478 -0.266362
v -0.103929 1.103478 0.250908
v 0.225811 1.103478 -0.150882
v -0.150882 1.103478 0.225811
v 0.250908 1.103478 -0.103929
v -0.192036 1.103478 0.192036
v 0.266362 1.103478 -0.052983
v -0.225811 1.103478 0.150882
v 0.271581 1.103478 0.000000
v -0.250908 1.103478 0.103929
v 0.044152 1.072721 -0.221968
v 0.000000 1.072721 -0.226317
v 0.086608 1.072721 -0.209090
v 0.125735 1.072721 -0.188176
v 0.160030 1.072721 -0.160030
v 0.188176 1.072721 -0.125735
v 0.209090 1.072721 -0.086608
v 0.221969 1.072721 -0.044152
v 0.226317 1.072721 0.000000
v 0.221969 1.072721 0.044152
v 0.209090 1.072721 0.086608
v 0.188176 1.072721 0.125735
v 0.160030 1.072721 0.160030
v 0.125735 1.072721 0.188176
v 0.086608 1.072721 0.209090
v 0.044152 1.072721 0.221968
v 0.000000 1.072721 0.226317
v -0.044152 1.072721 0.221968
v -0.086608 1.072721 0.209090
v -0.125735 1.072721 0.188176
v -0.160030 1.072721 0.160030
v -0.188176 1.072721 0.125735
v -0.209090 1.072721 0.086608
v -0.221968 1.072721 0.044152
v -0.226317 1.072721 0.000000
v -0.221968 1.072721 -0.044152
v -0.209090 1.072721 -0.086608
v -0.188176 1.072721 -0.125735
v -0.160030 1.072721 -0.160030
v -0.125735 1.072721 -0.188176
v -0.086608 1.072721 -0.209090
v -0.044152 1.072721 -0.221968
v 0.044152 1.103478 -0.221968
v -0.000000 1.103478 -0.226317
v 0.086608 1.103478 -0.209090
v 0.125735 1.103478 -0.188176
v 0.160030 1.103478 -0.160030
v 0.188176 1.103478 -0.125735
v 0.209090 1.103478 -0.086608
v 0.221968 1.103478 -0.044152
v 0.226317 1.103478 0.000000
v 0.221968 1.103478 0.044152
v 0.209090 1.103478 0.086608
v 0.188176 1.103478 0.125735
v 0.160030 1.103478 0.160030
v 0.125735 1.103478 0.188176
v 0.086608 1.103478 0.209090
v 0.044152 1.103478 0.221968
v -0.000000 1.103478 0.226317
v -0.044152 1.103478 0.221968
v -0.086608 1.103478 0.209090
v -0.125735 1.103478 0.188176
v -0.160030 1.103478 0.160030
v -0.188176 1.103478 0.125735
v -0.209090 1.103478 0.086608
v -0.221969 1.103478 0.044152
v -0.226317 1.103478 0.000000
v -0.221969 1.103478 -0.044152
v -0.209090 1.103478 -0.086608
v -0.188176 1.103478 -0.125735
v -0.160030 1.103478 -0.160030
v -0.125735 1.103478 -0.188176
v -0.086608 1.103478 -0.209090
v -0.044152 1.103478 -0.221968
v 0.103929 1.103478 -0.250908
v 0.266362 1.103478 0.052983
v 0.250908 1.103478 0.103929
v 0.225811 1.103478 0.150882
v 0.192036 1.103478 0.192036
v 0.150882 1.103478 0.225811
v 0.103929 1.103478 0.250908
v 0.052983 1.103478 0.266362
v -0.266362 1.103478 0.052983
v -0.271581 1.103478 0.000000
v -0.266362 1.103478 -0.052983
v -0.250908 1.103478 -0.103929
v -0.225811 1.103478 -0.150882
v -0.192036 1.103478 -0.192036
v -0.150882 1.103478 -0.225811
v -0.000000 1.194447 0.264464
v -0.000000 1.187365 0.271581
v 0.146928 1.194447 -0.219894
v 0.150882 1.187365 -0.225811
v -0.101206 1.194447 -0.244333
v -0.103929 1.187365 -0.250908
v -0.051594 1.194447 0.259382
v -0.052983 1.187365 0.266362
v 0.187004 1.194447 -0.187004
v 0.192036 1.187365 -0.192036
v -0.051594 1.194447 -0.259382
v -0.052983 1.187365 -0.266362
v -0.101206 1.194447 0.244333
v -0.103929 1.187365 0.250908
v 0.219894 1.194447 -0.146928
v 0.225811 1.187365 -0.150882
v -0.146928 1.194447 0.219894
v -0.150882 1.187365 0.225811
v 0.244333 1.194447 -0.101206
v 0.250908 1.187365 -0.103929
v -0.187004 1.194447 0.187004
v -0.192036 1.187365 0.192036
v 0.259382 1.194447 -0.051594
v 0.266362 1.187365 -0.052983
v -0.219894 1.194447 0.146928
v -0.225811 1.187365 0.150882
v 0.264464 1.194447 0.000000
v 0.271581 1.187365 0.000000
v -0.244333 1.194447 0.101206
v -0.250908 1.187365 0.103929
v -0.146928 1.194447 -0.219894
v -0.150882 1.187365 -0.225811
v 0.101206 1.194447 -0.244333
v 0.103929 1.187365 -0.250908
v 0.051594 1.194447 0.259382
v 0.052983 1.187365 0.266362
v -0.187004 1.194447 -0.187004
v -0.192036 1.187365 -0.192036
v 0.051594 1.194447 -0.259382
v 0.052983 1.187365 -0.266362
v -0.000000 1.187365 -0.271581
v -0.000000 1.194447 -0.264464
v 0.101206 1.194447 0.244333
v 0.103929 1.187365 0.250908
v -0.219894 1.194447 -0.146928
v -0.225811 1.187365 -0.150882
v 0.146928 1.194447 0.219894
v 0.150882 1.187365 0.225811
v -0.244333 1.194447 -0.101206
v -0.250908 1.187365 -0.103929
v 0.187004 1.194447 0.187004
v 0.192036 1.187365 0.192036
v -0.259382 1.194447 -0.051594
v -0.266362 1.187365 -0.052983
v 0.219894 1.194447 0.146928
v 0.225811 1.187365 0.150882
v -0.264464 1.194447 0.000000
v -0.271581 1.187365 0.000000
v -0.259382 1.194447 0.051594
v -0.266362 1.187365 0.052983
v 0.244333 1.194447 0.101206
v 0.250908 1.187365 0.103929
v 0.259382 1.194447 0.051594
v 0.266362 1.187365 0.052983
v 0.000000 -0.000482 -0.266964
v 0.052082 -0.000482 -0.261834
v 0.102163 -0.000482 -0.246642
v 0.148317 -0.000482 -0.221972
v 0.188772 -0.000482 -0.188772
v 0.221972 -0.000482 -0.148317
v 0.246642 -0.000482 -0.102163
v 0.261834 -0.000482 -0.052082
v 0.266964 -0.000482 0.000000
v 0.261834 -0.000482 0.052082
v 0.246642 -0.000482 0.102163
v 0.221972 -0.000482 0.148317
v 0.188772 -0.000482 0.188772
v 0.148317 -0.000482 0.221972
v 0.102163 -0.000482 0.246642
v 0.052082 -0.000482 0.261834
v 0.000000 -0.000482 0.266964
v -0.052082 -0.000482 0.261834
v -0.102163 -0.000482 0.246642
v -0.148317 -0.000482 0.221972
v -0.188772 -0.000482 0.188772
v -0.221972 -0.000482 0.148317
v -0.246642 -0.000482 0.102163
v -0.261834 -0.000482 0.052082
v -0.266964 -0.000482 0.000000
v -0.261834 -0.000482 -0.052082
v -0.246642 -0.000482 -0.102163
v -0.221972 -0.000482 -0.148317
v -0.188772 -0.000482 -0.188772
v -0.148317 -0.000482 -0.221972
v -0.102163 -0.000482 -0.246642
v -0.052082 -0.000482 -0.261834
vn -0.0000 -0.0000 -1.0000
vn 0.1951 -0.0000 -0.9808
vn 0.3827 -0.0000 -0.9239
vn 0.5556 -0.0000 -0.8315
vn 0.7071 -0.0000 -0.7071
vn 0.8315 -0.0000 -0.5556
vn 0.9239 -0.0000 -0.3827
vn 0.9808 -0.0000 -0.1951
vn 1.0000 -0.0000 -0.0000
vn 0.9808 -0.0000 0.1951
vn 0.9239 -0.0000 0.3827
vn 0.8315 -0.0000 0.5556
vn 0.7071 -0.0000 0.7071
vn 0.5556 -0.0000 0.8315
vn 0.3827 -0.0000 0.9239
vn 0.1951 -0.0000 0.9808
vn -0.0000 -0.0000 1.0000
vn -0.1951 -0.0000 0.9808
vn -0.3827 -0.0000 0.9239
vn -0.5556 -0.0000 0.8315
vn -0.7071 -0.0000 0.7071
vn -0.8315 -0.0000 0.5556
vn -0.9239 -0.0000 0.3827
vn -0.9808 -0.0000 0.1951
vn -1.0000 -0.0000 -0.0000
vn -0.9808 -0.0000 -0.1951
vn -0.9239 -0.0000 -0.3827
vn -0.8315 -0.0000 -0.5556
vn -0.7071 -0.0000 -0.7071
vn -0.5556 -0.0000 -0.8315
vn -0.3827 -0.0000 -0.9239
vn -0.1951 -0.0000 -0.9808
vn 0.5516 0.8341 -0.0000
vn 0.5410 0.8341 0.1076
vn -0.0000 -1.0000 -0.0000
vn 0.1376 0.7088 -0.6918
vn -0.0000 0.7088 -0.7054
vn 0.2699 0.7088 -0.6517
vn 0.3919 0.7088 -0.5865
vn 0.4988 0.7088 -0.4988
vn 0.5865 0.7088 -0.3919
vn 0.6517 0.7088 -0.2699
vn 0.6918 0.7088 -0.1376
vn 0.7054 0.7088 -0.0000
vn 0.6918 0.7088 0.1376
vn 0.6517 0.7088 0.2699
vn 0.5865 0.7088 0.3919
vn 0.4988 0.7088 0.4988
vn 0.3919 0.7088 0.5865
vn 0.2699 0.7088 0.6517
vn 0.1376 0.7088 0.6918
vn -0.0000 0.7088 0.7054
vn -0.1376 0.7088 0.6918
vn -0.2699 0.7088 0.6517
vn -0.3919 0.7088 0.5865
vn -0.4988 0.7088 0.4988
vn -0.5865 0.7088 0.3919
vn -0.6517 0.7088 0.2699
vn -0.6918 0.7088 0.1376
vn -0.7054 0.7088 -0.0000
vn -0.6918 0.7088 -0.1376
vn -0.6517 0.7088 -0.2699
vn -0.5865 0.7088 -0.3919
vn -0.4988 0.7088 -0.4988
vn -0.3919 0.7088 -0.5865
vn -0.2699 0.7088 -0.6517
vn -0.1376 0.7088 -0.6918
vn -0.1076 0.8341 0.5410
vn -0.2111 0.8341 0.5096
vn -0.5096 0.8341 -0.2111
vn -0.4586 0.8341 -0.3064
vn 0.3900 0.8341 -0.3900
vn 0.4586 0.8341 -0.3064
vn 0.3064 0.8341 0.4586
vn 0.2111 0.8341 0.5096
vn -0.5096 0.8341 0.2111
vn -0.5410 0.8341 0.1076
vn -0.0000 0.8341 -0.5516
vn 0.1076 0.8341 -0.5410
vn -0.1076 0.8341 -0.5410
vn 0.5096 0.8341 0.2111
vn -0.3064 0.8341 0.4586
vn -0.3900 0.8341 -0.3900
vn 0.5096 0.8341 -0.2111
vn 0.1076 0.8341 0.5410
vn -0.5516 0.8341 -0.0000
vn 0.2111 0.8341 -0.5096
vn 0.4586 0.8341 0.3064
vn -0.3900 0.8341 0.3900
vn -0.3064 0.8341 -0.4586
vn 0.5410 0.8341 -0.1076
vn -0.0000 0.8341 0.5516
vn -0.5410 0.8341 -0.1076
vn 0.3064 0.8341 -0.4586
vn 0.3900 0.8341 0.3900
vn -0.4586 0.8341 0.3064
vn -0.2111 0.8341 -0.5096
vn -0.0000 1.0000 -0.0000
vt 1.000000 0.500000
vt 1.000000 1.000000
vt 0.968750 1.000000
vt 0.968750 0.500000
vt 0.937500 1.000000
vt 0.937500 0.500000
vt 0.906250 1.000000
vt 0.906250 0.500000
vt 0.875000 1.000000
vt 0.875000 0.500000
vt 0.843750 1.000000
vt 0.843750 0.500000
vt 0.812500 1.000000
vt 0.812500 0.500000
vt 0.781250 1.000000
vt 0.781250 0.500000
vt 0.750000 1.000000
vt 0.750000 0.500000
vt 0.718750 1.000000
vt 0.718750 0.500000
vt 0.687500 1.000000
vt 0.687500 0.500000
vt 0.656250 1.000000
vt 0.656250 0.500000
vt 0.625000 1.000000
vt 0.625000 0.500000
vt 0.593750 1.000000
vt 0.593750 0.500000
vt 0.562500 1.000000
vt 0.562500 0.500000
vt 0.531250 1.000000
vt 0.531250 0.500000
vt 0.500000 1.000000
vt 0.500000 0.500000
vt 0.468750 1.000000
vt 0.468750 0.500000
vt 0.437500 1.000000
vt 0.437500 0.500000
vt 0.406250 1.000000
vt 0.406250 0.500000
vt 0.375000 1.000000
vt 0.375000 0.500000
vt 0.343750 1.000000
vt 0.343750 0.500000
vt 0.312500 1.000000
vt 0.312500 0.500000
vt 0.281250 1.000000
vt 0.281250 0.500000
vt 0.250000 1.000000
vt 0.250000 0.500000
vt 0.218750 1.000000
vt 0.218750 0.500000
vt 0.187500 1.000000
vt 0.187500 0.500000
vt 0.156250 1.000000
vt 0.156250 0.500000
vt 0.125000 1.000000
vt 0.125000 0.500000
vt 0.093750 1.000000
vt 0.093750 0.500000
vt 0.062500 1.000000
vt 0.062500 0.500000
vt 0.031250 1.000000
vt 0.031250 0.500000
vt 0.000000 1.000000
vt 0.000000 0.500000
vt 0.562500 1.000000
vt 0.156250 1.000000
vt 0.718750 1.000000
vt 0.343750 1.000000
vt 0.312500 1.000000
vt 0.296822 0.485388
vt 0.250000 0.490000
vt 0.296822 0.485388
vt 0.341844 0.471731
vt 0.383337 0.449553
vt 0.383337 0.449553
vt 0.419706 0.419706
vt 0.449553 0.383337
vt 0.449553 0.383337
vt 0.471731 0.341844
vt 0.485388 0.296822
vt 0.485388 0.296822
vt 0.490000 0.250000
vt 0.485388 0.203178
vt 0.471731 0.158156
vt 0.449553 0.116663
vt 0.449553 0.116663
vt 0.419706 0.080294
vt 0.383337 0.050447
vt 0.341844 0.028269
vt 0.296822 0.014612
vt 0.296822 0.014612
vt 0.250000 0.010000
vt 0.203178 0.014612
vt 0.203178 0.014612
vt 0.158156 0.028269
vt 0.116663 0.050447
vt 0.080294 0.080294
vt 0.050447 0.116663
vt 0.028269 0.158156
vt 0.014612 0.203178
vt 0.010000 0.250000
vt 0.014612 0.296822
vt 0.028269 0.341844
vt 0.050447 0.383337
vt 0.080294 0.419706
vt 0.116663 0.449553
vt 0.116663 0.449553
vt 0.158156 0.471731
vt 0.203178 0.485388
vt 0.750000 0.490000
vt 0.796822 0.485388
vt 0.841844 0.471731
vt 0.883337 0.449553
vt 0.919706 0.419706
vt 0.949553 0.383337
vt 0.971731 0.341844
vt 0.985388 0.296822
vt 0.990000 0.250000
vt 0.985388 0.203178
vt 0.971731 0.158156
vt 0.949553 0.116663
vt 0.919706 0.080294
vt 0.883337 0.050447
vt 0.841844 0.028269
vt 0.796822 0.014612
vt 0.750000 0.010000
vt 0.703178 0.014612
vt 0.658156 0.028269
vt 0.616663 0.050447
vt 0.580294 0.080294
vt 0.550447 0.116663
vt 0.528269 0.158156
vt 0.514612 0.203178
vt 0.510000 0.250000
vt 0.514612 0.296822
vt 0.528269 0.341844
vt 0.550447 0.383337
vt 0.580294 0.419706
vt 0.616663 0.449553
vt 0.658156 0.471731
vt 0.703178 0.485388
s 1
f 1/1/1 2/2/1 4/3/2 3/4/2
f 3/4/2 4/3/2 6/5/3 5/6/3
f 5/6/3 6/5/3 8/7/4 7/8/4
f 7/8/4 8/7/4 10/9/5 9/10/5
f 9/10/5 10/9/5 12/11/6 11/12/6
f 11/12/6 12/11/6 14/13/7 13/14/7
f 13/14/7 14/13/7 16/15/8 15/16/8
f 15/16/8 16/15/8 18/17/9 17/18/9
f 17/18/9 18/17/9 20/19/10 19/20/10
f 19/20/10 20/19/10 22/21/11 21/22/11
f 21/22/11 22/21/11 24/23/12 23/24/12
f 23/24/12 24/23/12 26/25/13 25/26/13
f 25/26/13 26/25/13 28/27/14 27/28/14
f 27/28/14 28/27/14 30/29/15 29/30/15
f 29/30/15 30/29/15 32/31/16 31/32/16
f 31/32/16 32/31/16 34/33/17 33/34/17
f 33/34/17 34/33/17 36/35/18 35/36/18
f 35/36/18 36/35/18 38/37/19 37/38/19
f 37/38/19 38/37/19 40/39/20 39/40/20
f 39/40/20 40/39/20 42/41/21 41/42/21
f 41/42/21 42/41/21 44/43/22 43/44/22
f 43/44/22 44/43/22 46/45/23 45/46/23
f 45/46/23 46/45/23 48/47/24 47/48/24
f 47/48/24 48/47/24 50/49/25 49/50/25
f 49/50/25 50/49/25 52/51/26 51/52/26
f 51/52/26 52/51/26 54/53/27 53/54/27
f 53/54/27 54/53/27 56/55/28 55/56/28
f 55/56/28 56/55/28 58/57/29 57/58/29
f 57/58/29 58/57/29 60/59/30 59/60/30
f 59/60/30 60/59/30 62/61/31 61/62/31
f 61/62/31 62/61/31 64/63/32 63/64/32
f 63/64/32 64/63/32 2/65/1 1/66/1
f 17/18/33 19/20/34 234/20/34 233/18/33
f 128/29/35 127/27/35 151/27/35 152/29/35
f 66/3/2 65/2/1 201/2/1 200/3/2
f 34/33/35 32/31/35 97/31/35 98/33/35
f 152/29/15 151/27/14 208/27/14 204/67/15
f 127/27/35 126/25/35 150/25/35 151/27/35
f 16/15/35 14/13/35 88/13/35 89/15/35
f 158/55/28 157/53/27 210/53/27 206/68/28
f 126/25/35 125/23/35 149/23/35 150/25/35
f 50/49/35 48/47/35 105/47/35 106/49/35
f 157/53/27 156/51/26 214/51/26 210/53/27
f 125/23/35 124/21/35 148/21/35 149/23/35
f 32/31/35 30/29/35 96/29/35 97/31/35
f 156/51/26 155/49/25 218/49/25 214/51/26
f 124/21/35 123/19/35 147/19/35 148/21/35
f 14/13/35 12/11/35 87/11/35 88/13/35
f 2/65/35 64/63/35 113/63/35 83/65/35
f 155/49/25 154/47/24 220/47/24 218/49/25
f 48/47/35 46/45/35 104/45/35 105/47/35
f 123/19/35 122/17/35 80/17/35 147/19/35
f 30/29/35 28/27/35 95/27/35 96/29/35
f 160/59/30 159/57/29 198/57/29 192/59/30
f 12/11/35 10/9/35 86/9/35 87/11/35
f 64/63/35 62/61/35 112/61/35 113/63/35
f 122/17/35 121/15/35 78/15/35 80/17/35
f 46/45/35 44/43/35 103/43/35 104/45/35
f 147/19/10 80/17/9 188/17/9 224/69/10
f 28/27/35 26/25/35 94/25/35 95/27/35
f 121/15/35 120/13/35 76/13/35 78/15/35
f 10/9/35 8/7/35 85/7/35 86/9/35
f 62/61/35 60/59/35 111/59/35 112/61/35
f 80/17/9 78/15/8 184/15/8 188/17/9
f 44/43/35 42/41/35 102/41/35 103/43/35
f 87/11/6 86/9/5 118/9/5 119/11/6
f 96/29/15 95/27/14 127/27/14 128/29/15
f 105/47/24 104/45/23 136/45/23 137/47/24
f 82/3/2 83/2/1 115/2/1 114/3/2
f 83/65/1 113/63/32 145/63/32 115/65/1
f 92/21/11 91/19/10 123/19/10 124/21/11
f 101/39/20 100/37/19 132/37/19 133/39/20
f 110/57/29 109/55/28 141/55/28 142/57/29
f 88/13/7 87/11/6 119/11/6 120/13/7
f 97/31/16 96/29/15 128/29/15 129/31/16
f 106/49/25 105/47/24 137/47/24 138/49/25
f 84/5/3 82/3/2 114/3/2 116/5/3
f 93/23/12 92/21/11 124/21/11 125/23/12
f 102/41/21 101/39/20 133/39/20 134/41/21
f 111/59/30 110/57/29 142/57/29 143/59/30
f 89/15/8 88/13/7 120/13/7 121/15/8
f 98/33/17 97/31/16 129/31/16 130/33/17
f 107/51/26 106/49/25 138/49/25 139/51/26
f 85/7/4 84/5/3 116/5/3 117/7/4
f 94/25/13 93/23/12 125/23/12 126/25/13
f 103/43/22 102/41/21 134/41/21 135/43/22
f 112/61/31 111/59/30 143/59/30 144/61/31
f 90/17/9 89/15/8 121/15/8 122/17/9
f 99/35/18 98/33/17 130/33/17 131/35/18
f 108/53/27 107/51/26 139/51/26 140/53/27
f 86/9/5 85/7/4 117/7/4 118/9/5
f 95/27/14 94/25/13 126/25/13 127/27/14
f 104/45/23 103/43/22 135/43/22 136/45/23
f 113/63/32 112/61/31 144/61/31 145/63/32
f 91/19/10 90/17/9 122/17/9 123/19/10
f 100/37/19 99/35/18 131/35/18 132/37/19
f 109/55/28 108/53/27 140/53/27 141/55/28
f 52/51/35 50/49/35 106/49/35 107/51/35
f 120/13/35 119/11/35 74/11/35 76/13/35
f 115/65/35 145/63/35 72/63/35 65/65/35
f 18/17/35 16/15/35 89/15/35 90/17/35
f 78/15/8 76/13/7 180/13/7 184/15/8
f 36/35/35 34/33/35 98/33/35 99/35/35
f 119/11/35 118/9/35 71/9/35 74/11/35
f 54/53/35 52/51/35 107/51/35 108/53/35
f 76/13/7 74/11/6 176/11/6 180/13/7
f 20/19/35 18/17/35 90/17/35 91/19/35
f 145/63/35 144/61/35 69/61/35 72/63/35
f 38/37/35 36/35/35 99/35/35 100/37/35
f 4/3/35 2/2/35 83/2/35 82/3/35
f 118/9/35 117/7/35 68/7/35 71/9/35
f 56/55/35 54/53/35 108/53/35 109/55/35
f 74/11/6 71/9/5 170/9/5 176/11/6
f 22/21/35 20/19/35 91/19/35 92/21/35
f 144/61/35 143/59/35 160/59/35 69/61/35
f 40/39/35 38/37/35 100/37/35 101/39/35
f 117/7/35 116/5/35 146/5/35 68/7/35
f 58/57/35 56/55/35 109/55/35 110/57/35
f 6/5/35 4/3/35 82/3/35 84/5/35
f 24/23/35 22/21/35 92/21/35 93/23/35
f 143/59/35 142/57/35 159/57/35 160/59/35
f 42/41/35 40/39/35 101/39/35 102/41/35
f 116/5/35 114/3/35 66/3/35 146/5/35
f 60/59/35 58/57/35 110/57/35 111/59/35
f 8/7/35 6/5/35 84/5/35 85/7/35
f 70/35/18 67/33/17 162/33/17 168/35/18
f 26/25/35 24/23/35 93/23/35 94/25/35
f 142/57/35 141/55/35 158/55/35 159/57/35
f 68/7/4 146/5/3 194/5/3 164/7/4
f 159/57/29 158/55/28 206/68/28 198/57/29
f 151/27/14 150/25/13 212/25/13 208/27/14
f 150/25/13 149/23/12 216/23/12 212/25/13
f 149/23/12 148/21/11 222/21/11 216/23/12
f 148/21/11 147/19/10 224/69/10 222/21/11
f 146/5/3 66/3/2 200/3/2 194/5/3
f 129/31/35 128/29/35 152/29/35 153/31/35
f 71/9/5 68/7/4 164/7/4 170/9/5
f 72/63/32 69/61/31 166/61/31 172/63/32
f 130/33/35 129/31/35 153/31/35 67/33/35
f 69/61/31 160/59/30 192/59/30 166/61/31
f 73/37/19 70/35/18 168/35/18 174/37/19
f 131/35/35 130/33/35 67/33/35 70/35/35
f 65/65/1 72/63/32 172/63/32 201/65/1
f 75/39/20 73/37/19 174/37/19 178/39/20
f 132/37/35 131/35/35 70/35/35 73/37/35
f 77/41/21 75/39/20 178/39/20 182/41/21
f 133/39/35 132/37/35 73/37/35 75/39/35
f 79/43/22 77/41/21 182/41/21 186/70/22
f 134/41/35 133/39/35 75/39/35 77/41/35
f 81/45/23 79/43/22 186/70/22 190/71/23
f 135/43/35 134/41/35 77/41/35 79/43/35
f 154/47/24 81/45/23 190/71/23 220/47/24
f 136/45/35 135/43/35 79/43/35 81/45/35
f 137/47/35 136/45/35 81/45/35 154/47/35
f 138/49/35 137/47/35 154/47/35 155/49/35
f 139/51/35 138/49/35 155/49/35 156/51/35
f 140/53/35 139/51/35 156/51/35 157/53/35
f 141/55/35 140/53/35 157/53/35 158/55/35
f 153/31/16 152/29/15 204/67/15 196/31/16
f 114/3/35 115/2/35 65/2/35 66/3/35
f 200/72/36 201/73/37 202/73/37 199/74/36
f 194/75/38 200/72/36 199/74/36 193/75/38
f 164/76/39 194/75/38 193/75/38 163/77/39
f 170/78/40 164/76/39 163/77/39 169/78/40
f 176/79/41 170/78/40 169/78/40 175/80/41
f 180/81/42 176/79/41 175/80/41 179/81/42
f 184/82/43 180/81/42 179/81/42 183/83/43
f 188/84/44 184/82/43 183/83/43 187/84/44
f 224/85/45 188/84/44 187/84/44 223/85/45
f 222/86/46 224/85/45 223/85/45 221/86/46
f 216/87/47 222/86/46 221/86/46 215/88/47
f 212/89/48 216/87/47 215/88/47 211/89/48
f 208/90/49 212/89/48 211/89/48 207/90/49
f 204/91/50 208/90/49 207/90/49 203/91/50
f 196/92/51 204/91/50 203/91/50 195/93/51
f 162/94/52 196/92/51 195/93/51 161/94/52
f 168/95/53 162/94/52 161/94/52 167/96/53
f 174/97/54 168/95/53 167/96/53 173/97/54
f 178/98/55 174/97/54 173/97/54 177/98/55
f 182/99/56 178/98/55 177/98/55 181/99/56
f 186/100/57 182/99/56 181/99/56 185/100/57
f 190/101/58 186/100/57 185/100/57 189/101/58
f 220/102/59 190/101/58 189/101/58 219/102/59
f 218/103/60 220/102/59 219/102/59 217/103/60
f 214/104/61 218/103/60 217/103/60 213/104/61
f 210/105/62 214/104/61 213/104/61 209/105/62
f 206/106/63 210/105/62 209/105/62 205/106/63
f 198/107/64 206/106/63 205/106/63 197/107/64
f 192/108/65 198/107/64 197/107/64 191/109/65
f 166/110/66 192/108/65 191/109/65 165/110/66
f 172/111/67 166/110/66 165/110/66 171/111/67
f 201/73/37 172/111/67 171/111/67 202/73/37
f 67/33/17 153/31/16 196/31/16 162/33/17
f 225/112/35 226/113/35 227/114/35 228/115/35 229/116/35 230/117/35 231/118/35 232/119/35 233/120/35 234/121/35 235/122/35 236/123/35 237/124/35 238/125/35 239/126/35 240/127/35 241/128/35 242/129/35 243/130/35 244/131/35 245/132/35 246/133/35 247/134/35 248/135/35 249/136/35 250/137/35 251/138/35 252/139/35 253/140/35 254/141/35 255/142/35 256/143/35
f 35/36/68 37/38/69 243/38/69 242/36/68
f 53/54/70 55/56/71 252/56/71 251/54/70
f 9/10/72 11/12/73 230/12/73 229/10/72
f 27/28/74 29/30/75 239/30/75 238/28/74
f 45/46/76 47/48/77 248/48/77 247/46/76
f 1/1/78 3/4/79 226/4/79 225/1/78
f 63/64/80 1/66/78 225/66/78 256/64/80
f 19/20/34 21/22/81 235/22/81 234/20/34
f 37/38/69 39/40/82 244/40/82 243/38/69
f 55/56/71 57/58/83 253/58/83 252/56/71
f 11/12/73 13/14/84 231/14/84 230/12/73
f 29/30/75 31/32/85 240/32/85 239/30/75
f 47/48/77 49/50/86 249/50/86 248/48/77
f 3/4/79 5/6/87 227/6/87 226/4/79
f 21/22/81 23/24/88 236/24/88 235/22/81
f 39/40/82 41/42/89 245/42/89 244/40/82
f 57/58/83 59/60/90 254/60/90 253/58/83
f 13/14/84 15/16/91 232/16/91 231/14/84
f 31/32/85 33/34/92 241/34/92 240/32/85
f 49/50/86 51/52/93 250/52/93 249/50/86
f 5/6/87 7/8/94 228/8/94 227/6/87
f 23/24/88 25/26/95 237/26/95 236/24/88
f 41/42/89 43/44/96 246/44/96 245/42/89
f 59/60/90 61/62/97 255/62/97 254/60/90
f 15/16/91 17/18/33 233/18/33 232/16/91
f 33/34/92 35/36/68 242/36/68 241/34/92
f 51/52/93 53/54/70 251/54/70 250/52/93
f 7/8/94 9/10/72 229/10/72 228/8/94
f 25/26/95 27/28/74 238/28/74 237/26/95
f 43/44/96 45/46/76 247/46/76 246/44/96
f 61/62/97 63/64/80 256/64/80 255/62/97
f 219/102/98 189/101/98 185/100/98 181/99/98 177/98/98 173/97/98 167/96/98 161/94/98 195/93/98 203/91/98 207/90/98 211/89/98 215/88/98 221/86/98 223/85/98 187/84/98 183/83/98 179/81/98 175/80/98 169/78/98 163/77/98 193/75/98 199/74/98 202/73/98 171/111/98 165/110/98 191/109/98 197/107/98 205/106/98 209/105/98 213/104/98 217/103/98
