# Blender 4.3.2
# www.blender.org
mtllib Gate.mtl
o Cube.019
v -0.195859 0.000000 1.500000
v -0.195859 3.000000 1.500000
v -0.195859 0.000000 -1.500000
v -0.195859 3.000000 -1.500000
v 0.195859 0.000000 1.500000
v 0.195859 3.000000 1.500000
v 0.195859 0.000000 -1.500000
v 0.195859 3.000000 -1.500000
v -0.195859 0.000000 -1.284671
v -0.195859 0.000000 1.284671
v -0.195859 3.000000 1.284671
v -0.195859 3.000000 -1.284671
v 0.195859 0.000000 1.284671
v 0.195859 0.000000 -1.284671
v 0.195859 3.000000 -1.284671
v 0.195859 3.000000 1.284671
v -0.025914 0.060883 -1.284671
v -0.025914 0.060883 1.284671
v -0.025914 2.939117 1.284671
v -0.025914 2.939117 -1.284671
v 0.025914 0.060883 1.284671
v 0.025914 0.060883 -1.284671
v 0.025914 2.939117 -1.284671
v 0.025914 2.939117 1.284671
v -0.195859 0.300000 1.500000
v -0.195859 0.600000 1.500000
v -0.195859 0.900000 1.500000
v -0.195859 1.200000 1.500000
v -0.195859 1.500000 1.500000
v -0.195859 1.800000 1.500000
v -0.195859 2.100000 1.500000
v -0.195859 2.400000 1.500000
v -0.195859 2.700000 1.500000
v -0.195859 2.700000 -1.500000
v -0.195859 2.400000 -1.500000
v -0.195859 2.100000 -1.500000
v -0.195859 1.800000 -1.500000
v -0.195859 1.500000 -1.500000
v -0.195859 1.200000 -1.500000
v -0.195859 0.900000 -1.500000
v -0.195859 0.600000 -1.500000
v -0.195859 0.300000 -1.500000
v 0.195859 2.700000 -1.500000
v 0.195859 2.400000 -1.500000
v 0.195859 2.100000 -1.500000
v 0.195859 1.800000 -1.500000
v 0.195859 1.500000 -1.500000
v 0.195859 1.200000 -1.500000
v 0.195859 0.900000 -1.500000
v 0.195859 0.600000 -1.500000
v 0.195859 0.300000 -1.500000
v 0.195859 2.700000 1.500000
v 0.195859 2.400000 1.500000
v 0.195859 2.100000 1.500000
v 0.195859 1.800000 1.500000
v 0.195859 1.500000 1.500000
v 0.195859 1.200000 1.500000
v 0.195859 0.900000 1.500000
v 0.195859 0.600000 1.500000
v 0.195859 0.300000 1.500000
v 0.195859 2.700000 -1.284671
v 0.195859 2.400000 -1.284671
v 0.195859 2.100000 -1.284671
v 0.195859 1.800000 -1.284671
v 0.195859 1.500000 -1.284671
v 0.195859 1.200000 -1.284671
v 0.195859 0.900000 -1.284671
v 0.195859 0.600000 -1.284671
v 0.195859 0.300000 -1.284671
v 0.195859 2.700000 1.284671
v 0.195859 2.400000 1.284671
v 0.195859 2.100000 1.284671
v 0.195859 1.800000 1.284671
v 0.195859 1.500000 1.284671
v 0.195859 1.200000 1.284671
v 0.195859 0.900000 1.284671
v 0.195859 0.600000 1.284671
v 0.195859 0.300000 1.284671
v -0.195859 2.700000 1.284671
v -0.195859 2.400000 1.284671
v -0.195859 2.100000 1.284671
v -0.195859 1.800000 1.284671
v -0.195859 1.500000 1.284671
v -0.195859 1.200000 1.284671
v -0.195859 0.900000 1.284671
v -0.195859 0.600000 1.284671
v -0.195859 0.300000 1.284671
v -0.195859 2.700000 -1.284671
v -0.195859 2.400000 -1.284671
v -0.195859 2.100000 -1.284671
v -0.195859 1.800000 -1.284671
v -0.195859 1.500000 -1.284671
v -0.195859 1.200000 -1.284671
v -0.195859 0.900000 -1.284671
v -0.195859 0.600000 -1.284671
v -0.195859 0.300000 -1.284671
v 0.025914 2.651294 -1.284671
v 0.025914 2.363471 -1.284671
v 0.025914 2.075647 -1.284671
v 0.025914 1.787823 -1.284671
v 0.025914 1.500000 -1.284671
v 0.025914 1.212177 -1.284671
v 0.025914 0.924353 -1.284671
v 0.025914 0.636530 -1.284671
v 0.025914 0.348706 -1.284671
v 0.025914 2.651294 1.284671
v 0.025914 2.363471 1.284671
v 0.025914 2.075647 1.284671
v 0.025914 1.787823 1.284671
v 0.025914 1.500000 1.284671
v 0.025914 1.212177 1.284671
v 0.025914 0.924353 1.284671
v 0.025914 0.636530 1.284671
v 0.025914 0.348706 1.284671
v -0.025914 2.651294 1.284671
v -0.025914 2.363471 1.284671
v -0.025914 2.075647 1.284671
v -0.025914 1.787823 1.284671
v -0.025914 1.500000 1.284671
v -0.025914 1.212177 1.284671
v -0.025914 0.924353 1.284671
v -0.025914 0.636530 1.284671
v -0.025914 0.348706 1.284671
v -0.025914 2.651294 -1.284671
v -0.025914 2.363471 -1.284671
v -0.025914 2.075647 -1.284671
v -0.025914 1.787823 -1.284671
v -0.025914 1.500000 -1.284671
v -0.025914 1.212177 -1.284671
v -0.025914 0.924353 -1.284671
v -0.025914 0.636530 -1.284671
v -0.025914 0.348706 -1.284671
v -0.025914 2.692765 1.243201
v -0.025914 2.897646 1.243201
v -0.025914 2.897646 -1.243201
v -0.025914 2.692765 -1.243201
v -0.025914 0.102353 1.243201
v -0.025914 0.307235 1.243201
v -0.025914 0.307235 -1.243201
v -0.025914 0.102353 -1.243201
v -0.025914 0.390177 1.243201
v -0.025914 0.595059 1.243201
v -0.025914 0.595059 -1.243201
v -0.025914 0.390177 -1.243201
v -0.025914 0.678000 1.243201
v -0.025914 0.882882 1.243201
v -0.025914 0.882882 -1.243201
v -0.025914 0.678000 -1.243201
v -0.025914 0.965824 1.243201
v -0.025914 1.170706 1.243201
v -0.025914 1.170706 -1.243201
v -0.025914 0.965824 -1.243201
v -0.025914 1.253647 1.243201
v -0.025914 1.458529 1.243201
v -0.025914 1.458529 -1.243201
v -0.025914 1.253647 -1.243201
v -0.025914 1.541471 1.243201
v -0.025914 1.746353 1.243201
v -0.025914 1.746353 -1.243201
v -0.025914 1.541471 -1.243201
v -0.025914 1.829294 1.243201
v -0.025914 2.034176 1.243201
v -0.025914 2.034176 -1.243201
v -0.025914 1.829294 -1.243201
v -0.025914 2.117118 1.243201
v -0.025914 2.322000 1.243201
v -0.025914 2.322000 -1.243201
v -0.025914 2.117118 -1.243201
v -0.025914 2.404941 1.243201
v -0.025914 2.609823 1.243201
v -0.025914 2.609823 -1.243201
v -0.025914 2.404941 -1.243201
v -0.063226 2.897646 1.243201
v -0.063226 2.692765 1.243201
v -0.063226 2.692765 -1.243201
v -0.063226 2.897646 -1.243201
v -0.063226 0.307235 1.243201
v -0.063226 0.102353 1.243201
v -0.063226 0.102353 -1.243201
v -0.063226 0.307235 -1.243201
v -0.063226 0.595059 1.243201
v -0.063226 0.390177 1.243201
v -0.063226 0.390177 -1.243201
v -0.063226 0.595059 -1.243201
v -0.063226 0.882882 1.243201
v -0.063226 0.678000 1.243201
v -0.063226 0.678000 -1.243201
v -0.063226 0.882882 -1.243201
v -0.063226 1.170706 1.243201
v -0.063226 0.965824 1.243201
v -0.063226 0.965824 -1.243201
v -0.063226 1.170706 -1.243201
v -0.063226 1.458529 1.243201
v -0.063226 1.253647 1.243201
v -0.063226 1.253647 -1.243201
v -0.063226 1.458529 -1.243201
v -0.063226 1.746353 1.243201
v -0.063226 1.541471 1.243201
v -0.063226 1.541471 -1.243201
v -0.063226 1.746353 -1.243201
v -0.063226 2.034176 1.243201
v -0.063226 1.829294 1.243201
v -0.063226 1.829294 -1.243201
v -0.063226 2.034176 -1.243201
v -0.063226 2.322000 1.243201
v -0.063226 2.117118 1.243201
v -0.063226 2.117118 -1.243201
v -0.063226 2.322000 -1.243201
v -0.063226 2.609823 1.243201
v -0.063226 2.404941 1.243201
v -0.063226 2.404941 -1.243201
v -0.063226 2.609823 -1.243201
vn -1.0000 -0.0000 -0.0000
vn -0.0000 -0.0000 -1.0000
vn 1.0000 -0.0000 -0.0000
vn -0.0000 -0.0000 1.0000
vn -0.0000 -1.0000 -0.0000
vn -0.0000 1.0000 -0.0000
vt 0.600000 0.166667
vt 0.625000 0.166667
vt 0.625000 0.250000
vt 0.600000 0.250000
vt 0.625000 0.500000
vt 0.600000 0.500000
vt 0.600000 0.666667
vt 0.625000 0.666667
vt 0.625000 0.750000
vt 0.600000 0.750000
vt 0.625000 1.000000
vt 0.600000 1.000000
vt 0.125000 0.666667
vt 0.375000 0.666667
vt 0.375000 0.750000
vt 0.125000 0.750000
vt 0.875000 0.666667
vt 0.875000 0.750000
vt 0.875000 0.500000
vt 0.875000 0.583333
vt 0.625000 0.583333
vt 0.125000 0.500000
vt 0.375000 0.500000
vt 0.375000 0.583333
vt 0.125000 0.583333
vt 0.600000 0.583333
vt 0.400000 0.666667
vt 0.600000 0.000000
vt 0.625000 0.000000
vt 0.625000 0.083333
vt 0.600000 0.083333
vt 0.400000 0.166667
vt 0.375000 0.166667
vt 0.400000 0.166667
vt 0.603602 0.084678
vt 0.621398 0.084678
vt 0.600000 0.083333
vt 0.400000 0.583333
vt 0.400000 0.583333
vt 0.425000 0.583333
vt 0.425000 0.583333
vt 0.450000 0.583333
vt 0.450000 0.583333
vt 0.475000 0.583333
vt 0.475000 0.583333
vt 0.500000 0.583333
vt 0.525000 0.583333
vt 0.525000 0.583333
vt 0.550000 0.583333
vt 0.575000 0.583333
vt 0.575000 0.583333
vt 0.375000 0.083333
vt 0.400000 0.083333
vt 0.400000 0.083333
vt 0.425000 0.083333
vt 0.425000 0.083333
vt 0.450000 0.083333
vt 0.450000 0.083333
vt 0.475000 0.083333
vt 0.475000 0.083333
vt 0.500000 0.083333
vt 0.525000 0.083333
vt 0.525000 0.083333
vt 0.550000 0.083333
vt 0.550000 0.083333
vt 0.575000 0.083333
vt 0.571398 0.165322
vt 0.553602 0.165322
vt 0.478602 0.084678
vt 0.496398 0.084678
vt 0.446398 0.084678
vt 0.446398 0.165322
vt 0.571398 0.084678
vt 0.428602 0.165322
vt 0.428602 0.084678
vt 0.553602 0.084678
vt 0.396398 0.165322
vt 0.378602 0.165322
vt 0.521398 0.165322
vt 0.503602 0.165322
vt 0.425000 0.666667
vt 0.450000 0.666667
vt 0.475000 0.666667
vt 0.500000 0.666667
vt 0.525000 0.666667
vt 0.550000 0.666667
vt 0.575000 0.666667
vt 0.600000 0.166667
vt 0.575000 0.166667
vt 0.550000 0.166667
vt 0.550000 0.166667
vt 0.525000 0.166667
vt 0.525000 0.166667
vt 0.500000 0.166667
vt 0.475000 0.166667
vt 0.475000 0.166667
vt 0.450000 0.166667
vt 0.450000 0.166667
vt 0.425000 0.166667
vt 0.425000 0.166667
vt 0.375000 0.000000
vt 0.400000 0.000000
vt 0.425000 0.000000
vt 0.450000 0.000000
vt 0.475000 0.000000
vt 0.500000 0.000000
vt 0.525000 0.000000
vt 0.550000 0.000000
vt 0.575000 0.000000
vt 0.525000 0.666667
vt 0.475000 0.666667
vt 0.450000 0.666667
vt 0.425000 0.666667
vt 0.400000 0.500000
vt 0.425000 0.500000
vt 0.450000 0.500000
vt 0.475000 0.500000
vt 0.500000 0.500000
vt 0.525000 0.500000
vt 0.550000 0.500000
vt 0.575000 0.500000
vt 0.400000 0.750000
vt 0.400000 1.000000
vt 0.375000 1.000000
vt 0.425000 0.750000
vt 0.425000 1.000000
vt 0.450000 0.750000
vt 0.450000 1.000000
vt 0.475000 0.750000
vt 0.475000 1.000000
vt 0.500000 0.750000
vt 0.500000 1.000000
vt 0.525000 0.750000
vt 0.525000 1.000000
vt 0.550000 0.750000
vt 0.550000 1.000000
vt 0.575000 0.750000
vt 0.575000 1.000000
vt 0.375000 0.250000
vt 0.400000 0.250000
vt 0.425000 0.250000
vt 0.450000 0.250000
vt 0.475000 0.250000
vt 0.500000 0.250000
vt 0.525000 0.250000
vt 0.550000 0.250000
vt 0.575000 0.250000
vt 0.621398 0.165322
vt 0.603602 0.165322
vt 0.396398 0.084678
vt 0.378602 0.084678
vt 0.421398 0.084678
vt 0.403602 0.084678
vt 0.421398 0.165322
vt 0.403602 0.165322
vt 0.471398 0.084678
vt 0.453602 0.084678
vt 0.471398 0.165322
vt 0.453602 0.165322
vt 0.496398 0.165322
vt 0.478602 0.165322
vt 0.521398 0.084678
vt 0.503602 0.084678
vt 0.546398 0.084678
vt 0.528602 0.084678
vt 0.546398 0.165322
vt 0.528602 0.165322
vt 0.596398 0.084678
vt 0.578602 0.084678
vt 0.596398 0.165322
vt 0.578602 0.165322
s 0
f 88/1/1 12/2/1 4/3/1 34/4/1
f 34/4/2 4/3/2 8/5/2 43/6/2
f 70/7/3 16/8/3 6/9/3 52/10/3
f 52/10/4 6/9/4 2/11/4 33/12/4
f 10/13/5 13/14/5 5/15/5 1/16/5
f 16/8/6 11/17/6 2/18/6 6/9/6
f 8/5/6 4/19/6 12/20/6 15/21/6
f 11/17/2 16/8/2 24/8/2 19/17/2
f 3/22/5 7/23/5 14/24/5 9/25/5
f 13/14/2 10/13/2 18/13/2 21/14/2
f 43/6/3 8/5/3 15/21/3 61/26/3
f 78/27/2 13/14/2 21/14/2 114/27/2
f 33/28/1 2/29/1 11/30/1 79/31/1
f 96/32/4 9/33/4 17/33/4 132/34/4
f 23/21/6 20/20/6 19/17/6 24/8/6
f 17/25/5 22/24/5 21/14/5 18/13/5
f 97/26/3 23/21/3 24/8/3 106/7/3
f 133/35/4 134/36/4 173/36/4 174/35/4
f 79/31/2 11/30/2 19/30/2 115/37/2
f 61/26/4 15/21/4 23/21/4 97/26/4
f 9/25/4 14/24/4 22/24/4 17/25/4
f 15/21/4 12/20/4 20/20/4 23/21/4
f 14/24/4 69/38/4 105/39/4 22/24/4
f 69/38/4 68/40/4 104/41/4 105/39/4
f 68/40/4 67/42/4 103/43/4 104/41/4
f 67/42/4 66/44/4 102/45/4 103/43/4
f 66/44/4 65/46/4 101/46/4 102/45/4
f 65/46/4 64/47/4 100/48/4 101/46/4
f 64/47/4 63/49/4 99/49/4 100/48/4
f 63/49/4 62/50/4 98/51/4 99/49/4
f 62/50/4 61/26/4 97/26/4 98/51/4
f 10/52/2 87/53/2 123/54/2 18/52/2
f 87/53/2 86/55/2 122/56/2 123/54/2
f 86/55/2 85/57/2 121/58/2 122/56/2
f 85/57/2 84/59/2 120/60/2 121/58/2
f 84/59/2 83/61/2 119/61/2 120/60/2
f 83/61/2 82/62/2 118/63/2 119/61/2
f 82/62/2 81/64/2 117/65/2 118/63/2
f 81/64/2 80/66/2 116/66/2 117/65/2
f 80/66/2 79/31/2 115/37/2 116/66/2
f 167/67/2 168/68/2 207/68/2 208/67/2
f 153/69/4 154/70/4 193/70/4 194/69/4
f 146/71/6 147/72/6 188/72/6 185/71/6
f 166/73/6 167/67/6 208/67/6 205/73/6
f 148/74/5 145/75/5 186/75/5 187/74/5
f 168/68/5 165/76/5 206/76/5 207/68/5
f 139/77/2 140/78/2 179/78/2 180/77/2
f 159/79/2 160/80/2 199/80/2 200/79/2
f 145/75/4 146/71/4 185/71/4 186/75/4
f 22/24/3 105/39/3 114/27/3 21/14/3
f 105/39/3 104/41/3 113/81/3 114/27/3
f 104/41/3 103/43/3 112/82/3 113/81/3
f 103/43/3 102/45/3 111/83/3 112/82/3
f 102/45/3 101/46/3 110/84/3 111/83/3
f 101/46/3 100/48/3 109/85/3 110/84/3
f 100/48/3 99/49/3 108/86/3 109/85/3
f 99/49/3 98/51/3 107/87/3 108/86/3
f 98/51/3 97/26/3 106/7/3 107/87/3
f 12/2/4 88/1/4 124/88/4 20/2/4
f 88/1/4 89/89/4 125/89/4 124/88/4
f 89/89/4 90/90/4 126/91/4 125/89/4
f 90/90/4 91/92/4 127/93/4 126/91/4
f 91/92/4 92/94/4 128/94/4 127/93/4
f 92/94/4 93/95/4 129/96/4 128/94/4
f 93/95/4 94/97/4 130/98/4 129/96/4
f 94/97/4 95/99/4 131/100/4 130/98/4
f 95/99/4 96/32/4 132/34/4 131/100/4
f 1/101/1 25/102/1 87/53/1 10/52/1
f 25/102/1 26/103/1 86/55/1 87/53/1
f 26/103/1 27/104/1 85/57/1 86/55/1
f 27/104/1 28/105/1 84/59/1 85/57/1
f 28/105/1 29/106/1 83/61/1 84/59/1
f 29/106/1 30/107/1 82/62/1 83/61/1
f 30/107/1 31/108/1 81/64/1 82/62/1
f 31/108/1 32/109/1 80/66/1 81/64/1
f 32/109/1 33/28/1 79/31/1 80/66/1
f 16/8/2 70/7/2 106/7/2 24/8/2
f 70/7/2 71/87/2 107/87/2 106/7/2
f 71/87/2 72/86/2 108/86/2 107/87/2
f 72/86/2 73/110/2 109/85/2 108/86/2
f 73/110/2 74/84/2 110/84/2 109/85/2
f 74/84/2 75/111/2 111/83/2 110/84/2
f 75/111/2 76/112/2 112/82/2 111/83/2
f 76/112/2 77/113/2 113/81/2 112/82/2
f 77/113/2 78/27/2 114/27/2 113/81/2
f 7/23/3 51/114/3 69/38/3 14/24/3
f 51/114/3 50/115/3 68/40/3 69/38/3
f 50/115/3 49/116/3 67/42/3 68/40/3
f 49/116/3 48/117/3 66/44/3 67/42/3
f 48/117/3 47/118/3 65/46/3 66/44/3
f 47/118/3 46/119/3 64/47/3 65/46/3
f 46/119/3 45/120/3 63/49/3 64/47/3
f 45/120/3 44/121/3 62/50/3 63/49/3
f 44/121/3 43/6/3 61/26/3 62/50/3
f 5/15/4 60/122/4 25/123/4 1/124/4
f 60/122/4 59/125/4 26/126/4 25/123/4
f 59/125/4 58/127/4 27/128/4 26/126/4
f 58/127/4 57/129/4 28/130/4 27/128/4
f 57/129/4 56/131/4 29/132/4 28/130/4
f 56/131/4 55/133/4 30/134/4 29/132/4
f 55/133/4 54/135/4 31/136/4 30/134/4
f 54/135/4 53/137/4 32/138/4 31/136/4
f 53/137/4 52/10/4 33/12/4 32/138/4
f 13/14/3 78/27/3 60/122/3 5/15/3
f 78/27/3 77/113/3 59/125/3 60/122/3
f 77/113/3 76/112/3 58/127/3 59/125/3
f 76/112/3 75/111/3 57/129/3 58/127/3
f 75/111/3 74/84/3 56/131/3 57/129/3
f 74/84/3 73/110/3 55/133/3 56/131/3
f 73/110/3 72/86/3 54/135/3 55/133/3
f 72/86/3 71/87/3 53/137/3 54/135/3
f 71/87/3 70/7/3 52/10/3 53/137/3
f 3/139/2 42/140/2 51/114/2 7/23/2
f 42/140/2 41/141/2 50/115/2 51/114/2
f 41/141/2 40/142/2 49/116/2 50/115/2
f 40/142/2 39/143/2 48/117/2 49/116/2
f 39/143/2 38/144/2 47/118/2 48/117/2
f 38/144/2 37/145/2 46/119/2 47/118/2
f 37/145/2 36/146/2 45/120/2 46/119/2
f 36/146/2 35/147/2 44/121/2 45/120/2
f 35/147/2 34/4/2 43/6/2 44/121/2
f 9/33/1 96/32/1 42/140/1 3/139/1
f 96/32/1 95/99/1 41/141/1 42/140/1
f 95/99/1 94/97/1 40/142/1 41/141/1
f 94/97/1 93/95/1 39/143/1 40/142/1
f 93/95/1 92/94/1 38/144/1 39/143/1
f 92/94/1 91/92/1 37/145/1 38/144/1
f 91/92/1 90/90/1 36/146/1 37/145/1
f 90/90/1 89/89/1 35/147/1 36/146/1
f 89/89/1 88/1/1 34/4/1 35/147/1
f 115/37/1 19/30/1 134/36/1 133/35/1
f 19/30/1 20/2/1 135/148/1 134/36/1
f 20/2/1 124/88/1 136/149/1 135/148/1
f 124/88/1 115/37/1 133/35/1 136/149/1
f 18/52/1 123/54/1 138/150/1 137/151/1
f 123/54/1 132/34/1 139/77/1 138/150/1
f 132/34/1 17/33/1 140/78/1 139/77/1
f 17/33/1 18/52/1 137/151/1 140/78/1
f 123/54/1 122/56/1 142/152/1 141/153/1
f 122/56/1 131/100/1 143/154/1 142/152/1
f 131/100/1 132/34/1 144/155/1 143/154/1
f 132/34/1 123/54/1 141/153/1 144/155/1
f 122/56/1 121/58/1 146/71/1 145/75/1
f 121/58/1 130/98/1 147/72/1 146/71/1
f 130/98/1 131/100/1 148/74/1 147/72/1
f 131/100/1 122/56/1 145/75/1 148/74/1
f 121/58/1 120/60/1 150/156/1 149/157/1
f 120/60/1 129/96/1 151/158/1 150/156/1
f 129/96/1 130/98/1 152/159/1 151/158/1
f 130/98/1 121/58/1 149/157/1 152/159/1
f 120/60/1 119/61/1 154/70/1 153/69/1
f 119/61/1 128/94/1 155/160/1 154/70/1
f 128/94/1 129/96/1 156/161/1 155/160/1
f 129/96/1 120/60/1 153/69/1 156/161/1
f 119/61/1 118/63/1 158/162/1 157/163/1
f 118/63/1 127/93/1 159/79/1 158/162/1
f 127/93/1 128/94/1 160/80/1 159/79/1
f 128/94/1 119/61/1 157/163/1 160/80/1
f 118/63/1 117/65/1 162/164/1 161/165/1
f 117/65/1 126/91/1 163/166/1 162/164/1
f 126/91/1 127/93/1 164/167/1 163/166/1
f 127/93/1 118/63/1 161/165/1 164/167/1
f 117/65/1 116/66/1 166/73/1 165/76/1
f 116/66/1 125/89/1 167/67/1 166/73/1
f 125/89/1 126/91/1 168/68/1 167/67/1
f 126/91/1 117/65/1 165/76/1 168/68/1
f 116/66/1 115/37/1 170/168/1 169/169/1
f 115/37/1 124/88/1 171/170/1 170/168/1
f 124/88/1 125/89/1 172/171/1 171/170/1
f 125/89/1 116/66/1 169/169/1 172/171/1
f 174/35/1 173/36/1 176/148/1 175/149/1
f 178/151/1 177/150/1 180/77/1 179/78/1
f 182/153/1 181/152/1 184/154/1 183/155/1
f 186/75/1 185/71/1 188/72/1 187/74/1
f 190/157/1 189/156/1 192/158/1 191/159/1
f 194/69/1 193/70/1 196/160/1 195/161/1
f 198/163/1 197/162/1 200/79/1 199/80/1
f 202/165/1 201/164/1 204/166/1 203/167/1
f 206/76/1 205/73/1 208/67/1 207/68/1
f 210/169/1 209/168/1 212/170/1 211/171/1
f 147/72/2 148/74/2 187/74/2 188/72/2
f 156/161/5 153/69/5 194/69/5 195/161/5
f 136/149/5 133/35/5 174/35/5 175/149/5
f 154/70/6 155/160/6 196/160/6 193/70/6
f 134/36/6 135/148/6 176/148/6 173/36/6
f 161/165/4 162/164/4 201/164/4 202/165/4
f 141/153/4 142/152/4 181/152/4 182/153/4
f 155/160/2 156/161/2 195/161/2 196/160/2
f 135/148/2 136/149/2 175/149/2 176/148/2
f 164/167/5 161/165/5 202/165/5 203/167/5
f 144/155/5 141/153/5 182/153/5 183/155/5
f 162/164/6 163/166/6 204/166/6 201/164/6
f 142/152/6 143/154/6 184/154/6 181/152/6
f 169/169/4 170/168/4 209/168/4 210/169/4
f 149/157/4 150/156/4 189/156/4 190/157/4
f 163/166/2 164/167/2 203/167/2 204/166/2
f 143/154/2 144/155/2 183/155/2 184/154/2
f 172/171/5 169/169/5 210/169/5 211/171/5
f 152/159/5 149/157/5 190/157/5 191/159/5
f 170/168/6 171/170/6 212/170/6 209/168/6
f 150/156/6 151/158/6 192/158/6 189/156/6
f 157/163/4 158/162/4 197/162/4 198/163/4
f 171/170/2 172/171/2 211/171/2 212/170/2
f 137/151/4 138/150/4 177/150/4 178/151/4
f 151/158/2 152/159/2 191/159/2 192/158/2
f 160/80/5 157/163/5 198/163/5 199/80/5
f 140/78/5 137/151/5 178/151/5 179/78/5
f 158/162/6 159/79/6 200/79/6 197/162/6
f 138/150/6 139/77/6 180/77/6 177/150/6
f 165/76/4 166/73/4 205/73/4 206/76/4
