# Blender 4.3.2
# www.blender.org
mtllib ground flat5.mtl
o Cube.018
v -1.500000 -0.139857 1.500000
v -0.142045 -0.024675 -0.236702
v -1.475487 0.014319 1.475487
v -1.500000 -0.139857 -1.500000
v -0.236702 -0.024675 -0.237353
v -0.142045 -0.024675 0.236702
v -1.475487 0.014319 -1.475487
v 1.500000 -0.139857 1.500000
v 1.475487 0.014319 1.475487
v 1.500000 -0.139857 -1.500000
v 0.236702 -0.024675 -0.237353
v 1.475487 0.014319 -1.475487
v -1.500000 -0.000143 1.500000
v -1.500000 -0.000143 -1.500000
v 1.500000 -0.000143 -1.500000
v 1.500000 -0.000143 1.500000
v -0.236702 -0.000143 1.500000
v -0.236702 -0.024675 1.500000
v 0.236702 -0.024675 1.500000
v 0.236702 -0.000143 1.500000
v -0.236702 0.014319 -0.237353
v 0.236702 0.014319 -0.237353
v 0.236702 0.014319 1.475487
v -0.236702 0.014319 1.475487
v 1.500000 -0.000143 0.236702
v 1.500000 -0.024675 0.236702
v 1.500000 -0.024675 -0.236702
v 1.500000 -0.000143 -0.236702
v 1.475487 0.014319 0.236702
v 1.475487 0.014319 -0.236702
v 0.236702 0.014319 0.236702
v 0.236702 0.014319 -0.236702
v 0.236702 -0.024675 0.236702
v 0.236702 -0.024675 -0.236702
v -0.107529 -0.024675 0.236702
v -0.108845 -0.024675 0.231870
vn -1.0000 -0.0000 -0.0000
vn -0.0000 -0.0000 -1.0000
vn 1.0000 -0.0000 -0.0000
vn -0.0000 -0.0000 1.0000
vn -0.0000 -1.0000 -0.0000
vn -0.0000 1.0000 -0.0000
vn -0.5081 0.8613 -0.0000
vn -0.0000 0.8613 -0.5081
vn 0.5081 0.8613 -0.0000
vn -0.0000 0.8613 0.5081
vt 0.375000 0.000000
vt 0.625000 0.000000
vt 0.625000 0.250000
vt 0.375000 0.250000
vt 0.625000 0.500000
vt 0.375000 0.500000
vt 0.625000 0.750000
vt 0.375000 0.750000
vt 0.625000 0.605275
vt 0.581104 0.605275
vt 0.581104 0.644725
vt 0.625000 0.644725
vt 0.625000 0.894725
vt 0.625000 1.000000
vt 0.375000 1.000000
vt 0.625000 0.855275
vt 0.581104 0.855275
vt 0.581104 0.894725
vt 0.125000 0.500000
vt 0.125000 0.750000
vt 0.627043 0.605275
vt 0.627043 0.502043
vt 0.872957 0.502043
vt 0.872957 0.747957
vt 0.769725 0.747957
vt 0.769725 0.605221
vt 0.730275 0.605221
vt 0.730275 0.605275
vt 0.730275 0.644725
vt 0.730275 0.747957
vt 0.627043 0.747957
vt 0.627043 0.644725
vt 0.875000 0.500000
vt 0.875000 0.750000
vt 0.769725 0.750000
vt 0.730275 0.750000
vt 0.395592 0.118356
vt 0.387955 0.116472
vt 0.375000 0.116472
vt 0.395592 0.250000
vt 0.395592 0.500000
vt 0.375000 0.633528
vt 0.387955 0.633528
vt 0.395592 0.631644
vt 0.395592 0.536434
vt 0.375000 0.536434
vt 0.375000 0.500050
vt 0.395592 0.500050
vt 0.125000 0.633528
vt 0.193215 0.536434
vt 0.174987 0.536434
vt 0.174987 0.500050
vt 0.192520 0.536063
vt 0.395592 0.000000
vt 0.387955 0.000000
vt 0.387955 0.500000
vt 0.375000 0.623797
vt 0.125000 0.623797
vt 0.125000 0.720891
vt 0.375000 0.720891
s 0
f 1/1/1 13/2/1 14/3/1 4/4/1
f 4/4/2 14/3/2 15/5/2 10/6/2
f 16/7/3 8/8/3 10/6/3 15/5/3 28/9/3 27/10/3 26/11/3 25/12/3
f 17/13/4 13/14/4 1/15/4 8/8/4 16/7/4 20/16/4 19/17/4 18/18/4
f 4/19/5 10/6/5 8/8/5 1/20/5
f 30/21/6 12/22/6 7/23/6 3/24/6 24/25/6 21/26/6 22/27/6 32/28/6
f 31/29/6 23/30/6 9/31/6 29/32/6
f 3/24/7 7/23/7 14/33/7 13/34/7
f 7/23/8 12/22/8 15/5/8 14/33/8
f 29/32/9 9/31/9 16/7/9 25/12/9
f 28/9/9 15/5/9 12/22/9 30/21/9
f 3/24/10 13/34/10 17/35/10 24/25/10
f 16/7/10 9/31/10 23/30/10 20/36/10
f 24/37/3 17/38/3 18/39/3 5/4/3 21/40/3
f 21/40/4 5/4/4 11/6/4 22/41/4
f 19/42/1 20/43/1 23/44/1 31/45/1 33/46/1
f 22/41/1 11/6/1 34/47/1 32/48/1
f 34/47/6 11/6/6 5/19/6 18/49/6 19/42/6 33/46/6 35/50/6 6/51/6 2/52/6
f 35/50/6 33/46/6 34/47/6 2/52/6 6/51/6 36/53/6
f 6/51/6 35/50/6 36/53/6
f 32/54/4 34/4/4 27/4/4 28/55/4 30/54/4
f 26/8/2 33/8/2 31/41/2 29/41/2 25/56/2
f 26/57/6 27/58/6 34/59/6 33/60/6
