# Blender 4.3.2
# www.blender.org
mtllib ground flat1.mtl
o Ground
v -1.500000 -0.115291 1.500000
v -1.475487 0.038885 1.475487
v -1.500000 -0.115291 -1.500000
v -1.475487 0.038885 -1.475487
v 1.500000 -0.115291 1.500000
v 1.475487 0.038885 1.475487
v 1.500000 -0.115291 -1.500000
v 1.475487 0.038885 -1.475487
v -1.500000 0.024422 1.500000
v -1.500000 0.024422 -1.500000
v 1.500000 0.024422 -1.500000
v 1.500000 0.024422 1.500000
v -0.236702 -0.000109 -1.500000
v -0.236702 0.024422 -1.500000
v 0.236702 0.024422 -1.500000
v 0.236702 -0.000109 -1.500000
v -0.236702 -0.000109 1.500000
v -0.236702 0.024422 1.500000
v 0.236702 -0.000109 1.500000
v 0.236702 0.024422 1.500000
v -0.236702 0.038885 -1.475487
v 0.236702 0.038885 -1.475487
v -0.236702 0.038885 1.475487
v 0.236702 0.038885 1.475487
vn -1.0000 -0.0000 -0.0000
vn -0.0000 -0.0000 -1.0000
vn 1.0000 -0.0000 -0.0000
vn -0.0000 -0.0000 1.0000
vn -0.0000 -1.0000 -0.0000
vn -0.0000 1.0000 -0.0000
vn -0.5081 0.8613 -0.0000
vn -0.0000 0.8613 -0.5081
vn 0.5081 0.8613 -0.0000
vn -0.0000 0.8613 0.5081
vt 0.375000 0.000000
vt 0.625000 0.000000
vt 0.625000 0.250000
vt 0.375000 0.250000
vt 0.625000 0.394725
vt 0.625000 0.500000
vt 0.375000 0.500000
vt 0.625000 0.355275
vt 0.581104 0.355275
vt 0.581104 0.394725
vt 0.625000 0.750000
vt 0.375000 0.750000
vt 0.625000 0.894725
vt 0.625000 1.000000
vt 0.375000 1.000000
vt 0.625000 0.855275
vt 0.581104 0.855275
vt 0.581104 0.894725
vt 0.125000 0.500000
vt 0.125000 0.750000
vt 0.769725 0.502043
vt 0.872957 0.502043
vt 0.872957 0.747957
vt 0.769725 0.747957
vt 0.730275 0.747957
vt 0.627043 0.747957
vt 0.627043 0.502043
vt 0.730275 0.502043
vt 0.875000 0.500000
vt 0.875000 0.750000
vt 0.730275 0.500000
vt 0.769725 0.500000
vt 0.769725 0.750000
vt 0.730275 0.750000
vt 0.387955 0.009715
vt 0.375000 0.009715
vt 0.375000 0.240286
vt 0.387955 0.240285
vt 0.395592 0.238402
vt 0.395592 0.011598
vt 0.375000 0.509714
vt 0.375000 0.740285
vt 0.387955 0.740285
vt 0.395592 0.738401
vt 0.395592 0.511598
vt 0.387955 0.509714
vt 0.125000 0.509714
vt 0.125000 0.740286
s 0
f 1/1/1 9/2/1 10/3/1 3/4/1
f 15/5/2 11/6/2 7/7/2 3/4/2 10/3/2 14/8/2 13/9/2 16/10/2
f 7/7/3 11/6/3 12/11/3 5/12/3
f 18/13/4 9/14/4 1/15/4 5/12/4 12/11/4 20/16/4 19/17/4 17/18/4
f 3/19/5 7/7/5 5/12/5 1/20/5
f 21/21/6 4/22/6 2/23/6 23/24/6
f 24/25/6 6/26/6 8/27/6 22/28/6
f 2/23/7 4/22/7 10/29/7 9/30/7
f 22/28/8 8/27/8 11/6/8 15/31/8
f 10/29/8 4/22/8 21/21/8 14/32/8
f 8/27/9 6/26/9 12/11/9 11/6/9
f 2/23/10 9/30/10 18/33/10 23/24/10
f 12/11/10 6/26/10 24/25/10 20/34/10
f 18/35/3 17/36/3 13/37/3 14/38/3 21/39/3 23/40/3
f 16/41/1 19/42/1 20/43/1 24/44/1 22/45/1 15/46/1
f 19/42/6 16/41/6 13/47/6 17/48/6
