# Blender 4.3.2
# www.blender.org
mtllib ground flat4.mtl
o Cube.016
v -1.500000 -0.139857 1.500000
v -1.475487 0.014319 1.475487
v -1.500000 -0.139857 -1.500000
v -1.475487 0.014319 -1.475487
v 1.500000 -0.139857 1.500000
v 1.475487 0.014319 1.475487
v 1.500000 -0.139857 -1.500000
v 1.475487 0.014319 -1.475487
v -1.500000 -0.000143 1.500000
v -1.500000 -0.000143 -1.500000
v 1.500000 -0.000143 -1.500000
v 1.500000 -0.000143 1.500000
vn -1.0000 -0.0000 -0.0000
vn -0.0000 -0.0000 -1.0000
vn 1.0000 -0.0000 -0.0000
vn -0.0000 -0.0000 1.0000
vn -0.0000 -1.0000 -0.0000
vn -0.0000 1.0000 -0.0000
vn -0.5081 0.8613 -0.0000
vn -0.0000 0.8613 -0.5081
vn 0.5081 0.8613 -0.0000
vn -0.0000 0.8613 0.5081
vt 0.375000 0.000000
vt 0.625000 0.000000
vt 0.625000 0.250000
vt 0.375000 0.250000
vt 0.625000 0.500000
vt 0.375000 0.500000
vt 0.625000 0.750000
vt 0.375000 0.750000
vt 0.625000 1.000000
vt 0.375000 1.000000
vt 0.125000 0.500000
vt 0.125000 0.750000
vt 0.627043 0.502043
vt 0.872957 0.502043
vt 0.872957 0.747957
vt 0.627043 0.747957
vt 0.875000 0.500000
vt 0.875000 0.750000
s 0
f 1/1/1 9/2/1 10/3/1 3/4/1
f 3/4/2 10/3/2 11/5/2 7/6/2
f 7/6/3 11/5/3 12/7/3 5/8/3
f 5/8/4 12/7/4 9/9/4 1/10/4
f 3/11/5 7/6/5 5/8/5 1/12/5
f 8/13/6 4/14/6 2/15/6 6/16/6
f 2/15/7 4/14/7 10/17/7 9/18/7
f 4/14/8 8/13/8 11/5/8 10/17/8
f 8/13/9 6/16/9 12/7/9 11/5/9
f 6/16/10 2/15/10 9/18/10 12/7/10
