# Blender 4.3.2
# www.blender.org
mtllib ground flat3.mtl
o Ground3
v -1.500000 -0.115291 1.500000
v -1.475487 0.038885 1.475487
v -1.500000 -0.115291 -1.500000
v -1.475487 0.038885 -1.475487
v 1.500000 -0.115291 1.500000
v 1.475487 0.038885 1.475487
v 1.500000 -0.115291 -1.500000
v 1.475487 0.038885 -1.475487
v -1.500000 0.024422 1.500000
v -1.500000 0.024422 -1.500000
v 1.500000 0.024422 -1.500000
v 1.500000 0.024422 1.500000
v -1.500000 -0.000109 0.236702
v -1.500000 0.024422 0.236702
v -1.500000 0.024422 -0.236702
v -1.500000 -0.000109 -0.236702
v 1.500000 -0.000109 0.236702
v 1.500000 0.024422 0.236702
v 1.500000 -0.000109 -0.236702
v 1.500000 0.024422 -0.236702
v -1.475487 0.038885 0.236702
v -1.475487 0.038885 -0.236702
v 1.475487 0.038885 0.236702
v 1.475487 0.038885 -0.236702
v -0.236702 -0.000109 -1.500000
v -0.236702 0.024422 -1.500000
v 0.236702 0.024422 -1.500000
v 0.236702 -0.000109 -1.500000
v -0.236702 -0.000109 1.500000
v -0.236702 0.024422 1.500000
v 0.236702 -0.000109 1.500000
v 0.236702 0.024422 1.500000
v -0.236702 0.038885 1.475487
v 0.236702 0.038885 1.475487
v -0.236702 0.038885 0.236702
v 0.236702 0.038885 0.236702
v -0.236702 0.038885 -1.475487
v 0.236702 0.038885 -1.475487
v 0.236702 0.038885 -0.236702
v -0.236702 0.038885 -0.236702
v 0.034449 -0.000109 0.236702
v -0.236702 -0.000109 0.236702
v 0.236702 -0.000109 0.236702
v -0.034449 -0.000109 -0.236702
v -0.236702 -0.000109 -0.236702
v 0.236702 -0.000109 -0.236702
vn -1.0000 -0.0000 -0.0000
vn -0.0000 -0.0000 -1.0000
vn 1.0000 -0.0000 -0.0000
vn -0.0000 -0.0000 1.0000
vn -0.0000 -1.0000 -0.0000
vn -0.0000 1.0000 -0.0000
vn -0.5081 0.8613 -0.0000
vn -0.0000 0.8613 -0.5081
vn 0.5081 0.8613 -0.0000
vn -0.0000 0.8613 0.5081
vt 0.581104 0.144725
vt 0.625000 0.144725
vt 0.625000 0.250000
vt 0.375000 0.250000
vt 0.375000 0.000000
vt 0.625000 0.000000
vt 0.625000 0.105275
vt 0.581104 0.105275
vt 0.625000 0.394725
vt 0.625000 0.500000
vt 0.375000 0.500000
vt 0.625000 0.355275
vt 0.581104 0.355275
vt 0.581104 0.394725
vt 0.581104 0.644725
vt 0.625000 0.644725
vt 0.625000 0.750000
vt 0.375000 0.750000
vt 0.625000 0.605275
vt 0.581104 0.605275
vt 0.625000 0.894725
vt 0.625000 1.000000
vt 0.375000 1.000000
vt 0.625000 0.855275
vt 0.581104 0.855275
vt 0.581104 0.894725
vt 0.125000 0.500000
vt 0.125000 0.750000
vt 0.627043 0.747957
vt 0.627043 0.644725
vt 0.730275 0.644725
vt 0.730275 0.747957
vt 0.872957 0.644725
vt 0.872957 0.747957
vt 0.769725 0.747957
vt 0.769725 0.644725
vt 0.872957 0.502043
vt 0.872957 0.605275
vt 0.769725 0.605275
vt 0.769725 0.502043
vt 0.627043 0.605275
vt 0.627043 0.502043
vt 0.730275 0.502043
vt 0.730275 0.605275
vt 0.875000 0.500000
vt 0.875000 0.605275
vt 0.875000 0.644725
vt 0.875000 0.750000
vt 0.730275 0.500000
vt 0.769725 0.500000
vt 0.769725 0.750000
vt 0.730275 0.750000
vt 0.387955 0.000000
vt 0.395592 0.000000
vt 0.395592 0.500000
vt 0.387955 0.500000
vt 0.125000 0.740286
vt 0.375000 0.740285
vt 0.375000 0.643192
vt 0.125000 0.643192
vt 0.375000 0.606808
vt 0.375000 0.509714
vt 0.125000 0.509714
vt 0.125000 0.606808
vt 0.125000 0.627648
vt 0.375000 0.622352
vt 0.387955 0.009715
vt 0.375000 0.009715
vt 0.375000 0.106808
vt 0.395592 0.106808
vt 0.395592 0.011598
vt 0.395592 0.143192
vt 0.375000 0.143192
vt 0.375000 0.240286
vt 0.387955 0.240285
vt 0.395592 0.238402
vt 0.395592 0.606808
vt 0.395592 0.511598
vt 0.387955 0.509714
vt 0.387955 0.740285
vt 0.395592 0.738401
vt 0.395592 0.643192
vt 0.231808 0.606808
vt 0.268192 0.643192
s 0
f 16/1/1 15/2/1 10/3/1 3/4/1 1/5/1 9/6/1 14/7/1 13/8/1
f 27/9/2 11/10/2 7/11/2 3/4/2 10/3/2 26/12/2 25/13/2 28/14/2
f 17/15/3 18/16/3 12/17/3 5/18/3 7/11/3 11/10/3 20/19/3 19/20/3
f 30/21/4 9/22/4 1/23/4 5/18/4 12/17/4 32/24/4 31/25/4 29/26/4
f 3/27/5 7/11/5 5/18/5 1/28/5
f 6/29/6 23/30/6 36/31/6 34/32/6
f 21/33/6 2/34/6 33/35/6 35/36/6
f 4/37/6 22/38/6 40/39/6 37/40/6
f 24/41/6 8/42/6 38/43/6 39/44/6
f 22/38/7 4/37/7 10/45/7 15/46/7
f 14/47/7 9/48/7 2/34/7 21/33/7
f 38/43/8 8/42/8 11/10/8 27/49/8
f 10/45/8 4/37/8 37/40/8 26/50/8
f 23/30/9 6/29/9 12/17/9 18/16/9
f 20/19/9 11/10/9 8/42/9 24/41/9
f 2/34/10 9/48/10 30/51/10 33/35/10
f 12/17/10 6/29/10 34/32/10 32/52/10
f 13/4/2 14/53/2 21/54/2 35/54/2 42/4/2
f 36/54/2 23/54/2 18/53/2 17/4/2 43/4/2
f 22/55/4 15/56/4 16/18/4 45/18/4 40/55/4
f 46/18/4 19/18/4 20/56/4 24/55/4 39/55/4
f 17/57/6 19/58/6 46/59/6 43/60/6
f 45/61/6 16/62/6 13/63/6 42/64/6
f 41/65/6 43/60/6 46/59/6 44/66/6
f 44/66/6 45/61/6 42/64/6 41/65/6
f 30/67/3 29/68/3 42/69/3 35/70/3 33/71/3
f 40/72/3 45/73/3 25/74/3 26/75/3 37/76/3
f 28/62/1 46/61/1 39/77/1 38/78/1 27/79/1
f 43/59/1 31/58/1 32/80/1 34/81/1 36/82/1
f 46/61/6 28/62/6 25/63/6 45/64/6 44/83/6
f 42/60/6 29/57/6 31/58/6 43/59/6 41/84/6
