# Blender 4.3.2
# www.blender.org
mtllib Lamp Hang.mtl
o Cube.001
v -0.114462 0.098618 0.112370
v -0.087318 0.072748 0.085763
v -0.114462 0.098618 -0.126307
v -0.087318 0.072748 -0.099701
v 0.110291 0.098618 0.112370
v 0.083146 0.072748 0.085763
v 0.110291 0.098618 -0.126307
v 0.083146 0.072748 -0.099701
v -0.064388 -1.009703 -0.120679
v -0.050254 -1.024608 -0.079544
v -0.064388 -1.009703 0.106742
v -0.050254 -1.024608 0.065607
v -1.153430 -0.302071 0.093032
v -1.156290 -0.347960 0.093032
v -1.153430 -0.302071 -0.106970
v -1.156290 -0.347960 -0.106970
v 0.058280 -1.009613 -0.120679
v 0.045498 -1.025694 -0.079544
v 1.081503 -0.209757 -0.106970
v 1.088351 -0.255223 -0.106970
v 0.058280 -1.009613 0.106742
v 0.045498 -1.025694 0.065607
v 1.081503 -0.209757 0.093032
v 1.088351 -0.255223 0.093032
v 0.728447 -0.478348 -0.116069
v 0.752715 -0.510074 -0.093298
v 0.382949 -0.738514 -0.109368
v 0.409521 -0.773351 -0.095427
v 0.728447 -0.478348 0.102132
v 0.752715 -0.510074 0.079360
v 0.382949 -0.738514 0.095431
v 0.409521 -0.773351 0.081490
v -0.411450 -0.767932 0.095431
v -0.434885 -0.804952 0.081490
v -0.778308 -0.538869 0.102132
v -0.799719 -0.572589 0.079360
v -0.778308 -0.538869 -0.116069
v -0.799719 -0.572589 -0.093298
v -0.411450 -0.767932 -0.109368
v -0.434885 -0.804952 -0.095427
v 0.793573 -0.539273 -0.127673
v 0.793713 -0.539046 -0.081695
v 0.443285 -0.773196 -0.125387
v 0.443425 -0.772969 -0.079409
v 0.793573 -0.539273 0.113735
v 0.793713 -0.539046 0.067757
v 0.443285 -0.773196 0.111449
v 0.443425 -0.772969 0.065471
v -0.468533 -0.807741 0.111449
v -0.468693 -0.807527 0.065471
v -0.837876 -0.605237 0.113735
v -0.838036 -0.605024 0.067757
v -0.837876 -0.605237 -0.127673
v -0.838036 -0.605023 -0.081695
v -0.468533 -0.807741 -0.125387
v -0.468693 -0.807527 -0.079409
v -1.269389 -0.353056 0.093032
v -1.249958 -0.394726 0.093032
v -1.269389 -0.353056 -0.106970
v -1.249958 -0.394726 -0.106970
v 1.201464 -0.250442 -0.106970
v 1.185739 -0.293647 -0.106970
v 1.201464 -0.250442 0.093032
v 1.185739 -0.293647 0.093032
v 0.072697 0.062695 -0.112736
v -0.076869 0.062695 -0.112736
v -0.030207 -0.999281 -0.100379
v -0.058471 -1.036124 -0.116577
v 0.054688 -1.036450 -0.116577
v 0.026035 -0.999281 -0.100379
v -0.076869 0.062695 0.098799
v 0.072697 0.062695 0.098799
v 0.026035 -0.999281 0.086442
v 0.054688 -1.036450 0.102639
v -0.058471 -1.036124 0.102639
v -0.030207 -0.999281 0.086442
v -0.077901 0.085683 -0.090015
v 0.073729 0.085683 -0.090015
v 0.073729 0.085683 0.076077
v -0.077901 0.085683 0.076077
v -0.808459 -0.543466 0.067878
v -0.821633 -0.559542 0.111467
v -1.154791 -0.325020 0.116021
v -1.135414 -0.337278 0.069921
v -1.135414 -0.337278 -0.083859
v -1.154791 -0.325020 -0.129959
v -0.821633 -0.559542 -0.125405
v -0.808459 -0.543466 -0.081816
v 0.758884 -0.480300 -0.081816
v 0.773408 -0.495167 -0.125405
v 1.084858 -0.232501 -0.129959
v 1.066624 -0.246401 -0.083859
v 1.066624 -0.246401 0.069921
v 1.084858 -0.232501 0.116021
v 0.773408 -0.495167 0.111467
v 0.758884 -0.480300 0.067878
v -0.099881 0.062716 -0.089746
v -0.099881 0.062716 0.075809
v -0.053217 -0.999302 0.063451
v -0.053217 -0.999302 -0.077388
v 0.095710 0.062716 0.075809
v 0.095710 0.062716 -0.089746
v 0.049046 -0.999302 -0.077388
v 0.049046 -0.999302 0.063451
v 0.070192 -1.003742 -0.077244
v 0.399024 -0.774664 -0.118915
v 0.377932 -0.769843 -0.079287
v 0.377932 -0.769843 0.065349
v 0.399024 -0.774664 0.104977
v 0.070192 -1.003742 0.063306
v 0.414538 -0.742021 -0.079530
v 0.722278 -0.508122 -0.081573
v 0.722278 -0.508122 0.067635
v 0.414538 -0.742021 0.065592
v -0.076767 -1.004893 0.063306
v -0.424313 -0.805346 0.104977
v -0.403722 -0.798705 0.065349
v -0.403722 -0.798705 -0.079287
v -0.424313 -0.805346 -0.118915
v -0.076767 -1.004893 -0.077244
v -0.442613 -0.774179 0.065592
v -0.769568 -0.567992 0.067635
v -0.769568 -0.567992 -0.081573
v -0.442613 -0.774179 -0.079530
v -0.471068 -0.783413 -0.102542
v -0.785669 -0.585017 -0.104559
v -0.875758 -0.610622 -0.104790
v -0.800155 -0.599638 -0.104554
v -0.469453 -0.833391 -0.102281
v -0.467773 -0.781877 -0.102552
v -0.785669 -0.585017 0.090622
v -0.471068 -0.783413 0.088605
v -0.469453 -0.833391 0.088343
v -0.467773 -0.781877 0.088615
v -0.875758 -0.610622 0.090852
v -0.800155 -0.599638 0.090616
v 0.443689 -0.748740 0.088605
v 0.739802 -0.523679 0.090622
v 0.831780 -0.541336 0.090852
v 0.755507 -0.536983 0.090616
v 0.446437 -0.798669 0.088343
v 0.440273 -0.747497 0.088615
v 0.739802 -0.523679 -0.104559
v 0.443689 -0.748740 -0.102542
v 0.446437 -0.798669 -0.102281
v 0.440273 -0.747497 -0.102552
v 0.831780 -0.541336 -0.104790
v 0.755507 -0.536983 -0.104554
v 1.106530 -0.240353 0.070043
v 1.106530 -0.240353 -0.083980
v 1.215204 -0.279907 -0.129959
v 1.171999 -0.264182 -0.083980
v 1.215204 -0.279907 0.116021
v 1.171999 -0.264182 0.070043
v -1.175695 -0.334731 -0.083980
v -1.175695 -0.334731 0.070043
v -1.280509 -0.383607 0.116021
v -1.238838 -0.364175 0.070043
v -1.280509 -0.383607 -0.129959
v -1.238838 -0.364175 -0.083980
v 1.241157 -0.296412 0.310640
v 0.130585 -1.046297 0.272818
v 0.130585 -1.046297 -0.286755
v 1.241157 -0.296412 -0.324577
v -1.304924 -0.402311 -0.324577
v -1.304924 -0.402311 0.310640
v -0.141066 -1.056207 0.272818
v -0.141066 -1.056207 -0.286755
v -0.105678 -1.039706 -0.286755
v -0.105678 -1.039706 0.272818
v -1.271324 -0.386643 0.310640
v -1.271324 -0.386643 -0.324577
v 0.093894 -1.032943 -0.286755
v 1.206319 -0.283732 -0.324577
v 0.093894 -1.032943 0.272818
v 1.206319 -0.283732 0.310640
v 0.154785 -1.029957 -0.258368
v 1.216957 -0.312753 -0.294541
v 1.216957 -0.312753 0.280604
v 0.154785 -1.029957 0.244431
v -0.166523 -1.041904 0.244434
v -1.279467 -0.416613 0.280601
v -1.279467 -0.416613 -0.294538
v -0.166523 -1.041904 -0.258371
v 1.194142 -0.316689 -0.288164
v 0.155526 -1.017987 -0.252792
v 0.155526 -1.017987 0.238855
v 1.194142 -0.316689 0.274227
v -0.168220 -1.030007 0.238858
v -1.256481 -0.418583 0.274223
v -0.168220 -1.030007 -0.252795
v -1.256481 -0.418583 -0.288161
v 0.170806 -1.007669 -0.234868
v 1.178862 -0.327006 -0.269199
v 1.178862 -0.327006 0.255262
v 0.170806 -1.007669 0.220931
v -0.184294 -1.020976 0.220936
v -1.240407 -0.427614 0.255257
v -1.240407 -0.427614 -0.269194
v -0.184294 -1.020976 -0.234873
v 1.189460 -0.330864 -0.269199
v 0.179311 -1.010765 -0.234868
v 0.179311 -1.010764 0.220931
v 1.189460 -0.330864 0.255262
v -0.192543 -1.024823 0.220936
v -1.250582 -0.432359 0.255257
v -0.192543 -1.024823 -0.234873
v -1.250582 -0.432359 -0.269194
vn -0.0000 -0.3534 -0.9355
vn -0.0000 -0.7919 0.6107
vn -0.0000 -0.7003 0.7139
vn 0.4301 0.0117 -0.9027
vn 0.7339 0.0387 0.6782
vn 0.6867 0.0376 0.7260
vn 0.7217 0.0384 0.6911
vn -0.0004 0.8904 -0.4551
vn 0.0045 0.6272 0.7788
vn -0.0154 -0.0796 -0.9967
vn 0.0125 -0.0810 -0.9966
vn 0.0261 -0.0039 -0.9997
vn -0.0300 -0.0096 -0.9995
vn -0.0065 -0.9576 0.2879
vn -0.4401 0.0126 -0.8979
vn -0.7396 0.0390 0.6720
vn -0.7240 0.0386 0.6887
vn -0.6836 0.0376 0.7289
vn -0.0000 -0.3534 0.9355
vn -0.0000 -0.7919 -0.6107
vn -0.0000 -0.7003 -0.7139
vn -0.4401 0.0126 0.8979
vn -0.7396 0.0390 -0.6720
vn -0.6836 0.0376 -0.7289
vn -0.7240 0.0386 -0.6887
vn -0.0004 0.8904 0.4551
vn 0.0045 0.6272 -0.7788
vn 0.0125 -0.0810 0.9966
vn -0.0154 -0.0796 0.9967
vn -0.0300 -0.0096 0.9995
vn 0.0261 -0.0039 0.9997
vn -0.0065 -0.9576 -0.2879
vn 0.4301 0.0117 0.9027
vn 0.7339 0.0387 -0.6782
vn 0.7217 0.0384 -0.6911
vn 0.6867 0.0376 -0.7260
vn 0.1714 0.9699 0.1730
vn -0.1714 0.9699 0.1730
vn -0.1724 0.9699 0.1720
vn 0.1724 0.9699 0.1720
vn -0.0000 -0.5994 0.8005
vn -0.1714 0.9699 -0.1730
vn -0.1724 0.9699 -0.1720
vn -0.8085 -0.5886 -0.0000
vn -0.7231 -0.6907 -0.0000
vn 0.1714 0.9699 -0.1730
vn 0.1724 0.9699 -0.1720
vn -0.0000 -0.5994 -0.8005
vn 0.8085 -0.5886 -0.0000
vn 0.7231 -0.6907 -0.0000
vn 0.4416 0.6907 -0.5727
vn -0.3617 -0.5463 -0.7555
vn 0.2557 0.3927 0.8834
vn -0.5181 -0.7912 0.3248
vn 0.8902 0.4555 -0.0000
vn 0.4555 -0.8902 -0.0000
vn 0.4416 0.6907 0.5727
vn -0.3617 -0.5463 0.7555
vn 0.2557 0.3927 -0.8834
vn -0.5181 -0.7912 -0.3248
vn -0.1507 0.9886 -0.0000
vn -0.9578 -0.2874 -0.0000
vn -0.5001 0.6496 0.5727
vn 0.4079 -0.5127 0.7555
vn -0.2889 0.3689 -0.8834
vn 0.5851 -0.7431 -0.3248
vn -0.9265 0.3762 -0.0000
vn -0.3762 -0.9265 -0.0000
vn -0.5001 0.6496 -0.5727
vn 0.4079 -0.5127 -0.7555
vn -0.2889 0.3689 0.8834
vn 0.5851 -0.7431 0.3248
vn 0.0640 0.9979 -0.0000
vn 0.9792 -0.2029 -0.0000
vn -0.9651 -0.2133 0.1517
vn -0.9651 -0.2133 -0.1517
vn -0.9651 -0.2140 -0.1510
vn -0.9651 -0.2140 0.1510
vn 0.6240 -0.7814 -0.0000
vn -0.9546 -0.0401 -0.2951
vn 0.6366 0.0363 -0.7703
vn -0.6814 0.7319 -0.0000
vn 0.9932 0.1163 -0.0000
vn -0.9546 -0.0401 0.2951
vn 0.6366 0.0363 0.7704
vn 0.9668 -0.2136 -0.1403
vn 0.9668 -0.2136 0.1403
vn 0.9667 -0.2144 0.1396
vn 0.9667 -0.2144 -0.1396
vn -0.6240 -0.7814 -0.0000
vn 0.9610 -0.0414 0.2733
vn -0.6237 0.0361 0.7809
vn 0.7450 0.6671 -0.0000
vn -0.9911 0.1332 -0.0000
vn 0.9610 -0.0414 -0.2733
vn -0.6237 0.0361 -0.7809
vn -0.5117 0.8500 0.1255
vn -0.5956 0.7401 0.3122
vn -0.5727 0.7789 0.2554
vn 0.3675 -0.4783 0.7976
vn -0.0961 -0.1088 -0.9894
vn -0.0757 -0.0294 -0.9967
vn 0.5835 -0.7988 0.1467
vn -0.9874 0.1581 -0.0000
vn -0.1103 -0.9939 -0.0000
vn -0.5956 0.7401 -0.3122
vn -0.5117 0.8500 -0.1255
vn -0.5727 0.7789 -0.2554
vn 0.3675 -0.4783 -0.7976
vn -0.0961 -0.1088 0.9894
vn -0.0757 -0.0294 0.9967
vn 0.5835 -0.7988 -0.1467
vn 0.6644 -0.7474 -0.0000
vn -0.5009 0.6719 0.5455
vn 0.3341 -0.4376 0.8348
vn -0.9792 0.2029 -0.0000
vn -0.0640 -0.9979 -0.0000
vn -0.5009 0.6719 -0.5455
vn 0.3341 -0.4376 -0.8348
vn 0.1103 0.9939 -0.0000
vn 0.9874 -0.1581 -0.0000
vn 0.4356 0.8913 -0.1255
vn 0.5288 0.7892 -0.3122
vn 0.5027 0.8259 -0.2554
vn -0.3244 -0.5085 -0.7976
vn 0.1052 -0.1000 0.9894
vn 0.0780 -0.0227 0.9967
vn -0.5117 -0.8466 -0.1467
vn 0.9699 0.2436 -0.0000
vn 0.1966 -0.9805 -0.0000
vn 0.5288 0.7892 0.3122
vn 0.4356 0.8913 0.1255
vn 0.5027 0.8259 0.2554
vn -0.3244 -0.5085 0.7976
vn 0.1052 -0.1000 -0.9894
vn 0.0780 -0.0227 -0.9967
vn -0.5117 -0.8466 0.1467
vn -0.5967 -0.8024 -0.0000
vn 0.4404 0.7130 -0.5455
vn -0.2947 -0.4651 -0.8348
vn 0.9578 0.2874 -0.0000
vn 0.1507 -0.9886 -0.0000
vn 0.4404 0.7130 0.5455
vn -0.2947 -0.4651 0.8348
vn -0.1965 0.9805 -0.0000
vn -0.9699 -0.2436 -0.0000
vn -0.1011 -0.1812 -0.9782
vn -0.5222 -0.8238 0.2206
vn 0.4858 -0.3282 -0.8102
vn 0.4828 -0.3431 0.8057
vn -0.2006 0.1196 -0.9724
vn -0.4358 0.7004 0.5653
vn 0.3424 0.6166 -0.7089
vn 0.3334 0.6422 0.6902
vn 0.3375 0.6234 0.7053
vn 0.3322 0.6472 0.6861
vn -0.3374 -0.6234 -0.7054
vn -0.3425 -0.6167 0.7088
vn -0.2478 0.6493 -0.7190
vn 0.3265 0.6709 0.6658
vn 0.1533 -0.2396 -0.9587
vn 0.4858 -0.7125 0.5064
vn -0.1011 -0.1812 0.9782
vn -0.5222 -0.8238 -0.2206
vn -0.2478 0.6493 0.7190
vn 0.3334 0.6422 -0.6902
vn 0.3265 0.6709 -0.6658
vn 0.3322 0.6472 -0.6861
vn 0.1533 -0.2396 0.9587
vn 0.4858 -0.7125 -0.5064
vn 0.3424 0.6166 0.7089
vn 0.3375 0.6234 -0.7053
vn -0.3374 -0.6234 0.7054
vn -0.3425 -0.6167 -0.7088
vn 0.4858 -0.3282 0.8102
vn 0.4828 -0.3431 -0.8057
vn -0.2006 0.1196 0.9724
vn -0.4358 0.7004 -0.5653
vn 0.1165 -0.1717 0.9782
vn 0.5920 -0.7751 -0.2206
vn -0.4553 -0.3692 0.8102
vn -0.4511 -0.3838 -0.8057
vn 0.1894 0.1366 0.9724
vn 0.3731 0.7357 -0.5653
vn -0.3948 0.5844 0.7089
vn -0.3881 0.6108 -0.6902
vn -0.3906 0.5916 -0.7053
vn -0.3874 0.6158 -0.6861
vn 0.3905 -0.5916 0.7054
vn 0.3949 -0.5845 -0.7088
vn 0.1902 0.6685 0.7190
vn -0.3837 0.6399 -0.6658
vn -0.1318 -0.2521 0.9587
vn -0.4218 -0.7521 -0.5064
vn 0.1165 -0.1717 -0.9782
vn 0.5920 -0.7751 0.2206
vn 0.1902 0.6685 -0.7190
vn -0.3881 0.6108 0.6902
vn -0.3837 0.6399 0.6658
vn -0.3874 0.6158 0.6861
vn -0.1318 -0.2521 -0.9587
vn -0.4218 -0.7521 0.5064
vn -0.3948 0.5844 -0.7089
vn -0.3906 0.5916 0.7053
vn 0.3905 -0.5916 -0.7054
vn 0.3949 -0.5845 0.7088
vn -0.4553 -0.3692 -0.8102
vn -0.4511 -0.3838 0.8057
vn 0.1894 0.1366 -0.9724
vn 0.3731 0.7357 0.5653
vn 0.7740 0.6331 -0.0000
vn 0.6332 -0.7740 -0.0000
vn 0.2391 0.6873 0.6859
vn -0.2608 -0.6822 0.6830
vn 0.2410 0.6847 -0.6879
vn -0.2568 -0.6814 -0.6854
vn -0.4226 0.9063 -0.0000
vn -0.9063 -0.4226 -0.0000
vn 0.9063 0.4226 -0.0000
vn 0.4226 -0.9063 -0.0000
vn 0.2391 0.6873 -0.6859
vn -0.2608 -0.6822 -0.6830
vn 0.2410 0.6847 0.6879
vn -0.2568 -0.6814 0.6854
vn -0.8263 0.5633 -0.0000
vn -0.5633 -0.8263 -0.0000
vn -0.2981 0.6639 -0.6859
vn 0.3193 -0.6569 -0.6830
vn -0.2997 0.6611 0.6879
vn 0.3152 -0.6564 0.6854
vn 0.3420 0.9397 -0.0000
vn 0.9397 -0.3420 -0.0000
vn -0.9397 0.3420 -0.0000
vn -0.3420 -0.9397 -0.0000
vn -0.2981 0.6639 0.6859
vn 0.3193 -0.6569 0.6830
vn -0.2997 0.6611 -0.6879
vn 0.3152 -0.6564 -0.6854
vn -0.2749 -0.4399 -0.8550
vn -0.0119 -0.0328 -0.9994
vn 0.4888 0.8724 -0.0000
vn -0.5586 0.8294 -0.0000
vn 0.0147 -0.0316 -0.9994
vn -0.0854 -0.9963 -0.0000
vn 0.0147 -0.0316 0.9994
vn -0.0119 -0.0328 0.9994
vn 0.5596 -0.8288 -0.0000
vn -0.4898 -0.8718 -0.0000
vn 0.1700 -0.9854 -0.0000
vn -0.2749 -0.4399 0.8550
vn 0.3107 -0.4171 0.8541
vn -0.9900 -0.1412 -0.0000
vn 0.3107 -0.4171 -0.8541
vn 0.9981 -0.0618 -0.0000
vn 0.5584 -0.8296 -0.0000
vn -0.4886 -0.8725 -0.0000
vt 0.375000 0.500000
vt 0.125000 0.500000
vt 0.125000 0.750000
vt 0.375000 0.750000
vt 0.541667 0.000000
vt 0.625000 0.000000
vt 0.625000 0.250000
vt 0.541667 0.250000
vt 0.541667 0.500000
vt 0.625000 0.500000
vt 0.625000 0.750000
vt 0.541667 0.750000
vt 0.458333 0.500000
vt 0.458333 0.750000
vt 0.375000 0.000000
vt 0.458333 0.000000
vt 0.458333 0.250000
vt 0.375000 0.250000
vt 0.380468 0.012864
vt 0.619532 0.011654
vt 0.619532 0.238347
vt 0.619552 0.511653
vt 0.380448 0.512865
vt 0.619552 0.738347
vt 0.380448 0.737135
vt 0.380468 0.237136
vt 0.616001 0.230802
vt 0.383999 0.228850
vt 0.616035 0.519198
vt 0.616035 0.730803
vt 0.383965 0.521151
vt 0.383965 0.728849
vt 0.616001 0.019198
vt 0.383999 0.021150
s 1
f 65/1/1 66/2/1 3/2/1 7/1/1
f 66/2/2 65/1/2 8/1/3 4/2/3
f 66/2/4 67/2/4 9/2/4 3/2/4
f 67/2/5 66/2/5 4/2/6 10/2/7
f 67/2/8 70/1/8 17/1/8 9/2/8
f 70/1/9 67/2/9 10/2/9 18/1/9
f 69/1/10 68/2/11 9/2/12 17/1/13
f 68/2/14 69/1/14 18/1/14 10/2/14
f 70/1/15 65/1/15 7/1/15 17/1/15
f 65/1/16 70/1/16 18/1/17 8/1/18
f 71/3/19 72/4/19 5/4/19 1/3/19
f 72/4/20 71/3/20 2/3/21 6/4/21
f 72/4/22 73/4/22 21/4/22 5/4/22
f 73/4/23 72/4/23 6/4/24 22/4/25
f 73/4/26 76/3/26 11/3/26 21/4/26
f 76/3/27 73/4/27 22/4/27 12/3/27
f 75/3/28 74/4/29 21/4/30 11/3/31
f 74/4/32 75/3/32 12/3/32 22/4/32
f 76/3/33 71/3/33 1/3/33 11/3/33
f 71/3/34 76/3/34 12/3/35 2/3/36
f 77/2/37 78/1/38 7/1/39 3/2/40
f 78/1/41 77/2/41 4/2/3 8/1/3
f 78/1/38 79/4/42 5/4/43 7/1/39
f 79/4/44 78/1/44 8/1/45 6/4/45
f 79/4/42 80/3/46 1/3/47 5/4/43
f 80/3/48 79/4/48 6/4/21 2/3/21
f 80/3/46 77/2/37 3/2/40 1/3/47
f 77/2/49 80/3/49 2/3/50 4/2/50
f 81/5/51 84/6/51 13/6/51 35/5/51
f 84/6/52 81/5/52 36/5/52 14/6/52
f 83/6/53 82/5/53 35/5/53 13/6/53
f 82/5/54 83/6/54 14/6/54 36/5/54
f 84/6/55 85/7/55 15/7/55 13/6/55
f 85/7/56 84/6/56 14/6/56 16/7/56
f 85/7/57 88/8/57 37/8/57 15/7/57
f 88/8/58 85/7/58 16/7/58 38/8/58
f 87/8/59 86/7/59 15/7/59 37/8/59
f 86/7/60 87/8/60 38/8/60 16/7/60
f 88/8/61 81/5/61 35/5/61 37/8/61
f 81/5/62 88/8/62 38/8/62 36/5/62
f 89/9/63 92/10/63 19/10/63 25/9/63
f 92/10/64 89/9/64 26/9/64 20/10/64
f 91/10/65 90/9/65 25/9/65 19/10/65
f 90/9/66 91/10/66 20/10/66 26/9/66
f 92/10/67 93/11/67 23/11/67 19/10/67
f 93/11/68 92/10/68 20/10/68 24/11/68
f 93/11/69 96/12/69 29/12/69 23/11/69
f 96/12/70 93/11/70 24/11/70 30/12/70
f 95/12/71 94/11/71 23/11/71 29/12/71
f 94/11/72 95/12/72 30/12/72 24/11/72
f 96/12/73 89/9/73 25/9/73 29/12/73
f 89/9/74 96/12/74 30/12/74 26/9/74
f 97/2/75 98/3/76 1/3/77 3/2/78
f 98/3/79 97/2/79 4/2/50 2/3/50
f 98/3/76 99/3/80 11/3/80 1/3/77
f 99/3/81 98/3/81 2/3/36 12/3/35
f 99/3/82 100/2/82 9/2/82 11/3/82
f 100/2/83 99/3/83 12/3/83 10/2/83
f 100/2/84 97/2/75 3/2/78 9/2/84
f 97/2/85 100/2/85 10/2/7 4/2/6
f 101/4/86 102/1/87 7/1/88 5/4/89
f 102/1/90 101/4/90 6/4/45 8/1/45
f 102/1/87 103/1/91 17/1/91 7/1/88
f 103/1/92 102/1/92 8/1/18 18/1/17
f 103/1/93 104/4/93 21/4/93 17/1/93
f 104/4/94 103/1/94 18/1/94 22/4/94
f 104/4/95 101/4/86 5/4/89 21/4/95
f 101/4/96 104/4/96 22/4/25 6/4/24
f 105/1/97 107/13/98 27/13/98 17/1/99
f 107/13/100 105/1/100 18/1/100 28/13/100
f 106/13/101 69/1/10 17/1/13 27/13/102
f 69/1/103 106/13/103 28/13/103 18/1/103
f 107/13/104 108/14/104 31/14/104 27/13/104
f 108/14/105 107/13/105 28/13/105 32/14/105
f 108/14/106 110/4/107 21/4/108 31/14/106
f 110/4/109 108/14/109 32/14/109 22/4/109
f 74/4/29 109/14/110 31/14/111 21/4/30
f 109/14/112 74/4/112 22/4/112 32/14/112
f 110/4/107 105/1/97 17/1/99 21/4/108
f 105/1/113 110/4/113 22/4/113 18/1/113
f 111/13/114 112/9/114 25/9/114 27/13/114
f 112/9/115 111/13/115 28/13/115 26/9/115
f 112/9/116 113/12/116 29/12/116 25/9/116
f 113/12/117 112/9/117 26/9/117 30/12/117
f 113/12/118 114/14/118 31/14/118 29/12/118
f 114/14/119 113/12/119 30/12/119 32/14/119
f 114/14/120 111/13/120 27/13/120 31/14/120
f 111/13/121 114/14/121 32/14/121 28/13/121
f 115/15/122 117/16/123 33/16/123 11/15/124
f 117/16/125 115/15/125 12/15/125 34/16/125
f 116/16/126 75/15/28 11/15/31 33/16/127
f 75/15/128 116/16/128 34/16/128 12/15/128
f 117/16/129 118/17/129 39/17/129 33/16/129
f 118/17/130 117/16/130 34/16/130 40/17/130
f 118/17/131 120/18/132 9/18/133 39/17/131
f 120/18/134 118/17/134 40/17/134 10/18/134
f 68/18/11 119/17/135 39/17/136 9/18/12
f 119/17/137 68/18/137 10/18/137 40/17/137
f 120/18/132 115/15/122 11/15/124 9/18/133
f 115/15/138 120/18/138 10/18/138 12/15/138
f 121/16/139 122/5/139 35/5/139 33/16/139
f 122/5/140 121/16/140 34/16/140 36/5/140
f 122/5/141 123/8/141 37/8/141 35/5/141
f 123/8/142 122/5/142 36/5/142 38/8/142
f 123/8/143 124/17/143 39/17/143 37/8/143
f 124/17/144 123/8/144 38/8/144 40/17/144
f 124/17/145 121/16/145 33/16/145 39/17/145
f 121/16/146 124/17/146 40/17/146 34/16/146
f 125/17/147 126/8/147 37/8/147 39/17/147
f 126/8/148 125/17/148 40/17/148 38/8/148
f 126/8/149 128/8/149 53/8/149 37/8/149
f 128/8/150 126/8/150 38/8/150 54/8/150
f 127/8/151 87/8/151 37/8/151 53/8/151
f 87/8/152 127/8/152 54/8/152 38/8/152
f 128/8/153 130/17/153 55/17/153 53/8/153
f 130/17/154 128/8/155 54/8/155 56/17/156
f 129/17/157 127/8/157 53/8/157 55/17/157
f 127/8/158 129/17/158 56/17/158 54/8/158
f 130/17/159 125/17/159 39/17/159 55/17/159
f 125/17/160 130/17/154 56/17/156 40/17/160
f 119/17/135 129/17/161 55/17/161 39/17/136
f 129/17/162 119/17/162 40/17/162 56/17/162
f 131/5/163 132/16/163 33/16/163 35/5/163
f 132/16/164 131/5/164 36/5/164 34/16/164
f 132/16/165 134/16/165 49/16/165 33/16/165
f 134/16/166 132/16/167 34/16/167 50/16/168
f 133/16/169 116/16/126 33/16/127 49/16/169
f 116/16/170 133/16/170 50/16/170 34/16/170
f 134/16/171 136/5/171 51/5/171 49/16/171
f 136/5/172 134/16/166 50/16/168 52/5/172
f 135/5/173 133/16/173 49/16/173 51/5/173
f 133/16/174 135/5/174 52/5/174 50/16/174
f 136/5/175 131/5/175 35/5/175 51/5/175
f 131/5/176 136/5/176 52/5/176 36/5/176
f 82/5/177 135/5/177 51/5/177 35/5/177
f 135/5/178 82/5/178 36/5/178 52/5/178
f 137/14/179 138/12/179 29/12/179 31/14/179
f 138/12/180 137/14/180 32/14/180 30/12/180
f 138/12/181 140/12/181 45/12/181 29/12/181
f 140/12/182 138/12/182 30/12/182 46/12/182
f 139/12/183 95/12/183 29/12/183 45/12/183
f 95/12/184 139/12/184 46/12/184 30/12/184
f 140/12/185 142/14/185 47/14/185 45/12/185
f 142/14/186 140/12/187 46/12/187 48/14/188
f 141/14/189 139/12/189 45/12/189 47/14/189
f 139/12/190 141/14/190 48/14/190 46/12/190
f 142/14/191 137/14/191 31/14/191 47/14/191
f 137/14/192 142/14/186 48/14/188 32/14/192
f 109/14/110 141/14/193 47/14/193 31/14/111
f 141/14/194 109/14/194 32/14/194 48/14/194
f 143/9/195 144/13/195 27/13/195 25/9/195
f 144/13/196 143/9/196 26/9/196 28/13/196
f 144/13/197 146/13/197 43/13/197 27/13/197
f 146/13/198 144/13/199 28/13/199 44/13/200
f 145/13/201 106/13/101 27/13/102 43/13/201
f 106/13/202 145/13/202 44/13/202 28/13/202
f 146/13/203 148/9/203 41/9/203 43/13/203
f 148/9/204 146/13/198 44/13/200 42/9/204
f 147/9/205 145/13/205 43/13/205 41/9/205
f 145/13/206 147/9/206 42/9/206 44/13/206
f 148/9/207 143/9/207 25/9/207 41/9/207
f 143/9/208 148/9/208 42/9/208 26/9/208
f 90/9/209 147/9/209 41/9/209 25/9/209
f 147/9/210 90/9/210 26/9/210 42/9/210
f 149/11/211 150/10/211 19/10/211 23/11/211
f 150/10/212 149/11/212 24/11/212 20/10/212
f 150/10/213 152/10/213 61/10/213 19/10/213
f 152/10/214 150/10/214 20/10/214 62/10/214
f 151/10/215 91/10/215 19/10/215 61/10/215
f 91/10/216 151/10/216 62/10/216 20/10/216
f 152/10/217 154/11/217 63/11/217 61/10/217
f 154/11/218 152/10/218 62/10/218 64/11/218
f 153/11/219 151/10/219 61/10/219 63/11/219
f 151/10/220 153/11/220 64/11/220 62/10/220
f 154/11/221 149/11/221 23/11/221 63/11/221
f 149/11/222 154/11/222 64/11/222 24/11/222
f 94/11/223 153/11/223 63/11/223 23/11/223
f 153/11/224 94/11/224 24/11/224 64/11/224
f 155/7/225 156/6/225 13/6/225 15/7/225
f 156/6/226 155/7/226 16/7/226 14/6/226
f 156/6/227 158/6/227 57/6/227 13/6/227
f 158/6/228 156/6/228 14/6/228 58/6/228
f 157/6/229 83/6/229 13/6/229 57/6/229
f 83/6/230 157/6/230 58/6/230 14/6/230
f 158/6/231 160/7/231 59/7/231 57/6/231
f 160/7/232 158/6/232 58/6/232 60/7/232
f 159/7/233 157/6/233 57/6/233 59/7/233
f 157/6/234 159/7/234 60/7/234 58/6/234
f 160/7/235 155/7/235 15/7/235 59/7/235
f 155/7/236 160/7/236 60/7/236 16/7/236
f 86/7/237 159/7/237 59/7/237 15/7/237
f 159/7/238 86/7/238 16/7/238 60/7/238
f 181/19/239 182/20/239 190/20/239 189/19/239
f 174/10/231 176/11/231 161/11/231 164/10/231
f 173/1/240 174/10/240 164/10/240 163/1/240
f 170/15/241 169/18/241 172/7/241 171/6/241
f 173/1/242 175/4/242 176/11/242 174/10/242
f 172/7/243 169/18/243 168/18/243 165/7/243
f 182/20/244 183/21/244 192/21/244 190/20/244
f 170/15/245 171/6/245 166/6/245 167/15/245
f 176/11/246 175/4/246 162/4/246 161/11/246
f 175/4/234 173/1/234 163/1/234 162/4/234
f 171/6/217 172/7/217 165/7/217 166/6/217
f 169/18/220 170/15/220 167/15/220 168/18/220
f 163/1/247 164/10/247 178/22/247 177/23/247
f 164/10/247 161/11/247 179/24/247 178/22/247
f 161/11/247 162/4/247 180/25/247 179/24/247
f 162/4/247 163/1/247 177/23/247 180/25/247
f 167/15/248 166/6/248 182/20/248 181/19/248
f 166/6/248 165/7/248 183/21/248 182/20/248
f 165/7/248 168/18/248 184/26/248 183/21/248
f 168/18/248 167/15/248 181/19/248 184/26/248
f 199/27/243 200/28/243 207/28/243 208/27/243
f 194/29/231 195/30/231 204/30/231 201/29/231
f 178/22/249 179/24/249 188/24/249 185/22/249
f 183/21/250 184/26/250 191/26/250 192/21/250
f 177/23/251 178/22/251 185/22/251 186/23/251
f 184/26/252 181/19/252 189/19/252 191/26/252
f 179/24/253 180/25/253 187/25/253 188/24/253
f 180/25/254 177/23/254 186/23/254 187/25/254
f 186/23/247 185/22/247 194/29/247 193/31/247
f 185/22/247 188/24/247 195/30/247 194/29/247
f 188/24/247 187/25/247 196/32/247 195/30/247
f 187/25/247 186/23/247 193/31/247 196/32/247
f 189/19/248 190/20/248 198/33/248 197/34/248
f 190/20/248 192/21/248 199/27/248 198/33/248
f 192/21/248 191/26/248 200/28/248 199/27/248
f 191/26/248 189/19/248 197/34/248 200/28/248
f 202/31/255 201/29/255 204/30/255 203/32/255
f 205/34/256 206/33/256 208/27/256 207/28/256
f 193/31/240 194/29/240 201/29/240 202/31/240
f 200/28/220 197/34/220 205/34/220 207/28/220
f 195/30/246 196/32/246 203/32/246 204/30/246
f 196/32/234 193/31/234 202/31/234 203/32/234
f 198/33/217 199/27/217 208/27/217 206/33/217
f 197/34/245 198/33/245 206/33/245 205/34/245
