# Blender 4.3.2
# www.blender.org
mtllib Lamp Wall.mtl
o Cube.003
v -0.209292 0.660297 -0.751829
v -0.203231 0.699264 -0.718203
v -0.209292 0.751886 -0.853372
v -0.203231 0.790854 -0.819746
v 0.172005 0.660297 -0.751829
v 0.178067 0.699264 -0.718203
v 0.172005 0.751886 -0.853372
v 0.178067 0.790854 -0.819746
v -0.105525 0.622018 -0.783672
v 0.082646 0.622018 -0.783672
v 0.082646 0.713607 -0.885215
v -0.105525 0.713607 -0.885215
v -0.105525 0.751886 -0.853372
v 0.082646 0.751886 -0.853372
v 0.089973 0.790854 -0.819746
v -0.098198 0.790854 -0.819746
v 0.082646 0.660297 -0.751829
v -0.105525 0.660297 -0.751829
v -0.098198 0.699264 -0.718203
v 0.089973 0.699264 -0.718203
v 0.082646 0.707445 -0.890773
v 0.082646 0.615856 -0.789230
v -0.105525 0.615856 -0.789230
v -0.105525 0.707445 -0.890773
v 0.109665 0.669336 -0.921934
v 0.109665 0.577747 -0.820391
v -0.132797 0.577747 -0.820391
v -0.132797 0.669336 -0.921934
v 0.109665 0.663174 -0.927492
v 0.109665 0.571585 -0.825949
v -0.132797 0.571585 -0.825949
v -0.132797 0.663174 -0.927492
v -0.091495 0.038095 -0.118274
v -0.091495 0.082341 -0.118274
v -0.091495 0.826474 -0.978810
v -0.091495 0.870720 -0.978810
v 0.068313 0.038095 -0.118274
v 0.068313 0.082341 -0.118274
v 0.068313 0.826474 -0.978810
v 0.068313 0.870720 -0.978810
v -0.074723 0.823337 -0.975386
v 0.051540 0.823337 -0.975386
v 0.051540 0.041232 -0.121699
v -0.074723 0.041232 -0.121699
v 0.051540 0.799030 -0.975386
v -0.074723 0.799030 -0.975386
v -0.074061 0.042095 -0.150519
v 0.052201 0.042095 -0.150519
v 0.094509 -0.043628 0.033954
v 0.094509 0.000618 0.033954
v 0.094509 0.767934 -0.853076
v 0.094509 0.812180 -0.853076
v 0.138754 -0.043628 0.033954
v 0.138754 0.000618 0.033954
v 0.138754 0.767934 -0.853076
v 0.138754 0.812180 -0.853076
v -0.171285 -0.020017 -0.220238
v -0.171285 0.001991 -0.200684
v -0.171285 0.769970 -1.076481
v -0.171285 0.790371 -1.061220
v 0.148102 -0.020017 -0.220238
v 0.148102 0.001991 -0.200684
v 0.148102 0.769970 -1.076481
v 0.148102 0.790371 -1.061220
v -0.011591 0.769970 -1.076481
v -0.091438 0.769970 -1.076481
v -0.171285 0.752065 -1.057075
v 0.148102 0.752065 -1.057075
v -0.113723 0.752065 -1.057075
v -0.069153 0.752065 -1.057075
v -0.091438 0.754159 -1.059344
v -0.069153 -0.002113 -0.239645
v -0.113723 -0.002113 -0.239645
v -0.091438 -0.004206 -0.237376
v -0.113723 -0.002113 -0.239645
v -0.069153 -0.002113 -0.239645
v -0.091438 -0.004206 -0.237376
v -0.069153 0.752065 -1.057075
v -0.113723 0.752065 -1.057075
v -0.091438 0.754159 -1.059344
v -0.033876 -0.002113 -0.239645
v 0.010693 -0.002113 -0.239645
v -0.011591 -0.004206 -0.237376
v 0.010693 0.752065 -1.057075
v -0.033876 0.752065 -1.057075
v -0.011591 0.754159 -1.059344
v 0.090540 0.752065 -1.057075
v 0.045971 0.752065 -1.057075
v 0.068255 0.754159 -1.059344
v 0.045971 -0.002113 -0.239645
v 0.090540 -0.002113 -0.239645
v 0.068255 -0.004206 -0.237376
v -0.011591 -0.004206 -0.237376
v -0.033876 -0.002113 -0.239645
v 0.010693 -0.002113 -0.239645
v -0.011591 0.754159 -1.059344
v 0.010693 0.752065 -1.057075
v -0.033876 0.752065 -1.057075
v 0.068255 0.754159 -1.059344
v 0.090540 0.752065 -1.057075
v 0.045971 0.752065 -1.057075
v 0.068255 -0.004206 -0.237376
v 0.045971 -0.002113 -0.239645
v 0.090540 -0.002113 -0.239645
v -0.069153 0.751757 -1.057359
v -0.090774 0.749555 -1.059390
v -0.069696 0.751267 -1.057811
v -0.071295 0.750802 -1.058240
v -0.073870 0.750384 -1.058626
v -0.077294 0.750036 -1.058947
v -0.081393 0.749774 -1.059189
v -0.085963 0.749611 -1.059339
v -0.092102 0.749555 -1.059390
v -0.113723 0.751757 -1.057359
v -0.096913 0.749611 -1.059339
v -0.101483 0.749774 -1.059189
v -0.105583 0.750036 -1.058947
v -0.109006 0.750384 -1.058626
v -0.111582 0.750802 -1.058240
v -0.113181 0.751267 -1.057811
v 0.010693 0.751757 -1.057359
v -0.010928 0.749555 -1.059390
v 0.010151 0.751267 -1.057811
v 0.008552 0.750802 -1.058240
v 0.005976 0.750384 -1.058626
v 0.002553 0.750036 -1.058947
v -0.001547 0.749774 -1.059189
v -0.006116 0.749611 -1.059339
v -0.010928 -0.004622 -0.241960
v 0.010693 -0.002421 -0.239929
v -0.006116 -0.004567 -0.241909
v -0.001547 -0.004404 -0.241759
v 0.002553 -0.004142 -0.241517
v 0.005976 -0.003793 -0.241196
v 0.008552 -0.003376 -0.240810
v 0.010151 -0.002911 -0.240381
v -0.033876 -0.002421 -0.239929
v -0.012255 -0.004622 -0.241960
v -0.033334 -0.002911 -0.240381
v -0.031735 -0.003376 -0.240810
v -0.029159 -0.003793 -0.241196
v -0.025736 -0.004142 -0.241517
v -0.021636 -0.004404 -0.241759
v -0.017066 -0.004567 -0.241909
v 0.045971 -0.002421 -0.239929
v 0.067591 -0.004622 -0.241960
v 0.046513 -0.002911 -0.240381
v 0.048112 -0.003376 -0.240810
v 0.050688 -0.003794 -0.241196
v 0.054111 -0.004142 -0.241517
v 0.058210 -0.004404 -0.241759
v 0.062780 -0.004567 -0.241909
v 0.068919 -0.004622 -0.241960
v 0.090540 -0.002421 -0.239929
v 0.073730 -0.004567 -0.241909
v 0.078300 -0.004404 -0.241759
v 0.082400 -0.004142 -0.241517
v 0.085823 -0.003794 -0.241196
v 0.088399 -0.003376 -0.240810
v 0.089998 -0.002911 -0.240381
v 0.090540 0.751757 -1.057359
v 0.068919 0.749555 -1.059390
v 0.089998 0.751267 -1.057811
v 0.088399 0.750802 -1.058240
v 0.085823 0.750384 -1.058626
v 0.082400 0.750036 -1.058947
v 0.078300 0.749774 -1.059189
v 0.073730 0.749611 -1.059339
v 0.067591 0.749555 -1.059390
v 0.045971 0.751757 -1.057359
v 0.062780 0.749611 -1.059339
v 0.058210 0.749774 -1.059189
v 0.054111 0.750036 -1.058947
v 0.050688 0.750384 -1.058626
v 0.048112 0.750802 -1.058241
v 0.046513 0.751267 -1.057811
v -0.012255 0.749555 -1.059390
v -0.033876 0.751757 -1.057359
v -0.017066 0.749611 -1.059339
v -0.021636 0.749774 -1.059189
v -0.025736 0.750036 -1.058947
v -0.029159 0.750384 -1.058626
v -0.031735 0.750802 -1.058240
v -0.033334 0.751267 -1.057811
v -0.113723 -0.002421 -0.239929
v -0.092102 -0.004622 -0.241960
v -0.113181 -0.002911 -0.240381
v -0.111582 -0.003376 -0.240810
v -0.109006 -0.003794 -0.241196
v -0.105583 -0.004142 -0.241517
v -0.101483 -0.004404 -0.241759
v -0.096913 -0.004567 -0.241909
v -0.090774 -0.004622 -0.241960
v -0.069153 -0.002421 -0.239929
v -0.085963 -0.004567 -0.241909
v -0.081393 -0.004404 -0.241759
v -0.077294 -0.004142 -0.241517
v -0.073870 -0.003793 -0.241196
v -0.071295 -0.003376 -0.240810
v -0.069696 -0.002911 -0.240381
v -0.168571 -0.043628 0.033954
v -0.168571 0.000618 0.033954
v -0.168571 0.767934 -0.853076
v -0.168571 0.812180 -0.853076
v -0.124325 -0.043628 0.033954
v -0.124325 0.000618 0.033954
v -0.124325 0.767934 -0.853076
v -0.124325 0.812180 -0.853076
v -0.209292 0.233067 -0.278895
v -0.203231 0.272035 -0.245269
v -0.209292 0.324656 -0.380439
v -0.203231 0.363624 -0.346812
v 0.172005 0.233067 -0.278895
v 0.178066 0.272035 -0.245269
v 0.172005 0.324656 -0.380439
v 0.178066 0.363624 -0.346812
v -0.104646 0.194788 -0.310738
v 0.083524 0.194788 -0.310738
v 0.083524 0.286377 -0.412281
v -0.104646 0.286377 -0.412281
v -0.104646 0.324656 -0.380439
v 0.083524 0.324656 -0.380439
v 0.090851 0.363624 -0.346812
v -0.097320 0.363624 -0.346812
v 0.083524 0.233067 -0.278895
v -0.104646 0.233067 -0.278895
v -0.097320 0.272035 -0.245269
v 0.090851 0.272035 -0.245269
v 0.083524 0.280215 -0.417839
v 0.083524 0.188626 -0.316296
v -0.104646 0.188626 -0.316296
v -0.104646 0.280215 -0.417839
v 0.110797 0.242106 -0.449001
v 0.110797 0.150517 -0.347457
v -0.131666 0.150517 -0.347457
v -0.131666 0.242106 -0.449001
v 0.110797 0.235944 -0.454559
v 0.110797 0.144355 -0.353015
v -0.131666 0.144355 -0.353015
v -0.131666 0.235944 -0.454559
v -0.279785 -0.087401 0.020524
v -0.271654 0.112403 0.049513
v -0.213688 0.042385 -0.081020
v -0.207627 0.086651 -0.052030
v 0.231637 -0.087401 0.020524
v 0.239767 0.112403 0.049513
v 0.167609 0.042385 -0.081020
v 0.173671 0.086651 -0.052030
vn -0.9931 0.0869 0.0784
vn -0.0000 0.7426 0.6698
vn 0.9931 -0.0869 -0.0784
vn -0.0000 -0.6698 0.7426
vn -0.0000 -0.7426 -0.6698
vn -0.0000 -0.6533 0.7571
vn -0.0000 0.6533 -0.7571
vn -0.0000 -0.6395 0.7688
vn -0.0000 0.6395 -0.7688
vn -1.0000 -0.0000 -0.0000
vn 1.0000 -0.0000 -0.0000
vn -0.0000 0.6698 -0.7426
vn 0.0879 0.6672 -0.7397
vn 0.9034 -0.3184 -0.2872
vn 0.0871 -0.6672 0.7397
vn -0.9050 -0.3159 -0.2850
vn -0.9034 0.3184 0.2872
vn -0.0871 0.6672 -0.7397
vn 0.9050 0.3159 0.2850
vn -0.0879 -0.6672 0.7397
vn -0.0000 -0.0000 -1.0000
vn -0.0000 -0.0000 1.0000
vn -0.0000 -0.9996 -0.0299
vn -0.0000 0.7373 0.6755
vn -0.0000 -0.7373 -0.6755
vn -0.0000 -0.7368 -0.6761
vn -0.9998 -0.0135 -0.0120
vn 0.9998 0.0135 0.0120
vn -0.0000 -0.7378 -0.6750
vn -0.0000 0.7378 0.6750
vn -0.0000 -0.7350 -0.6781
vn -0.0000 -0.6642 0.7476
vn -0.0000 0.5990 -0.8007
vn -0.0000 1.0000 -0.0000
vn -0.0000 0.2349 -0.9720
vn -0.0000 -0.9500 0.3122
vn 0.7758 -0.4638 -0.4279
vn 0.3681 -0.6834 -0.6305
vn 0.2153 -0.7177 -0.6622
vn 0.1372 -0.7280 -0.6717
vn 0.0867 -0.7322 -0.6755
vn 0.0484 -0.7341 -0.6773
vn 0.0156 -0.7349 -0.6780
vn -0.7758 -0.4637 -0.4279
vn -0.3681 -0.6834 -0.6305
vn -0.2153 -0.7177 -0.6622
vn -0.1372 -0.7280 -0.6717
vn -0.0867 -0.7322 -0.6755
vn -0.0484 -0.7341 -0.6773
vn -0.0156 -0.7349 -0.6780
vn -0.7758 -0.4638 -0.4279
vn 0.7758 -0.4637 -0.4279
vn 0.9050 -0.3159 -0.2850
vn -0.0871 -0.6672 0.7397
vn 0.0871 0.6672 -0.7397
vn 0.0879 -0.6672 0.7397
vn -0.9034 -0.3184 -0.2872
vn -0.9050 0.3159 0.2850
vn -0.0879 0.6672 -0.7397
vn 0.9034 0.3184 0.2872
vn -0.8665 0.1625 -0.4720
vn -0.0000 0.5479 -0.8366
vn 0.8561 0.0718 -0.5118
vn -0.0000 -0.1436 0.9896
vn -0.0000 -0.6162 -0.7876
vn -0.0000 0.9693 -0.2458
vt 0.375000 0.000000
vt 0.625000 0.000000
vt 0.625000 0.250000
vt 0.375000 0.250000
vt 0.625000 0.500000
vt 0.699439 0.500000
vt 0.699439 0.750000
vt 0.625000 0.750000
vt 0.375000 0.500000
vt 0.375000 0.750000
vt 0.375000 0.824439
vt 0.375000 0.926514
vt 0.125000 0.500000
vt 0.198486 0.500000
vt 0.198486 0.750000
vt 0.125000 0.750000
vt 0.625000 0.824439
vt 0.801514 0.500000
vt 0.875000 0.500000
vt 0.875000 0.750000
vt 0.801514 0.750000
vt 0.375000 0.425561
vt 0.625000 0.425561
vt 0.625000 0.926514
vt 0.625000 1.000000
vt 0.375000 1.000000
vt 0.300561 0.500000
vt 0.300561 0.750000
vt 0.375000 0.323486
vt 0.625000 0.323486
vt 0.348761 0.749005
vt 0.151239 0.749005
vt 0.348761 0.500995
vt 0.151239 0.500995
vt 0.375000 0.505666
vt 0.375000 0.462652
vt 0.375000 0.445006
vt 0.375000 0.429347
vt 0.375000 0.402985
vt 0.375000 0.385007
vt 0.375000 0.375000
vt 0.625000 0.125000
vt 0.375000 0.312500
vt 0.375000 0.325009
vt 0.375000 0.310013
vt 0.375000 0.266998
vt 0.375000 0.939987
vt 0.375000 0.924991
vt 0.375000 0.906682
vt 0.375000 0.343318
vt 0.375000 0.325009
vt 0.375000 0.385007
vt 0.375000 0.369680
vt 0.375000 0.880320
vt 0.375000 0.864993
vt 0.375000 0.847015
vt 0.375000 0.820653
vt 0.375000 0.804994
vt 0.375000 0.787348
vt 0.375000 0.446495
vt 0.375000 0.803505
vt 0.375000 0.804497
vt 0.375000 0.445503
vt 0.375000 0.445006
vt 0.375000 0.787348
vt 0.375000 0.369680
vt 0.375000 0.864993
vt 0.375000 0.924991
vt 0.375000 0.804994
vt 0.375000 0.864164
vt 0.375000 0.385836
vt 0.375000 0.386828
vt 0.375000 0.863172
vt 0.375000 0.847015
vt 0.375000 0.343318
vt 0.375000 0.327365
vt 0.375000 0.326169
vt 0.375000 0.322574
vt 0.375000 0.319159
vt 0.375000 0.316096
vt 0.375000 0.313537
vt 0.375000 0.311613
vt 0.375000 0.310418
vt 0.375000 0.880320
vt 0.375000 0.880320
vt 0.375000 0.880320
vt 0.375000 0.864368
vt 0.375000 0.859576
vt 0.375000 0.856161
vt 0.375000 0.853098
vt 0.375000 0.850540
vt 0.375000 0.848615
vt 0.375000 0.847420
vt 0.375000 0.804701
vt 0.375000 0.799909
vt 0.375000 0.796495
vt 0.375000 0.793431
vt 0.375000 0.790873
vt 0.375000 0.788948
vt 0.375000 0.787753
vt 0.375000 0.462652
vt 0.375000 0.446699
vt 0.375000 0.441908
vt 0.375000 0.438493
vt 0.375000 0.435430
vt 0.375000 0.432871
vt 0.375000 0.430946
vt 0.375000 0.429752
vt 0.375000 0.402985
vt 0.375000 0.402985
vt 0.375000 0.387032
vt 0.375000 0.382241
vt 0.375000 0.378826
vt 0.375000 0.375763
vt 0.375000 0.373204
vt 0.375000 0.371280
vt 0.375000 0.370085
vt 0.375000 0.939987
vt 0.375000 0.939987
vt 0.375000 0.939987
vt 0.375000 0.939987
vt 0.375000 0.924035
vt 0.375000 0.922839
vt 0.375000 0.919243
vt 0.375000 0.915828
vt 0.375000 0.912765
vt 0.375000 0.910207
vt 0.375000 0.908282
vt 0.375000 0.907087
vt 0.375000 0.787348
vt 0.375000 0.787348
vt 0.375000 0.456569
vt 0.375000 0.453505
vt 0.375000 0.450091
vt 0.375000 0.814570
vt 0.375000 0.811507
vt 0.375000 0.808092
vt 0.375000 0.874237
vt 0.375000 0.871174
vt 0.375000 0.867759
vt 0.375000 0.396902
vt 0.375000 0.393838
vt 0.375000 0.390424
vt 0.375000 0.933904
vt 0.375000 0.930841
vt 0.375000 0.927426
vt 0.375000 0.923831
vt 0.375000 0.337235
vt 0.375000 0.334172
vt 0.375000 0.330757
vt 0.375000 0.327161
vt 0.698962 0.500000
vt 0.698962 0.750000
vt 0.375000 0.823962
vt 0.375000 0.926038
vt 0.198962 0.500000
vt 0.198962 0.750000
vt 0.625000 0.823962
vt 0.801038 0.500000
vt 0.801038 0.750000
vt 0.375000 0.426038
vt 0.625000 0.426038
vt 0.625000 0.926038
vt 0.301038 0.500000
vt 0.301038 0.750000
vt 0.375000 0.323962
vt 0.625000 0.323962
s 0
f 1/1/1 2/2/1 4/3/1 3/4/1
f 8/5/2 15/6/2 20/7/2 6/8/2
f 7/9/3 8/5/3 6/8/3 5/10/3
f 10/11/4 9/12/4 23/12/4 22/11/4
f 3/13/5 13/14/5 18/15/5 1/16/5
f 5/10/6 6/8/6 20/17/6 17/11/6
f 16/18/2 4/19/2 2/20/2 19/21/2
f 14/22/7 15/23/7 8/5/7 7/9/7
f 18/12/6 19/24/6 2/25/6 1/26/6
f 14/27/5 7/9/5 5/10/5 17/28/5
f 16/18/2 19/21/2 20/7/2 15/6/2
f 17/11/8 18/12/8 9/12/8 10/11/8
f 19/24/6 18/12/6 17/11/6 20/17/6
f 15/23/7 14/22/7 13/29/7 16/30/7
f 3/4/7 4/3/7 16/30/7 13/29/7
f 13/29/9 14/22/9 11/22/9 12/29/9
f 18/15/10 13/14/10 12/14/10 9/15/10
f 14/27/11 17/28/11 10/28/11 11/27/11
f 21/27/5 22/28/5 23/15/5 24/14/5
f 12/29/12 11/22/12 21/22/12 24/29/12
f 21/22/13 11/22/13 25/22/13 29/22/13
f 24/14/14 23/15/14 31/15/14 32/14/14
f 27/15/10 28/14/10 32/14/10 31/15/10
f 25/27/11 26/28/11 30/28/11 29/27/11
f 23/12/15 9/12/15 27/12/15 31/12/15
f 22/28/16 21/27/16 29/27/16 30/28/16
f 9/15/17 12/14/17 28/14/17 27/15/17
f 12/29/18 24/29/18 32/29/18 28/29/18
f 11/27/19 10/28/19 26/28/19 25/27/19
f 10/11/20 22/11/20 30/11/20 26/11/20
f 33/1/10 34/2/10 36/3/10 35/4/10
f 35/4/21 36/3/21 40/5/21 39/9/21
f 39/9/11 40/5/11 38/8/11 37/10/11
f 37/10/22 38/8/22 34/25/22 33/26/22
f 43/31/23 44/32/23 47/32/23 48/31/23
f 40/5/24 36/19/24 34/20/24 38/8/24
f 35/13/25 39/9/25 42/33/25 41/34/25
f 39/9/25 37/10/25 43/31/25 42/33/25
f 37/10/25 33/16/25 44/32/25 43/31/25
f 33/16/25 35/13/25 41/34/25 44/32/25
f 46/34/26 45/33/26 48/31/26 47/32/26
f 44/32/27 41/34/27 46/34/27 47/32/27
f 42/33/28 43/31/28 48/31/28 45/33/28
f 41/34/21 42/33/21 45/33/21 46/34/21
f 49/1/10 50/2/10 52/3/10 51/4/10
f 51/4/21 52/3/21 56/5/21 55/9/21
f 55/9/11 56/5/11 54/8/11 53/10/11
f 53/10/22 54/8/22 50/25/22 49/26/22
f 51/13/29 55/9/29 53/10/29 49/16/29
f 56/5/30 52/19/30 50/20/30 54/8/30
f 63/9/31 68/35/31 87/36/31 89/37/31 88/38/31 84/39/31 86/40/31 65/41/31
f 64/5/24 60/19/24 58/20/24 62/8/24
f 67/42/10 57/1/10 58/2/10 60/3/10 59/4/10
f 59/4/31 66/43/31 80/44/31 79/45/31 67/46/31
f 75/47/31 77/48/31 76/49/31 78/50/31 80/51/31 66/43/31 65/41/31 86/52/31 85/53/31 81/54/31 83/55/31 82/56/31 84/39/31 88/38/31 90/57/31 92/58/31 91/59/31 87/36/31 68/35/31 61/10/31 57/26/31 67/46/31 79/45/31
f 62/8/32 58/25/32 57/26/32 61/10/32
f 60/3/33 64/5/33 63/9/33 65/41/33 66/43/33 59/4/33
f 68/35/11 63/9/11 64/5/11 62/8/11 61/10/11
f 162/60/31 153/61/31 146/62/31 169/63/31
f 79/45/34 80/44/34 71/44/34 69/45/34
f 89/64/34 87/36/34 100/36/34 99/64/34
f 90/57/34 88/38/34 101/38/34 103/57/34
f 85/53/34 86/52/34 96/52/34 98/53/34
f 87/36/34 91/59/34 104/59/34 100/36/34
f 80/51/34 78/50/34 70/50/34 71/51/34
f 91/65/34 92/58/34 102/58/34 104/65/34
f 76/49/34 77/48/34 74/48/34 72/49/34
f 86/40/34 84/39/34 97/39/34 96/40/34
f 94/54/10 98/53/10 178/66/10 137/54/10
f 100/36/11 104/59/11 154/59/11 161/36/11
f 81/54/34 85/53/34 98/53/34 94/54/34
f 83/67/34 81/54/34 94/54/34 93/67/34
f 84/39/34 82/56/34 95/56/34 97/39/34
f 88/38/34 89/37/34 99/37/34 101/38/34
f 75/47/34 79/45/34 69/45/34 73/47/34
f 77/68/34 75/47/34 73/47/34 74/68/34
f 92/69/34 90/57/34 103/57/34 102/69/34
f 82/56/34 83/55/34 93/55/34 95/56/34
f 78/50/34 76/49/34 72/49/34 70/50/34
f 138/70/31 177/71/31 122/72/31 129/73/31
f 103/57/10 101/38/10 170/38/10 145/57/10
f 70/50/11 72/49/11 194/49/11 105/50/11
f 97/39/11 95/56/11 130/74/11 121/39/11
f 73/47/10 69/45/10 114/45/10 185/47/10
f 105/50/35 107/50/35 108/50/35 109/75/35 110/50/35 111/50/35 112/50/35 106/76/35 113/77/35 115/78/35 116/79/35 117/80/35 118/81/35 119/82/35 120/83/35 114/45/35 69/45/35 71/51/35 70/50/35
f 137/54/36 139/84/36 140/54/36 141/54/36 142/85/36 143/54/36 144/86/36 138/87/36 129/73/36 131/88/36 132/89/36 133/90/36 134/91/36 135/92/36 136/93/36 130/56/36 95/56/36 93/67/36 94/54/36
f 145/57/36 147/57/36 148/57/36 149/57/36 150/57/36 151/57/36 152/57/36 146/94/36 153/61/36 155/95/36 156/96/36 157/97/36 158/98/36 159/99/36 160/100/36 154/65/36 104/65/36 102/69/36 103/57/36
f 161/36/35 163/36/35 164/36/35 165/101/35 166/36/35 167/36/35 168/36/35 162/102/35 169/63/35 171/103/35 172/104/35 173/105/35 174/106/35 175/107/35 176/108/35 170/38/35 101/38/35 99/64/35 100/36/35
f 121/39/35 123/39/35 124/39/35 125/109/35 126/39/35 127/39/35 128/110/35 122/111/35 177/71/35 179/112/35 180/113/35 181/114/35 182/115/35 183/116/35 184/117/35 178/53/35 98/53/35 96/40/35 97/39/35
f 185/47/36 187/118/36 188/119/36 189/120/36 190/119/36 191/47/36 192/121/36 186/122/36 193/123/36 195/124/36 196/125/36 197/126/36 198/127/36 199/128/36 200/129/36 194/49/36 72/49/36 74/68/36 73/47/36
f 161/36/37 154/59/37 160/130/37 163/36/37
f 163/36/38 160/130/38 159/59/38 164/36/38
f 164/36/39 159/59/39 158/131/39 165/101/39
f 165/101/40 158/131/40 157/97/40 166/132/40
f 166/132/41 157/97/41 156/96/41 167/133/41
f 167/133/42 156/96/42 155/95/42 168/134/42
f 168/134/43 155/95/43 153/61/43 162/60/43
f 145/57/44 170/38/44 176/38/44 147/57/44
f 147/57/45 176/38/45 175/38/45 148/57/45
f 148/57/46 175/38/46 174/38/46 149/57/46
f 149/57/47 174/38/47 173/105/47 150/135/47
f 150/135/48 173/105/48 172/104/48 151/136/48
f 151/136/49 172/104/49 171/103/49 152/137/49
f 152/137/50 171/103/50 169/63/50 146/62/50
f 137/54/51 178/66/51 184/53/51 139/84/51
f 139/84/45 184/53/45 183/53/45 140/54/45
f 140/54/46 183/53/46 182/53/46 141/54/46
f 141/54/47 182/53/47 181/114/47 142/138/47
f 142/138/48 181/114/48 180/113/48 143/139/48
f 143/139/49 180/113/49 179/112/49 144/140/49
f 144/140/50 179/112/50 177/71/50 138/70/50
f 121/39/37 130/74/37 136/56/37 123/39/37
f 123/39/38 136/56/38 135/56/38 124/39/38
f 124/39/39 135/56/39 134/56/39 125/109/39
f 125/109/40 134/56/40 133/90/40 126/141/40
f 126/141/41 133/90/41 132/89/41 127/142/41
f 127/142/42 132/89/42 131/88/42 128/143/42
f 128/143/43 131/88/43 129/73/43 122/72/43
f 185/47/51 114/45/51 120/45/51 187/118/51
f 187/118/45 120/45/45 119/45/45 188/119/45
f 188/119/46 119/45/46 118/45/46 189/120/46
f 189/120/47 118/45/47 117/80/47 190/144/47
f 190/144/48 117/80/48 116/79/48 191/145/48
f 191/145/49 116/79/49 115/78/49 192/146/49
f 192/146/50 115/78/50 113/77/50 186/147/50
f 105/50/52 194/49/52 200/49/52 107/50/52
f 107/50/38 200/49/38 199/49/38 108/50/38
f 108/50/39 199/49/39 198/49/39 109/75/39
f 109/75/40 198/49/40 197/126/40 110/148/40
f 110/148/41 197/126/41 196/125/41 111/149/41
f 111/149/42 196/125/42 195/124/42 112/150/42
f 112/150/43 195/124/43 193/123/43 106/151/43
f 186/147/31 113/77/31 106/151/31 193/123/31
f 201/1/10 202/2/10 204/3/10 203/4/10
f 203/4/21 204/3/21 208/5/21 207/9/21
f 207/9/11 208/5/11 206/8/11 205/10/11
f 205/10/22 206/8/22 202/25/22 201/26/22
f 203/13/29 207/9/29 205/10/29 201/16/29
f 208/5/30 204/19/30 202/20/30 206/8/30
f 209/1/1 210/2/1 212/3/1 211/4/1
f 216/5/2 223/152/2 228/153/2 214/8/2
f 215/9/3 216/5/3 214/8/3 213/10/3
f 218/154/4 217/155/4 231/155/4 230/154/4
f 211/13/5 221/156/5 226/157/5 209/16/5
f 213/10/6 214/8/6 228/158/6 225/154/6
f 224/159/2 212/19/2 210/20/2 227/160/2
f 222/161/7 223/162/7 216/5/7 215/9/7
f 226/155/6 227/163/6 210/25/6 209/26/6
f 222/164/5 215/9/5 213/10/5 225/165/5
f 224/159/2 227/160/2 228/153/2 223/152/2
f 222/164/11 225/165/11 218/165/11 219/164/11
f 227/163/6 226/155/6 225/154/6 228/158/6
f 223/162/7 222/161/7 221/166/7 224/167/7
f 211/4/7 212/3/7 224/167/7 221/166/7
f 225/154/8 226/155/8 217/155/8 218/154/8
f 221/166/9 222/161/9 219/161/9 220/166/9
f 226/157/10 221/156/10 220/156/10 217/157/10
f 229/164/5 230/165/5 231/157/5 232/156/5
f 220/166/12 219/161/12 229/161/12 232/166/12
f 232/156/53 231/157/53 239/157/53 240/156/53
f 218/154/54 230/154/54 238/154/54 234/154/54
f 235/157/10 236/156/10 240/156/10 239/157/10
f 233/164/11 234/165/11 238/165/11 237/164/11
f 229/161/55 219/161/55 233/161/55 237/161/55
f 231/155/56 217/155/56 235/155/56 239/155/56
f 230/165/57 229/164/57 237/164/57 238/165/57
f 217/157/58 220/156/58 236/156/58 235/157/58
f 220/166/59 232/166/59 240/166/59 236/166/59
f 219/164/60 218/165/60 234/165/60 233/164/60
f 241/1/61 242/2/61 244/3/61 243/4/61
f 243/4/62 244/3/62 248/5/62 247/9/62
f 247/9/63 248/5/63 246/8/63 245/10/63
f 245/10/64 246/8/64 242/25/64 241/26/64
f 243/13/65 247/9/65 245/10/65 241/16/65
f 248/5/66 244/19/66 242/20/66 246/8/66
