# Blender 4.3.2
# www.blender.org
mtllib Shuter.mtl
o Cube.004
v -1.341988 -1.483835 -0.019203
v -1.341988 1.341698 -0.019203
v -1.341988 -1.483835 -0.024334
v -1.341988 1.341698 -0.024334
v 1.338864 -1.483835 -0.019203
v 1.338864 1.341698 -0.019203
v 1.338864 -1.483835 -0.024334
v 1.338864 1.341698 -0.024334
v -1.341988 -1.317627 -0.019203
v -1.341988 -1.151419 -0.019203
v -1.341988 -0.985212 -0.019203
v -1.341988 -0.819004 -0.019203
v -1.341988 -0.652796 -0.019203
v -1.341988 -0.486588 -0.019203
v -1.341988 -0.320380 -0.019203
v -1.341988 -0.154172 -0.019203
v -1.341988 0.012036 -0.019203
v -1.341988 0.178243 -0.019203
v -1.341988 0.344451 -0.019203
v -1.341988 0.510659 -0.019203
v -1.341988 0.676867 -0.019203
v -1.341988 0.843075 -0.019203
v -1.341988 1.009282 -0.019203
v -1.341988 1.175490 -0.019203
v -1.341988 1.175490 -0.024334
v -1.341988 1.009283 -0.024334
v -1.341988 0.843075 -0.024334
v -1.341988 0.676867 -0.024334
v -1.341988 0.510659 -0.024334
v -1.341988 0.344451 -0.024334
v -1.341988 0.178243 -0.024334
v -1.341988 0.012036 -0.024334
v -1.341988 -0.154172 -0.024334
v -1.341988 -0.320380 -0.024334
v -1.341988 -0.486588 -0.024334
v -1.341988 -0.652796 -0.024334
v -1.341988 -0.819004 -0.024334
v -1.341988 -0.985211 -0.024334
v -1.341988 -1.151419 -0.024334
v -1.341988 -1.317627 -0.024334
v 1.338864 1.175490 -0.024334
v 1.338864 1.009283 -0.024334
v 1.338864 0.843075 -0.024334
v 1.338864 0.676867 -0.024334
v 1.338864 0.510659 -0.024334
v 1.338864 0.344451 -0.024334
v 1.338864 0.178243 -0.024334
v 1.338864 0.012036 -0.024334
v 1.338864 -0.154172 -0.024334
v 1.338864 -0.320380 -0.024334
v 1.338864 -0.486588 -0.024334
v 1.338864 -0.652796 -0.024334
v 1.338864 -0.819004 -0.024334
v 1.338864 -0.985211 -0.024334
v 1.338864 -1.151419 -0.024334
v 1.338864 -1.317627 -0.024334
v 1.338864 1.175490 -0.019203
v 1.338864 1.009283 -0.019203
v 1.338864 0.843075 -0.019203
v 1.338864 0.676867 -0.019203
v 1.338864 0.510659 -0.019203
v 1.338864 0.344451 -0.019203
v 1.338864 0.178243 -0.019203
v 1.338864 0.012036 -0.019203
v 1.338864 -0.154172 -0.019203
v 1.338864 -0.320380 -0.019203
v 1.338864 -0.486588 -0.019203
v 1.338864 -0.652796 -0.019203
v 1.338864 -0.819004 -0.019203
v 1.338864 -0.985211 -0.019203
v 1.338864 -1.151419 -0.019203
v 1.338864 -1.317627 -0.019203
v -1.343711 1.183254 -0.024334
v -1.343711 1.333934 -0.024334
v 1.340587 1.333934 -0.024334
v 1.340587 1.183254 -0.024334
v -1.343711 -1.476071 -0.024334
v -1.343711 -1.325391 -0.024334
v 1.340587 -1.325391 -0.024334
v 1.340587 -1.476071 -0.024334
v -1.343711 -1.309863 -0.024334
v -1.343711 -1.159183 -0.024334
v 1.340587 -1.159183 -0.024334
v 1.340587 -1.309863 -0.024334
v -1.343711 -1.143655 -0.024334
v -1.343711 -0.992975 -0.024334
v 1.340587 -0.992975 -0.024334
v 1.340587 -1.143655 -0.024334
v -1.343711 -0.977448 -0.024334
v -1.343711 -0.826768 -0.024334
v 1.340587 -0.826768 -0.024334
v 1.340587 -0.977448 -0.024334
v -1.343711 -0.811240 -0.024334
v -1.343711 -0.660560 -0.024334
v 1.340587 -0.660560 -0.024334
v 1.340587 -0.811240 -0.024334
v -1.343711 -0.645032 -0.024334
v -1.343711 -0.494352 -0.024334
v 1.340587 -0.494352 -0.024334
v 1.340587 -0.645032 -0.024334
v -1.343711 -0.478824 -0.024334
v -1.343711 -0.328144 -0.024334
v 1.340587 -0.328144 -0.024334
v 1.340587 -0.478824 -0.024334
v -1.343711 -0.312616 -0.024334
v -1.343711 -0.161936 -0.024334
v 1.340587 -0.161936 -0.024334
v 1.340587 -0.312616 -0.024334
v -1.343711 -0.146408 -0.024334
v -1.343711 0.004272 -0.024334
v 1.340587 0.004272 -0.024334
v 1.340587 -0.146408 -0.024334
v -1.343711 0.019799 -0.024334
v -1.343711 0.170479 -0.024334
v 1.340587 0.170479 -0.024334
v 1.340587 0.019799 -0.024334
v -1.343711 0.186007 -0.024334
v -1.343711 0.336687 -0.024334
v 1.340587 0.336687 -0.024334
v 1.340587 0.186007 -0.024334
v -1.343711 0.352215 -0.024334
v -1.343711 0.502895 -0.024334
v 1.340587 0.502895 -0.024334
v 1.340587 0.352215 -0.024334
v -1.343711 0.518423 -0.024334
v -1.343711 0.669103 -0.024334
v 1.340587 0.669103 -0.024334
v 1.340587 0.518423 -0.024334
v -1.343711 0.684631 -0.024334
v -1.343711 0.835311 -0.024334
v 1.340587 0.835311 -0.024334
v 1.340587 0.684631 -0.024334
v -1.343711 0.850839 -0.024334
v -1.343711 1.001519 -0.024334
v 1.340587 1.001519 -0.024334
v 1.340587 0.850839 -0.024334
v -1.343711 1.017047 -0.024334
v -1.343711 1.167726 -0.024334
v 1.340587 1.167726 -0.024334
v 1.340587 1.017047 -0.024334
v -1.343711 1.333934 -0.034253
v -1.343711 1.183254 -0.034253
v 1.340587 1.183254 -0.034253
v 1.340587 1.333934 -0.034253
v -1.343711 -1.325391 -0.034253
v -1.343711 -1.476071 -0.034253
v 1.340587 -1.476071 -0.034253
v 1.340587 -1.325391 -0.034253
v -1.343711 -1.159183 -0.034253
v -1.343711 -1.309863 -0.034253
v 1.340587 -1.309863 -0.034253
v 1.340587 -1.159183 -0.034253
v -1.343711 -0.992975 -0.034253
v -1.343711 -1.143655 -0.034253
v 1.340587 -1.143655 -0.034253
v 1.340587 -0.992975 -0.034253
v -1.343711 -0.826768 -0.034253
v -1.343711 -0.977448 -0.034253
v 1.340587 -0.977448 -0.034253
v 1.340587 -0.826768 -0.034253
v -1.343711 -0.660560 -0.034253
v -1.343711 -0.811240 -0.034253
v 1.340587 -0.811240 -0.034253
v 1.340587 -0.660560 -0.034253
v -1.343711 -0.494352 -0.034253
v -1.343711 -0.645032 -0.034253
v 1.340587 -0.645032 -0.034253
v 1.340587 -0.494352 -0.034253
v -1.343711 -0.328144 -0.034253
v -1.343711 -0.478824 -0.034253
v 1.340587 -0.478824 -0.034253
v 1.340587 -0.328144 -0.034253
v -1.343711 -0.161936 -0.034253
v -1.343711 -0.312616 -0.034253
v 1.340587 -0.312616 -0.034253
v 1.340587 -0.161936 -0.034253
v -1.343711 0.004272 -0.034253
v -1.343711 -0.146408 -0.034253
v 1.340587 -0.146408 -0.034253
v 1.340587 0.004272 -0.034253
v -1.343711 0.170479 -0.034253
v -1.343711 0.019799 -0.034253
v 1.340587 0.019799 -0.034253
v 1.340587 0.170479 -0.034253
v -1.343711 0.336687 -0.034253
v -1.343711 0.186007 -0.034253
v 1.340587 0.186007 -0.034253
v 1.340587 0.336687 -0.034253
v -1.343711 0.502895 -0.034253
v -1.343711 0.352215 -0.034253
v 1.340587 0.352215 -0.034253
v 1.340587 0.502895 -0.034253
v -1.343711 0.669103 -0.034253
v -1.343711 0.518423 -0.034253
v 1.340587 0.518423 -0.034253
v 1.340587 0.669103 -0.034253
v -1.343711 0.835311 -0.034253
v -1.343711 0.684631 -0.034253
v 1.340587 0.684631 -0.034253
v 1.340587 0.835311 -0.034253
v -1.343711 1.001519 -0.034253
v -1.343711 0.850839 -0.034253
v 1.340587 0.850839 -0.034253
v 1.340587 1.001519 -0.034253
v -1.343711 1.167726 -0.034253
v -1.343711 1.017047 -0.034253
v 1.340587 1.017047 -0.034253
v 1.340587 1.167726 -0.034253
vn -1.0000 -0.0000 -0.0000
vn -0.0000 -1.0000 -0.0000
vn 1.0000 -0.0000 -0.0000
vn -0.0000 -0.0000 1.0000
vn -0.0000 1.0000 -0.0000
vn -0.0000 -0.0000 -1.0000
vt 0.610294 0.000000
vt 0.625000 0.000000
vt 0.625000 0.250000
vt 0.610294 0.250000
vt 0.405099 0.499276
vt 0.405099 0.250724
vt 0.610294 0.500000
vt 0.625000 0.500000
vt 0.625000 0.750000
vt 0.610294 0.750000
vt 0.625000 1.000000
vt 0.610294 1.000000
vt 0.125000 0.500000
vt 0.375000 0.500000
vt 0.375000 0.750000
vt 0.125000 0.750000
vt 0.875000 0.500000
vt 0.875000 0.750000
vt 0.389706 0.750000
vt 0.389706 1.000000
vt 0.375000 1.000000
vt 0.404412 0.750000
vt 0.404412 1.000000
vt 0.419118 0.750000
vt 0.419118 1.000000
vt 0.433824 0.750000
vt 0.433824 1.000000
vt 0.448529 0.750000
vt 0.448529 1.000000
vt 0.463235 0.750000
vt 0.463235 1.000000
vt 0.477941 0.750000
vt 0.477941 1.000000
vt 0.492647 0.750000
vt 0.492647 1.000000
vt 0.507353 0.750000
vt 0.507353 1.000000
vt 0.522059 0.750000
vt 0.522059 1.000000
vt 0.536765 0.750000
vt 0.536765 1.000000
vt 0.551471 0.750000
vt 0.551471 1.000000
vt 0.566176 0.750000
vt 0.566177 1.000000
vt 0.580882 0.750000
vt 0.580882 1.000000
vt 0.595588 0.750000
vt 0.595588 1.000000
vt 0.389706 0.500000
vt 0.404412 0.500000
vt 0.419118 0.500000
vt 0.433824 0.500000
vt 0.448529 0.500000
vt 0.463235 0.500000
vt 0.477941 0.500000
vt 0.492647 0.500000
vt 0.507353 0.500000
vt 0.522059 0.500000
vt 0.536765 0.500000
vt 0.551471 0.500000
vt 0.566176 0.500000
vt 0.580882 0.500000
vt 0.595588 0.500000
vt 0.462548 0.499276
vt 0.449216 0.499276
vt 0.596275 0.499276
vt 0.596275 0.250724
vt 0.418431 0.250724
vt 0.462548 0.250724
vt 0.609607 0.250724
vt 0.449216 0.250724
vt 0.506666 0.499276
vt 0.493334 0.499276
vt 0.506666 0.250724
vt 0.493334 0.250724
vt 0.550784 0.499276
vt 0.537452 0.499276
vt 0.550784 0.250724
vt 0.403725 0.499276
vt 0.390393 0.499276
vt 0.537452 0.250724
vt 0.594901 0.499276
vt 0.581569 0.499276
vt 0.375000 0.000000
vt 0.389706 0.000000
vt 0.389706 0.250000
vt 0.375000 0.250000
vt 0.404412 0.000000
vt 0.404412 0.250000
vt 0.419118 0.000000
vt 0.419118 0.250000
vt 0.433824 0.000000
vt 0.433824 0.250000
vt 0.448529 0.000000
vt 0.448529 0.250000
vt 0.463235 0.000000
vt 0.463235 0.250000
vt 0.477941 0.000000
vt 0.477941 0.250000
vt 0.492647 0.000000
vt 0.492647 0.250000
vt 0.507353 0.000000
vt 0.507353 0.250000
vt 0.522059 0.000000
vt 0.522059 0.250000
vt 0.536765 0.000000
vt 0.536765 0.250000
vt 0.551471 0.000000
vt 0.551471 0.250000
vt 0.566177 0.000000
vt 0.566176 0.250000
vt 0.580882 0.000000
vt 0.580882 0.250000
vt 0.595588 0.000000
vt 0.595588 0.250000
vt 0.624313 0.250724
vt 0.610981 0.250724
vt 0.624313 0.499276
vt 0.610981 0.499276
vt 0.389019 0.250724
vt 0.375687 0.250724
vt 0.389019 0.499276
vt 0.375687 0.499276
vt 0.403725 0.250724
vt 0.390393 0.250724
vt 0.418431 0.499276
vt 0.433137 0.250724
vt 0.419805 0.250724
vt 0.433137 0.499276
vt 0.419805 0.499276
vt 0.447842 0.250724
vt 0.434510 0.250724
vt 0.447842 0.499276
vt 0.434510 0.499276
vt 0.477254 0.250724
vt 0.463922 0.250724
vt 0.477254 0.499276
vt 0.463922 0.499276
vt 0.491960 0.250724
vt 0.478628 0.250724
vt 0.491960 0.499276
vt 0.478628 0.499276
vt 0.521372 0.250724
vt 0.508040 0.250724
vt 0.521372 0.499276
vt 0.508040 0.499276
vt 0.536078 0.250724
vt 0.522746 0.250724
vt 0.536078 0.499276
vt 0.522746 0.499276
vt 0.565490 0.250724
vt 0.552157 0.250724
vt 0.565490 0.499276
vt 0.552158 0.499276
vt 0.580195 0.250724
vt 0.566863 0.250724
vt 0.580195 0.499276
vt 0.566863 0.499276
vt 0.594901 0.250724
vt 0.581569 0.250724
vt 0.609607 0.499276
s 0
f 24/1/1 2/2/1 4/3/1 25/4/1
f 88/5/2 85/6/2 154/6/2 155/5/2
f 41/7/3 8/8/3 6/9/3 57/10/3
f 57/10/4 6/9/4 2/11/4 24/12/4
f 3/13/2 7/14/2 5/15/2 1/16/2
f 8/8/5 4/17/5 2/18/5 6/9/5
f 5/15/4 72/19/4 9/20/4 1/21/4
f 72/19/4 71/22/4 10/23/4 9/20/4
f 71/22/4 70/24/4 11/25/4 10/23/4
f 70/24/4 69/26/4 12/27/4 11/25/4
f 69/26/4 68/28/4 13/29/4 12/27/4
f 68/28/4 67/30/4 14/31/4 13/29/4
f 67/30/4 66/32/4 15/33/4 14/31/4
f 66/32/4 65/34/4 16/35/4 15/33/4
f 65/34/4 64/36/4 17/37/4 16/35/4
f 64/36/4 63/38/4 18/39/4 17/37/4
f 63/38/4 62/40/4 19/41/4 18/39/4
f 62/40/4 61/42/4 20/43/4 19/41/4
f 61/42/4 60/44/4 21/45/4 20/43/4
f 60/44/4 59/46/4 22/47/4 21/45/4
f 59/46/4 58/48/4 23/49/4 22/47/4
f 58/48/4 57/10/4 24/12/4 23/49/4
f 7/14/3 56/50/3 72/19/3 5/15/3
f 56/50/3 55/51/3 71/22/3 72/19/3
f 55/51/3 54/52/3 70/24/3 71/22/3
f 54/52/3 53/53/3 69/26/3 70/24/3
f 53/53/3 52/54/3 68/28/3 69/26/3
f 52/54/3 51/55/3 67/30/3 68/28/3
f 51/55/3 50/56/3 66/32/3 67/30/3
f 50/56/3 49/57/3 65/34/3 66/32/3
f 49/57/3 48/58/3 64/36/3 65/34/3
f 48/58/3 47/59/3 63/38/3 64/36/3
f 47/59/3 46/60/3 62/40/3 63/38/3
f 46/60/3 45/61/3 61/42/3 62/40/3
f 45/61/3 44/62/3 60/44/3 61/42/3
f 44/62/3 43/63/3 59/46/3 60/44/3
f 43/63/3 42/64/3 58/48/3 59/46/3
f 42/64/3 41/7/3 57/10/3 58/48/3
f 99/65/3 100/66/3 167/66/3 168/65/3
f 140/67/2 137/68/2 206/68/2 207/67/2
f 85/6/1 86/69/1 153/69/1 154/6/1
f 98/70/5 99/65/5 168/65/5 165/70/5
f 137/68/1 138/71/1 205/71/1 206/68/1
f 100/66/2 97/72/2 166/72/2 167/66/2
f 111/73/3 112/74/3 179/74/3 180/73/3
f 97/72/1 98/70/1 165/70/1 166/72/1
f 110/75/5 111/73/5 180/73/5 177/75/5
f 112/74/2 109/76/2 178/76/2 179/74/2
f 123/77/3 124/78/3 191/78/3 192/77/3
f 109/76/1 110/75/1 177/75/1 178/76/1
f 122/79/5 123/77/5 192/77/5 189/79/5
f 83/80/3 84/81/3 151/81/3 152/80/3
f 124/78/2 121/82/2 190/82/2 191/78/2
f 135/83/3 136/84/3 203/84/3 204/83/3
f 1/85/1 9/86/1 40/87/1 3/88/1
f 9/86/1 10/89/1 39/90/1 40/87/1
f 10/89/1 11/91/1 38/92/1 39/90/1
f 11/91/1 12/93/1 37/94/1 38/92/1
f 12/93/1 13/95/1 36/96/1 37/94/1
f 13/95/1 14/97/1 35/98/1 36/96/1
f 14/97/1 15/99/1 34/100/1 35/98/1
f 15/99/1 16/101/1 33/102/1 34/100/1
f 16/101/1 17/103/1 32/104/1 33/102/1
f 17/103/1 18/105/1 31/106/1 32/104/1
f 18/105/1 19/107/1 30/108/1 31/106/1
f 19/107/1 20/109/1 29/110/1 30/108/1
f 20/109/1 21/111/1 28/112/1 29/110/1
f 21/111/1 22/113/1 27/114/1 28/112/1
f 22/113/1 23/115/1 26/116/1 27/114/1
f 23/115/1 24/1/1 25/4/1 26/116/1
f 25/4/4 4/3/4 74/117/4 73/118/4
f 4/3/6 8/8/6 75/119/6 74/117/6
f 8/8/4 41/7/4 76/120/4 75/119/4
f 41/7/6 25/4/6 73/118/6 76/120/6
f 3/88/4 40/87/4 78/121/4 77/122/4
f 40/87/6 56/50/6 79/123/6 78/121/6
f 56/50/4 7/14/4 80/124/4 79/123/4
f 7/14/6 3/88/6 77/122/6 80/124/6
f 40/87/4 39/90/4 82/125/4 81/126/4
f 39/90/6 55/51/6 83/80/6 82/125/6
f 55/51/4 56/50/4 84/81/4 83/80/4
f 56/50/6 40/87/6 81/126/6 84/81/6
f 39/90/4 38/92/4 86/69/4 85/6/4
f 38/92/6 54/52/6 87/127/6 86/69/6
f 54/52/4 55/51/4 88/5/4 87/127/4
f 55/51/6 39/90/6 85/6/6 88/5/6
f 38/92/4 37/94/4 90/128/4 89/129/4
f 37/94/6 53/53/6 91/130/6 90/128/6
f 53/53/4 54/52/4 92/131/4 91/130/4
f 54/52/6 38/92/6 89/129/6 92/131/6
f 37/94/4 36/96/4 94/132/4 93/133/4
f 36/96/6 52/54/6 95/134/6 94/132/6
f 52/54/4 53/53/4 96/135/4 95/134/4
f 53/53/6 37/94/6 93/133/6 96/135/6
f 36/96/4 35/98/4 98/70/4 97/72/4
f 35/98/6 51/55/6 99/65/6 98/70/6
f 51/55/4 52/54/4 100/66/4 99/65/4
f 52/54/6 36/96/6 97/72/6 100/66/6
f 35/98/4 34/100/4 102/136/4 101/137/4
f 34/100/6 50/56/6 103/138/6 102/136/6
f 50/56/4 51/55/4 104/139/4 103/138/4
f 51/55/6 35/98/6 101/137/6 104/139/6
f 34/100/4 33/102/4 106/140/4 105/141/4
f 33/102/6 49/57/6 107/142/6 106/140/6
f 49/57/4 50/56/4 108/143/4 107/142/4
f 50/56/6 34/100/6 105/141/6 108/143/6
f 33/102/4 32/104/4 110/75/4 109/76/4
f 32/104/6 48/58/6 111/73/6 110/75/6
f 48/58/4 49/57/4 112/74/4 111/73/4
f 49/57/6 33/102/6 109/76/6 112/74/6
f 32/104/4 31/106/4 114/144/4 113/145/4
f 31/106/6 47/59/6 115/146/6 114/144/6
f 47/59/4 48/58/4 116/147/4 115/146/4
f 48/58/6 32/104/6 113/145/6 116/147/6
f 31/106/4 30/108/4 118/148/4 117/149/4
f 30/108/6 46/60/6 119/150/6 118/148/6
f 46/60/4 47/59/4 120/151/4 119/150/4
f 47/59/6 31/106/6 117/149/6 120/151/6
f 30/108/4 29/110/4 122/79/4 121/82/4
f 29/110/6 45/61/6 123/77/6 122/79/6
f 45/61/4 46/60/4 124/78/4 123/77/4
f 46/60/6 30/108/6 121/82/6 124/78/6
f 29/110/4 28/112/4 126/152/4 125/153/4
f 28/112/6 44/62/6 127/154/6 126/152/6
f 44/62/4 45/61/4 128/155/4 127/154/4
f 45/61/6 29/110/6 125/153/6 128/155/6
f 28/112/4 27/114/4 130/156/4 129/157/4
f 27/114/6 43/63/6 131/158/6 130/156/6
f 43/63/4 44/62/4 132/159/4 131/158/4
f 44/62/6 28/112/6 129/157/6 132/159/6
f 27/114/4 26/116/4 134/160/4 133/161/4
f 26/116/6 42/64/6 135/83/6 134/160/6
f 42/64/4 43/63/4 136/84/4 135/83/4
f 43/63/6 27/114/6 133/161/6 136/84/6
f 26/116/4 25/4/4 138/71/4 137/68/4
f 25/4/6 41/7/6 139/162/6 138/71/6
f 41/7/4 42/64/4 140/67/4 139/162/4
f 42/64/6 26/116/6 137/68/6 140/67/6
f 142/118/6 141/117/6 144/119/6 143/120/6
f 146/122/6 145/121/6 148/123/6 147/124/6
f 150/126/6 149/125/6 152/80/6 151/81/6
f 154/6/6 153/69/6 156/127/6 155/5/6
f 158/129/6 157/128/6 160/130/6 159/131/6
f 162/133/6 161/132/6 164/134/6 163/135/6
f 166/72/6 165/70/6 168/65/6 167/66/6
f 170/137/6 169/136/6 172/138/6 171/139/6
f 174/141/6 173/140/6 176/142/6 175/143/6
f 178/76/6 177/75/6 180/73/6 179/74/6
f 182/145/6 181/144/6 184/146/6 183/147/6
f 186/149/6 185/148/6 188/150/6 187/151/6
f 190/82/6 189/79/6 192/77/6 191/78/6
f 194/153/6 193/152/6 196/154/6 195/155/6
f 198/157/6 197/156/6 200/158/6 199/159/6
f 202/161/6 201/160/6 204/83/6 203/84/6
f 206/68/6 205/71/6 208/162/6 207/67/6
f 138/71/5 139/162/5 208/162/5 205/71/5
f 125/153/1 126/152/1 193/152/1 194/153/1
f 86/69/5 87/127/5 156/127/5 153/69/5
f 139/162/3 140/67/3 207/67/3 208/162/3
f 73/118/1 74/117/1 141/117/1 142/118/1
f 128/155/2 125/153/2 194/153/2 195/155/2
f 87/127/3 88/5/3 155/5/3 156/127/3
f 76/120/2 73/118/2 142/118/2 143/120/2
f 126/152/5 127/154/5 196/154/5 193/152/5
f 113/145/1 114/144/1 181/144/1 182/145/1
f 74/117/5 75/119/5 144/119/5 141/117/5
f 127/154/3 128/155/3 195/155/3 196/154/3
f 116/147/2 113/145/2 182/145/2 183/147/2
f 75/119/3 76/120/3 143/120/3 144/119/3
f 114/144/5 115/146/5 184/146/5 181/144/5
f 101/137/1 102/136/1 169/136/1 170/137/1
f 115/146/3 116/147/3 183/147/3 184/146/3
f 104/139/2 101/137/2 170/137/2 171/139/2
f 102/136/5 103/138/5 172/138/5 169/136/5
f 89/129/1 90/128/1 157/128/1 158/129/1
f 103/138/3 104/139/3 171/139/3 172/138/3
f 92/131/2 89/129/2 158/129/2 159/131/2
f 129/157/1 130/156/1 197/156/1 198/157/1
f 90/128/5 91/130/5 160/130/5 157/128/5
f 77/122/1 78/121/1 145/121/1 146/122/1
f 132/159/2 129/157/2 198/157/2 199/159/2
f 91/130/3 92/131/3 159/131/3 160/130/3
f 80/124/2 77/122/2 146/122/2 147/124/2
f 130/156/5 131/158/5 200/158/5 197/156/5
f 117/149/1 118/148/1 185/148/1 186/149/1
f 78/121/5 79/123/5 148/123/5 145/121/5
f 131/158/3 132/159/3 199/159/3 200/158/3
f 120/151/2 117/149/2 186/149/2 187/151/2
f 79/123/3 80/124/3 147/124/3 148/123/3
f 118/148/5 119/150/5 188/150/5 185/148/5
f 105/141/1 106/140/1 173/140/1 174/141/1
f 119/150/3 120/151/3 187/151/3 188/150/3
f 108/143/2 105/141/2 174/141/2 175/143/2
f 106/140/5 107/142/5 176/142/5 173/140/5
f 93/133/1 94/132/1 161/132/1 162/133/1
f 107/142/3 108/143/3 175/143/3 176/142/3
f 96/135/2 93/133/2 162/133/2 163/135/2
f 133/161/1 134/160/1 201/160/1 202/161/1
f 94/132/5 95/134/5 164/134/5 161/132/5
f 81/126/1 82/125/1 149/125/1 150/126/1
f 136/84/2 133/161/2 202/161/2 203/84/2
f 95/134/3 96/135/3 163/135/3 164/134/3
f 84/81/2 81/126/2 150/126/2 151/81/2
f 134/160/5 135/83/5 204/83/5 201/160/5
f 121/82/1 122/79/1 189/79/1 190/82/1
f 82/125/5 83/80/5 152/80/5 149/125/5
