# Blender 4.3.2
# www.blender.org
mtllib Storp Roh.mtl
o sFuture_Modules_Pro_Panel_1x1_Plain_Collidermesh.007
v -1.350000 0.150000 1.350000
v 1.350000 0.149999 1.350000
v 1.350000 0.150000 -1.350000
v -1.350000 0.150001 -1.350000
v -1.350000 -0.150000 1.350000
v -1.350000 -0.149999 -1.350000
v 1.350000 -0.150000 -1.350000
v 1.350000 -0.150001 1.350000
v 1.500000 0.000000 -1.500000
v 1.500000 -0.000001 1.500000
v -1.500000 -0.000000 1.500000
v -1.500000 0.000001 -1.500000
v -0.096695 0.150000 1.127620
v -0.610770 0.150000 0.610770
v -0.395950 0.150000 0.395950
v 0.124617 0.150000 1.350000
v 0.552976 0.149999 1.350000
v -0.916854 0.150000 -0.127766
v -1.350000 0.150000 -0.132452
v -1.350000 0.150000 -0.563002
v 0.486029 -0.000001 1.500000
v 0.490965 -0.000001 1.500000
v 0.262521 0.092764 1.407236
v 0.503609 0.030174 1.469826
v 0.535310 0.107121 1.392878
v -1.500000 0.000000 -0.495610
v -1.500000 0.000000 -0.500570
v -1.439410 0.060590 -0.348790
v -1.465465 0.034535 -0.411833
v -1.448526 0.051474 -0.521994
v -1.350000 -0.150000 -0.560624
v -0.609685 -0.150000 0.609685
v -1.350000 -0.150000 -0.134628
v -0.397260 -0.150000 0.397260
v 0.097491 -0.150000 0.894683
v -0.114934 -0.150000 1.107108
v 0.126793 -0.150000 1.350000
v 0.550622 -0.150001 1.350000
v 0.532894 -0.106995 1.393006
v 0.264452 -0.092866 1.407134
v 0.486351 -0.000770 1.499231
v 0.489106 -0.000772 1.499228
v -1.439541 -0.060458 -0.351283
v -1.448402 -0.051597 -0.519644
v -1.499228 -0.000771 -0.498699
v -1.463785 -0.036215 -0.409944
v -1.467983 -0.032016 -0.511490
v -1.499231 -0.000769 -0.495930
vn -0.0000 1.0000 -0.0000
vn -0.0000 -1.0000 -0.0000
vn -0.0000 -0.7071 0.7071
vn -0.0000 0.7071 0.7071
vn -0.7071 -0.7071 -0.0000
vn -0.7071 0.7071 -0.0000
vn 0.5006 0.7080 -0.4982
vn 0.5008 0.7077 -0.4984
vn 0.5006 0.7079 -0.4982
vn 0.5020 0.7062 -0.4993
vn 0.5006 -0.7079 -0.4982
vn 0.5020 -0.7062 -0.4993
vn 0.5008 -0.7077 -0.4984
vn 0.5006 -0.7080 -0.4982
vt 0.000000 0.000000
s 1
f 14/1/1 1/1/1 16/1/1 13/1/1
f 14/1/1 19/1/1 1/1/1
f 32/1/2 5/1/2 33/1/2
f 37/1/2 5/1/2 32/1/2 36/1/2
f 37/1/3 40/1/3 11/1/3 5/1/3
f 41/1/3 21/1/3 11/1/3 40/1/3
f 11/1/4 21/1/4 23/1/4
f 11/1/4 23/1/4 16/1/4 1/1/4
f 33/1/5 5/1/5 43/1/5
f 43/1/5 5/1/5 11/1/5 26/1/5 48/1/5 46/1/5
f 11/1/6 1/1/6 28/1/6 29/1/6 26/1/6
f 1/1/6 19/1/6 28/1/6
f 26/1/7 29/1/8 13/1/9 16/1/7 23/1/7 21/1/7 41/1/7 48/1/7
f 19/1/10 14/1/10 13/1/9 29/1/8 28/1/10
f 36/1/11 32/1/12 33/1/12 43/1/12 46/1/13
f 37/1/14 36/1/11 46/1/13 48/1/14 41/1/14 40/1/14
