# Blender 4.3.2
# www.blender.org
mtllib StreetBilboard.mtl
o Cube.010
v -0.831540 0.000000 0.026096
v -0.831540 2.772639 0.026096
v -0.831540 0.000000 -0.026096
v -0.831540 2.772639 -0.026096
v 0.831540 0.000000 0.026096
v 0.831540 2.772639 0.026096
v 0.831540 0.000000 -0.026096
v 0.831540 2.772639 -0.026096
v -0.865001 2.772639 0.040394
v -0.900260 2.772639 0.005135
v -0.865740 2.772639 0.033212
v -0.875897 2.772639 0.038668
v -0.885726 2.772639 0.033660
v -0.893526 2.772639 0.025860
v -0.898534 2.772639 0.016031
v -0.900260 2.772639 -0.005135
v -0.865001 2.772639 -0.040394
v -0.865740 2.772639 -0.033212
v -0.898534 2.772639 -0.016031
v -0.893526 2.772639 -0.025860
v -0.885726 2.772639 -0.033660
v -0.875897 2.772639 -0.038668
v 0.865001 2.772639 -0.040394
v 0.900260 2.772639 -0.005135
v 0.865740 2.772639 -0.033212
v 0.875897 2.772639 -0.038668
v 0.885726 2.772639 -0.033660
v 0.893526 2.772639 -0.025860
v 0.898534 2.772639 -0.016031
v 0.900260 2.772639 0.005135
v 0.865001 2.772639 0.040394
v 0.865740 2.772639 0.033212
v 0.898534 2.772639 0.016031
v 0.893526 2.772639 0.025860
v 0.885726 2.772639 0.033660
v 0.875897 2.772639 0.038668
v -0.900260 2.942316 0.005135
v -0.865001 2.942316 0.040394
v -0.898534 2.942316 0.016031
v -0.893526 2.942316 0.025860
v -0.885726 2.942316 0.033660
v -0.875897 2.942316 0.038668
v -0.865001 2.942316 -0.040394
v -0.900260 2.942316 -0.005135
v -0.875897 2.942316 -0.038668
v -0.885726 2.942316 -0.033660
v -0.893526 2.942316 -0.025860
v -0.898534 2.942316 -0.016031
v 0.900260 2.942316 -0.005135
v 0.865001 2.942316 -0.040394
v 0.898534 2.942316 -0.016031
v 0.893526 2.942316 -0.025860
v 0.885726 2.942316 -0.033660
v 0.875897 2.942316 -0.038668
v 0.865001 2.942316 0.040394
v 0.900260 2.942316 0.005135
v 0.875897 2.942316 0.038668
v 0.885726 2.942316 0.033660
v 0.893526 2.942316 0.025860
v 0.898534 2.942316 0.016031
v -0.831540 0.597429 0.026096
v -0.872069 0.556900 0.035736
v -0.791012 0.556900 0.026096
v -0.833524 0.584905 0.026567
v -0.839281 0.573607 0.027937
v -0.848247 0.564641 0.030070
v -0.859545 0.558884 0.032757
v -0.872069 0.556900 -0.035736
v -0.831540 0.597429 -0.026096
v -0.791012 0.556900 -0.026096
v -0.859545 0.558884 -0.032757
v -0.848247 0.564641 -0.030070
v -0.839281 0.573607 -0.027937
v -0.833524 0.584905 -0.026567
v 0.831540 0.597429 -0.026096
v 0.872069 0.556900 -0.035736
v 0.791012 0.556900 -0.026096
v 0.833524 0.584905 -0.026567
v 0.839281 0.573607 -0.027937
v 0.848247 0.564641 -0.030070
v 0.859545 0.558884 -0.032757
v 0.872069 0.556900 0.035736
v 0.831540 0.597429 0.026096
v 0.791012 0.556900 0.026096
v 0.859545 0.558884 0.032757
v 0.848247 0.564641 0.030070
v 0.839281 0.573607 0.027937
v 0.833524 0.584905 0.026567
v -0.960775 0.000000 -0.003747
v -0.907685 0.000000 -0.056837
v -0.909126 0.000000 -0.044551
v -0.958177 0.000000 -0.020153
v -0.950636 0.000000 -0.034952
v -0.938891 0.000000 -0.046698
v -0.924091 0.000000 -0.054238
v -0.907685 0.000000 0.056837
v -0.960775 0.000000 0.003747
v -0.909126 0.000000 0.044551
v -0.924091 0.000000 0.054238
v -0.938891 0.000000 0.046698
v -0.950636 0.000000 0.034952
v -0.958177 0.000000 0.020153
v -0.907685 0.556900 -0.056837
v -0.960775 0.556900 -0.003747
v -0.909126 0.556900 -0.044551
v -0.924091 0.556900 -0.054238
v -0.938891 0.556900 -0.046698
v -0.950636 0.556900 -0.034952
v -0.958177 0.556900 -0.020153
v 0.907685 0.000000 -0.056837
v 0.960775 0.000000 -0.003747
v 0.909126 0.000000 -0.044551
v 0.924091 0.000000 -0.054238
v 0.938891 0.000000 -0.046698
v 0.950636 0.000000 -0.034952
v 0.958177 0.000000 -0.020153
v 0.960775 0.556900 -0.003747
v 0.907685 0.556900 -0.056837
v 0.909126 0.556900 -0.044551
v 0.958177 0.556900 -0.020153
v 0.950636 0.556900 -0.034952
v 0.938891 0.556900 -0.046698
v 0.924091 0.556900 -0.054238
v 0.960775 0.000000 0.003747
v 0.907685 0.000000 0.056837
v 0.909126 0.000000 0.044551
v 0.958177 0.000000 0.020153
v 0.950636 0.000000 0.034952
v 0.938891 0.000000 0.046698
v 0.924091 0.000000 0.054238
v 0.907685 0.556900 0.056837
v 0.960775 0.556900 0.003747
v 0.909126 0.556900 0.044551
v 0.924091 0.556900 0.054238
v 0.938891 0.556900 0.046698
v 0.950636 0.556900 0.034952
v 0.958177 0.556900 0.020153
v -0.960775 0.556900 0.003747
v -0.907685 0.556900 0.056837
v -0.909126 0.556900 0.044551
v -0.958177 0.556900 0.020153
v -0.950636 0.556900 0.034952
v -0.938891 0.556900 0.046698
v -0.924091 0.556900 0.054238
v -0.907685 0.062951 -0.056837
v -0.924091 0.062951 -0.054238
v -0.938891 0.062951 -0.046698
v -0.950636 0.062951 -0.034952
v -0.958177 0.062951 -0.020153
v -0.960775 0.062951 -0.003747
v 0.960775 0.062951 -0.003747
v 0.958177 0.062951 -0.020153
v 0.950636 0.062951 -0.034952
v 0.938891 0.062951 -0.046698
v 0.924091 0.062951 -0.054238
v 0.907685 0.062951 -0.056837
v 0.907685 0.062951 0.056837
v 0.924091 0.062951 0.054238
v 0.938891 0.062951 0.046698
v 0.950636 0.062951 0.034952
v 0.958177 0.062951 0.020153
v 0.960775 0.062951 0.003747
v -0.907685 0.062951 0.056837
v -0.924091 0.062951 0.054238
v -0.938891 0.062951 0.046698
v -0.950636 0.062951 0.034952
v -0.958177 0.062951 0.020153
v -0.960775 0.062951 0.003747
v -0.984512 0.000000 -0.005728
v -0.981849 0.000000 -0.030806
v -0.974122 0.000000 -0.053429
v -0.962087 0.000000 -0.071383
v -0.946922 0.000000 -0.082910
v -0.930110 0.000000 -0.086882
v -0.930110 0.000000 0.086882
v -0.946922 0.000000 0.082910
v -0.962087 0.000000 0.071383
v -0.974122 0.000000 0.053429
v -0.981849 0.000000 0.030806
v -0.984512 0.000000 0.005728
v 0.930110 0.000000 -0.086882
v 0.946922 0.000000 -0.082910
v 0.962087 0.000000 -0.071383
v 0.974122 0.000000 -0.053429
v 0.981849 0.000000 -0.030806
v 0.984512 0.000000 -0.005728
v 0.984512 0.000000 0.005728
v 0.981849 0.000000 0.030806
v 0.974122 0.000000 0.053429
v 0.962087 0.000000 0.071383
v 0.946922 0.000000 0.082910
v 0.930110 0.000000 0.086882
v -0.930110 0.062951 -0.086882
v 0.984512 0.062951 -0.005728
v 0.930110 0.062951 0.086882
v -0.946922 0.062951 0.082910
v -0.962087 0.062951 0.071383
v -0.974122 0.062951 0.053429
v -0.981849 0.062951 0.030806
v -0.984512 0.062951 0.005728
v -0.946922 0.062951 -0.082910
v -0.962087 0.062951 -0.071383
v -0.974122 0.062951 -0.053429
v -0.981849 0.062951 -0.030806
v -0.984512 0.062951 -0.005728
v 0.981849 0.062951 -0.030806
v 0.974122 0.062951 -0.053429
v 0.962087 0.062951 -0.071383
v 0.946922 0.062951 -0.082910
v 0.930110 0.062951 -0.086882
v 0.946922 0.062951 0.082910
v 0.962087 0.062951 0.071383
v 0.974122 0.062951 0.053429
v 0.981849 0.062951 0.030806
v 0.984512 0.062951 0.005728
v -0.930110 0.062951 0.086882
vn -0.0000 1.0000 -0.0000
vn 1.0000 -0.0000 -0.0000
vn -0.0000 -1.0000 -0.0000
vn -0.0000 -0.0000 1.0000
vn -0.0000 -0.0000 -1.0000
vn 0.1564 -0.0000 -0.9877
vn 0.4540 -0.0000 -0.8910
vn 0.7071 -0.0000 -0.7071
vn 0.8910 -0.0000 -0.4540
vn 0.9877 -0.0000 -0.1564
vn 0.1564 -0.0000 0.9877
vn 0.4540 -0.0000 0.8910
vn 0.7071 -0.0000 0.7071
vn 0.8910 -0.0000 0.4540
vn 0.9877 -0.0000 0.1564
vn -0.1564 -0.0000 0.9877
vn -0.4540 -0.0000 0.8910
vn -0.7071 -0.0000 0.7071
vn -0.8910 -0.0000 0.4540
vn -0.9877 -0.0000 0.1564
vn -0.1564 -0.0000 -0.9877
vn -0.4540 -0.0000 -0.8910
vn -0.7071 -0.0000 -0.7071
vn -0.8910 -0.0000 -0.4540
vn -0.9877 -0.0000 -0.1564
vn -1.0000 -0.0000 -0.0000
vn 0.0325 0.0325 0.9989
vn 0.0677 0.0860 0.9940
vn 0.0882 0.1462 0.9853
vn 0.1008 0.2515 0.9626
vn 0.0947 0.5978 0.7961
vn 0.0947 0.5978 -0.7961
vn 0.1008 0.2515 -0.9626
vn 0.0882 0.1462 -0.9853
vn 0.0677 0.0860 -0.9940
vn 0.0325 0.0325 -0.9989
vn -0.0325 0.0325 -0.9989
vn -0.0677 0.0860 -0.9940
vn -0.0882 0.1462 -0.9853
vn -0.1008 0.2515 -0.9626
vn -0.0947 0.5978 -0.7961
vn -0.0947 0.5978 0.7961
vn -0.1008 0.2515 0.9626
vn -0.0882 0.1462 0.9853
vn -0.0677 0.0860 0.9940
vn -0.0325 0.0325 0.9989
vn 0.9877 0.1564 -0.0000
vn 0.8910 0.4540 -0.0000
vn 0.7071 0.7071 -0.0000
vn 0.4540 0.8910 -0.0000
vn 0.1564 0.9877 -0.0000
vn -0.9877 0.1564 -0.0000
vn -0.8910 0.4540 -0.0000
vn -0.7071 0.7071 -0.0000
vn -0.4540 0.8910 -0.0000
vn -0.1564 0.9877 -0.0000
vn -0.2299 -0.0000 -0.9732
vn -0.6051 -0.0000 -0.7961
vn -0.8306 -0.0000 -0.5568
vn -0.9463 -0.0000 -0.3232
vn -0.9944 -0.0000 -0.1056
vn 0.9944 -0.0000 -0.1056
vn 0.9463 -0.0000 -0.3232
vn 0.8306 -0.0000 -0.5568
vn 0.6051 -0.0000 -0.7961
vn 0.2299 -0.0000 -0.9732
vn 0.2299 -0.0000 0.9732
vn 0.6051 -0.0000 0.7961
vn 0.8306 -0.0000 0.5568
vn 0.9463 -0.0000 0.3232
vn 0.9944 -0.0000 0.1056
vn -0.9944 -0.0000 0.1056
vn -0.9463 -0.0000 0.3232
vn -0.8306 -0.0000 0.5568
vn -0.6051 -0.0000 0.7961
vn -0.2299 -0.0000 0.9732
vt 0.425214 0.000000
vt 0.425214 0.250000
vt 0.425214 0.133240
vt 0.425214 0.116760
vt 0.428868 0.500000
vt 0.625000 0.500000
vt 0.625000 0.750000
vt 0.428868 0.750000
vt 0.425214 0.750000
vt 0.425214 0.756092
vt 0.425214 0.993908
vt 0.425214 1.000000
vt 0.425214 0.993093
vt 0.425214 0.756907
vt 0.375000 0.750000
vt 0.375000 0.500000
vt 0.375000 0.616760
vt 0.375000 0.633240
vt 0.125000 0.500000
vt 0.125000 0.750000
vt 0.625000 0.995104
vt 0.625000 0.754896
vt 0.625000 0.640892
vt 0.625000 0.609108
vt 0.625240 0.575392
vt 0.625935 0.544976
vt 0.627018 0.520838
vt 0.628383 0.505340
vt 0.629896 0.500000
vt 0.870104 0.500000
vt 0.871617 0.505340
vt 0.872982 0.520838
vt 0.874065 0.544976
vt 0.874760 0.575392
vt 0.875000 0.609108
vt 0.875000 0.640892
vt 0.874760 0.674608
vt 0.874065 0.705024
vt 0.872982 0.729162
vt 0.871617 0.744660
vt 0.870104 0.750000
vt 0.629896 0.750000
vt 0.628383 0.744660
vt 0.627018 0.729162
vt 0.625935 0.705024
vt 0.625240 0.674608
vt 0.625000 1.000000
vt 0.625000 0.250000
vt 0.625000 0.254896
vt 0.625000 0.495104
vt 0.625000 0.000000
vt 0.625000 0.109108
vt 0.625000 0.140892
vt 0.625000 0.495104
vt 0.625000 0.997768
vt 0.625000 0.140892
vt 0.625000 0.174608
vt 0.625000 0.205024
vt 0.625000 0.229162
vt 0.625000 0.244660
vt 0.625000 0.496617
vt 0.625000 0.497982
vt 0.625000 0.499065
vt 0.625000 0.499760
vt 0.625000 0.674608
vt 0.625000 0.705024
vt 0.625000 0.729162
vt 0.625000 0.744660
vt 0.625000 0.496617
vt 0.625000 0.497982
vt 0.625000 0.544976
vt 0.625000 0.544976
vt 0.625000 0.575392
vt 0.625000 0.575392
vt 0.625000 0.753383
vt 0.625000 0.752018
vt 0.625000 0.752018
vt 0.625000 0.705024
vt 0.625000 0.674608
vt 0.625000 0.996617
vt 0.625000 0.044976
vt 0.625000 0.044976
vt 0.625000 0.075392
vt 0.625000 0.075392
vt 0.625000 0.109108
vt 0.625000 0.253383
vt 0.625000 0.253383
vt 0.625000 0.252018
vt 0.625000 0.252018
vt 0.625000 0.205024
vt 0.625000 0.174608
vt 0.380676 0.116760
vt 0.425214 0.116760
vt 0.380676 0.133240
vt 0.125000 0.633240
vt 0.125000 0.616760
vt 0.425214 0.256092
vt 0.425214 0.493908
vt 0.425214 0.500000
vt 0.425214 0.493093
vt 0.425214 0.256907
vt 0.425214 0.633240
vt 0.425214 0.616760
vt 0.368093 0.750000
vt 0.131907 0.750000
vt 0.380676 0.256907
vt 0.425214 0.493093
vt 0.380676 0.493093
vt 0.380676 0.616760
vt 0.380676 0.633240
vt 0.380676 0.756907
vt 0.425214 0.993093
vt 0.380676 0.993093
vt 0.425214 0.256092
vt 0.428868 0.250000
vt 0.425214 0.493908
vt 0.428868 0.000000
vt 0.427739 0.497740
vt 0.426720 0.491180
vt 0.425912 0.480964
vt 0.425393 0.468091
vt 0.425214 0.453820
vt 0.425214 0.750000
vt 0.425214 0.756092
vt 0.427739 0.752260
vt 0.426720 0.758820
vt 0.427739 0.252260
vt 0.427739 -0.002260
vt 0.426720 0.258820
vt 0.426720 -0.008820
vt 0.428868 1.000000
vt 0.425214 0.993908
vt 0.105311 0.500000
vt 0.129773 0.500000
vt 0.131907 0.500000
vt 0.128354 0.750000
vt 0.425214 0.254773
vt 0.425214 0.252847
vt 0.425214 0.251319
vt 0.425214 0.250338
vt 0.368093 0.500000
vt 0.371646 0.500000
vt 0.425214 0.580679
vt 0.425214 0.548130
vt 0.425214 0.522299
vt 0.425214 0.505715
vt 0.394689 0.750000
vt 0.370227 0.750000
vt 0.425214 0.754773
vt 0.425214 0.752847
vt 0.425214 0.751319
vt 0.425214 0.750338
vt 0.425214 0.080679
vt 0.425214 0.027020
vt 0.425214 0.048130
vt 0.425214 0.022299
vt 0.425214 0.005715
vt 0.380676 0.000000
vt 0.380676 0.048130
vt 0.380676 0.169321
vt 0.380676 0.080679
vt 0.380676 0.580679
vt 0.380676 0.548130
vt 0.380676 0.497153
vt 0.425214 0.995227
vt 0.380676 0.995227
vt 0.380676 1.000000
vt 0.131907 0.500000
vt 0.380676 0.495227
vt 0.425214 0.669321
vt 0.380676 0.669321
vt 0.425214 0.701870
vt 0.380676 0.701870
vt 0.380676 0.752847
vt 0.380676 0.754773
vt 0.425214 0.495227
vt 0.425214 0.497153
vt 0.425214 0.169321
vt 0.425214 0.201870
vt 0.380676 0.201870
vt 0.380676 0.252847
vt 0.380676 0.254773
vt 0.375000 0.256907
vt 0.375000 0.254773
vt 0.375000 0.252847
vt 0.375000 0.201870
vt 0.375000 0.169321
vt 0.375000 0.133240
vt 0.375000 0.580679
vt 0.375000 0.548130
vt 0.375000 0.497153
vt 0.375000 0.495227
vt 0.375000 0.493093
vt 0.375000 0.756907
vt 0.375000 0.754773
vt 0.375000 0.752847
vt 0.375000 0.701870
vt 0.375000 0.669321
vt 0.375000 0.633240
vt 0.375000 0.080679
vt 0.375000 0.116760
vt 0.375000 0.048130
vt 0.375000 0.000000
vt 0.375000 0.995227
vt 0.375000 1.000000
vt 0.375000 0.993093
s 0
f 62/1/1 68/2/1 105/2/1 104/3/1 138/4/1 140/1/1
f 75/5/2 8/6/2 6/7/2 83/8/2
f 82/9/1 84/10/1 63/11/1 62/12/1 140/12/1 139/13/1 131/14/1 133/9/1
f 5/15/3 7/16/3 112/16/3 111/17/3 124/18/3 126/15/3
f 3/19/3 7/16/3 5/15/3 1/20/3
f 9/21/4 31/22/4 55/22/4 38/21/4
f 30/23/2 24/24/2 49/24/2 56/23/2
f 49/24/1 51/25/1 52/26/1 53/27/1 54/28/1 50/29/1 43/30/1 45/31/1 46/32/1 47/33/1 48/34/1 44/35/1 37/36/1 39/37/1 40/38/1 41/39/1 42/40/1 38/41/1 55/42/1 57/43/1 58/44/1 59/45/1 60/46/1 56/23/1
f 2/47/3 6/7/3 32/7/3 31/22/3 9/21/3 11/47/3
f 8/6/3 4/48/3 18/48/3 17/49/3 23/50/3 25/6/3
f 6/7/3 8/6/3 25/6/3 24/24/3 30/23/3 32/7/3
f 4/48/3 2/51/3 11/51/3 10/52/3 16/53/3 18/48/3
f 23/54/5 17/49/5 43/49/5 50/50/5
f 9/21/3 12/55/3 11/47/3
f 12/55/3 13/47/3 11/47/3
f 13/47/3 14/47/3 11/47/3
f 14/47/3 15/47/3 11/47/3
f 15/47/3 10/47/3 11/47/3
f 16/56/3 19/57/3 18/48/3
f 19/57/3 20/58/3 18/48/3
f 20/58/3 21/59/3 18/48/3
f 21/59/3 22/60/3 18/48/3
f 22/60/3 17/48/3 18/48/3
f 23/54/3 26/61/3 25/6/3
f 26/61/3 27/62/3 25/6/3
f 27/62/3 28/63/3 25/6/3
f 28/63/3 29/64/3 25/6/3
f 29/64/3 24/6/3 25/6/3
f 30/23/3 33/65/3 32/7/3
f 33/65/3 34/66/3 32/7/3
f 34/66/3 35/67/3 32/7/3
f 35/67/3 36/68/3 32/7/3
f 36/68/3 31/7/3 32/7/3
f 23/54/6 50/50/6 54/69/6 26/61/6
f 26/61/7 54/69/7 53/70/7 27/62/7
f 27/62/8 53/70/8 52/71/8 28/72/8
f 28/72/9 52/71/9 51/73/9 29/74/9
f 29/74/10 51/73/10 49/24/10 24/24/10
f 55/22/11 31/22/11 36/75/11 57/75/11
f 57/75/12 36/75/12 35/76/12 58/77/12
f 58/77/13 35/76/13 34/66/13 59/78/13
f 59/78/14 34/66/14 33/65/14 60/79/14
f 60/79/15 33/65/15 30/23/15 56/23/15
f 9/21/16 38/21/16 42/80/16 12/80/16
f 12/80/17 42/80/17 41/47/17 13/47/17
f 13/51/18 41/51/18 40/81/18 14/82/18
f 14/82/19 40/81/19 39/83/19 15/84/19
f 15/84/20 39/83/20 37/52/20 10/85/20
f 43/49/21 17/49/21 22/86/21 45/87/21
f 45/87/22 22/86/22 21/88/22 46/89/22
f 46/89/23 21/88/23 20/58/23 47/90/23
f 47/90/24 20/58/24 19/57/24 48/91/24
f 48/91/25 19/57/25 16/56/25 44/53/25
f 16/56/26 10/85/26 37/52/26 44/53/26
f 168/92/26 138/93/26 104/3/26 150/94/26
f 3/19/3 1/20/3 98/20/3 97/95/3 89/96/3 91/19/3
f 68/2/1 70/97/1 77/98/1 76/99/1 119/99/1 118/100/1 103/101/1 105/2/1
f 76/99/1 82/9/1 133/9/1 132/102/1 117/103/1 119/99/1
f 1/20/3 5/15/3 126/15/3 125/104/3 96/105/3 98/20/3
f 145/106/5 103/101/5 118/107/5 156/108/5
f 151/109/2 117/103/2 132/102/2 162/110/2
f 157/111/4 131/14/4 139/112/4 163/113/4
f 70/114/5 69/115/5 4/48/5 8/6/5 75/5/5 77/116/5
f 61/117/26 2/51/26 4/48/26 69/115/26
f 61/12/27 64/12/27 63/11/27
f 64/12/28 65/12/28 63/11/28
f 65/12/29 66/12/29 63/11/29
f 66/12/30 67/12/30 63/11/30
f 67/12/31 62/12/31 63/11/31
f 68/2/32 71/2/32 70/114/32
f 71/2/33 72/2/33 70/114/33
f 72/2/34 73/2/34 70/114/34
f 73/2/35 74/2/35 70/114/35
f 74/2/36 69/2/36 70/114/36
f 75/5/37 78/118/37 77/98/37
f 78/118/38 79/119/38 77/98/38
f 79/119/39 80/120/39 77/98/39
f 80/120/40 81/121/40 77/98/40
f 81/121/41 76/122/41 77/98/41
f 82/9/42 85/123/42 84/124/42
f 85/123/43 86/9/43 84/124/43
f 86/9/44 87/9/44 84/124/44
f 87/9/45 88/9/45 84/124/45
f 88/9/46 83/9/46 84/124/46
f 75/5/47 83/8/47 88/125/47 78/118/47
f 78/118/48 88/125/48 87/126/48 79/119/48
f 79/119/49 87/126/49 86/9/49 80/99/49
f 80/99/50 86/9/50 85/123/50 81/99/50
f 81/99/51 85/123/51 82/9/51 76/99/51
f 61/117/52 69/115/52 74/127/52 64/128/52
f 64/128/53 74/127/53 73/129/53 65/130/53
f 65/130/54 73/129/54 72/2/54 66/1/54
f 66/1/55 72/2/55 71/2/55 67/1/55
f 67/1/56 71/2/56 68/2/56 62/1/56
f 84/124/4 83/8/4 6/7/4 2/47/4 61/131/4 63/132/4
f 89/19/3 92/133/3 91/19/3
f 92/133/3 93/19/3 91/19/3
f 93/19/3 94/19/3 91/19/3
f 94/19/3 95/134/3 91/19/3
f 95/134/3 90/135/3 91/19/3
f 96/105/3 99/136/3 98/20/3
f 99/136/3 100/20/3 98/20/3
f 100/20/3 101/20/3 98/20/3
f 101/20/3 102/20/3 98/20/3
f 102/20/3 97/20/3 98/20/3
f 103/101/1 106/137/1 105/2/1
f 106/137/1 107/138/1 105/2/1
f 107/138/1 108/139/1 105/2/1
f 108/139/1 109/140/1 105/2/1
f 109/140/1 104/2/1 105/2/1
f 110/141/3 113/142/3 112/16/3
f 113/142/3 114/16/3 112/16/3
f 114/16/3 115/16/3 112/16/3
f 115/16/3 116/16/3 112/16/3
f 116/16/3 111/16/3 112/16/3
f 117/103/1 120/143/1 119/99/1
f 120/143/1 121/144/1 119/99/1
f 121/144/1 122/145/1 119/99/1
f 122/145/1 123/146/1 119/99/1
f 123/146/1 118/99/1 119/99/1
f 124/15/3 127/147/3 126/15/3
f 127/147/3 128/15/3 126/15/3
f 128/15/3 129/15/3 126/15/3
f 129/15/3 130/148/3 126/15/3
f 130/148/3 125/104/3 126/15/3
f 131/14/1 134/149/1 133/9/1
f 134/149/1 135/150/1 133/9/1
f 135/150/1 136/151/1 133/9/1
f 136/151/1 137/152/1 133/9/1
f 137/152/1 132/9/1 133/9/1
f 138/93/1 141/153/1 140/154/1
f 141/153/1 142/155/1 140/154/1
f 142/155/1 143/156/1 140/154/1
f 143/156/1 144/157/1 140/154/1
f 144/157/1 139/1/1 140/154/1
f 165/158/1 166/159/1 198/159/1 197/158/1
f 125/104/3 130/148/3 191/148/3 192/104/3
f 150/94/1 149/160/1 204/160/1 205/94/1
f 166/159/1 167/161/1 199/161/1 198/159/1
f 130/148/3 129/15/3 190/15/3 191/148/3
f 152/162/1 151/109/1 194/109/1 206/162/1
f 90/135/3 95/134/3 173/134/3 174/135/3
f 167/161/1 168/92/1 200/92/1 199/161/1
f 129/15/3 128/15/3 189/15/3 190/15/3
f 124/18/3 111/17/3 186/17/3 187/18/3
f 153/163/1 152/162/1 206/162/1 207/163/1
f 95/134/3 94/19/3 172/19/3 173/134/3
f 128/15/3 127/147/3 188/147/3 189/15/3
f 154/164/1 153/163/1 207/163/1 208/164/1
f 94/19/3 93/19/3 171/19/3 172/19/3
f 163/113/16 139/112/16 144/165/16 164/166/16
f 164/166/17 144/165/17 143/12/17 165/167/17
f 165/158/18 143/1/18 142/155/18 166/159/18
f 166/159/19 142/155/19 141/153/19 167/161/19
f 167/161/20 141/153/20 138/93/20 168/92/20
f 7/16/3 3/19/3 91/19/3 90/168/3 110/141/3 112/16/3
f 97/20/3 102/20/3 179/20/3 180/20/3
f 127/147/3 124/15/3 187/15/3 188/147/3
f 155/169/1 154/164/1 208/164/1 209/169/1
f 93/19/3 92/133/3 170/133/3 171/19/3
f 102/20/3 101/20/3 178/20/3 179/20/3
f 137/170/15 161/171/15 162/110/15 132/102/15
f 136/172/14 160/173/14 161/171/14 137/170/14
f 135/150/13 159/174/13 160/173/13 136/172/13
f 134/149/12 158/175/12 159/174/12 135/150/12
f 131/14/11 157/111/11 158/175/11 134/149/11
f 123/176/6 155/169/6 156/108/6 118/107/6
f 122/177/7 154/164/7 155/169/7 123/176/7
f 121/144/8 153/163/8 154/164/8 122/177/8
f 120/143/9 152/162/9 153/163/9 121/144/9
f 117/103/10 151/109/10 152/162/10 120/143/10
f 109/178/25 149/160/25 150/94/25 104/3/25
f 108/179/24 148/180/24 149/160/24 109/178/24
f 107/138/23 147/181/23 148/180/23 108/179/23
f 106/137/22 146/182/22 147/181/22 107/138/22
f 103/101/21 145/106/21 146/182/21 106/137/21
f 156/108/1 155/169/1 209/169/1 210/108/1
f 92/133/3 89/19/3 169/19/3 170/133/3
f 168/92/1 150/94/1 205/94/1 200/92/1
f 101/20/3 100/20/3 177/20/3 178/20/3
f 193/106/57 174/183/57 173/184/57 201/182/57
f 201/182/58 173/184/58 172/185/58 202/181/58
f 202/181/59 172/185/59 171/186/59 203/180/59
f 203/180/60 171/186/60 170/187/60 204/160/60
f 204/160/61 170/187/61 169/188/61 205/94/61
f 194/109/62 186/17/62 185/189/62 206/162/62
f 206/162/63 185/189/63 184/190/63 207/163/63
f 207/163/64 184/190/64 183/191/64 208/164/64
f 208/164/65 183/191/65 182/192/65 209/169/65
f 209/169/66 182/192/66 181/193/66 210/108/66
f 195/111/67 192/194/67 191/195/67 211/175/67
f 211/175/68 191/195/68 190/196/68 212/174/68
f 212/174/69 190/196/69 189/197/69 213/173/69
f 213/173/70 189/197/70 188/198/70 214/171/70
f 214/171/71 188/198/71 187/199/71 215/110/71
f 179/200/72 199/161/72 200/92/72 180/201/72
f 178/202/73 198/159/73 199/161/73 179/200/73
f 177/203/74 197/158/74 198/159/74 178/202/74
f 176/204/75 196/166/75 197/167/75 177/205/75
f 175/206/76 216/113/76 196/166/76 176/204/76
f 192/194/4 195/111/4 216/113/4 175/206/4
f 186/17/2 194/109/2 215/110/2 187/199/2
f 174/183/5 193/106/5 210/108/5 181/193/5
f 180/201/26 200/92/26 205/94/26 169/188/26
f 110/141/3 90/168/3 174/168/3 181/141/3
f 149/160/1 148/180/1 203/180/1 204/160/1
f 113/142/3 110/141/3 181/141/3 182/142/3
f 164/166/1 165/167/1 197/167/1 196/166/1
f 148/180/1 147/181/1 202/181/1 203/180/1
f 114/16/3 113/142/3 182/142/3 183/16/3
f 163/113/1 164/166/1 196/166/1 216/113/1
f 89/96/3 97/95/3 180/95/3 169/96/3
f 147/181/1 146/182/1 201/182/1 202/181/1
f 115/16/3 114/16/3 183/16/3 184/16/3
f 162/110/1 161/171/1 214/171/1 215/110/1
f 146/182/1 145/106/1 193/106/1 201/182/1
f 116/16/3 115/16/3 184/16/3 185/16/3
f 161/171/1 160/173/1 213/173/1 214/171/1
f 157/111/1 163/113/1 216/113/1 195/111/1
f 111/16/3 116/16/3 185/16/3 186/16/3
f 160/173/1 159/174/1 212/174/1 213/173/1
f 99/136/3 96/105/3 175/105/3 176/136/3
f 151/109/1 162/110/1 215/110/1 194/109/1
f 159/174/1 158/175/1 211/175/1 212/174/1
f 96/105/3 125/104/3 192/104/3 175/105/3
f 100/20/3 99/136/3 176/136/3 177/20/3
f 145/106/1 156/108/1 210/108/1 193/106/1
f 158/175/1 157/111/1 195/111/1 211/175/1
