# Blender 4.3.2
# www.blender.org
mtllib window middle 45.mtl
o sFuture_Modules_Pro_Panel_1x1_Plain_Collidermesh.003
v 0.787868 1.350000 0.999999
v -0.990291 1.350000 -0.787762
v -0.990291 -1.350000 -0.787762
v 0.787868 -1.350000 0.999999
v 1.000000 1.350000 0.787867
v 1.000000 -1.350000 0.787867
v -0.778159 -1.350000 -0.999894
v -0.778159 1.350000 -0.999894
v -0.990291 -1.500000 -0.999894
v -0.990291 1.500000 -0.999894
v 1.000000 1.500000 0.999999
v 1.000000 -1.500000 0.999999
v -0.778003 -1.349763 -0.999737
v 1.000000 1.348763 0.787867
v 0.999185 1.348763 0.787048
v 1.000000 -1.349763 0.787867
v -0.778159 -1.349763 -0.999894
v -0.778159 1.348763 -0.999894
v -0.990291 -1.349763 -0.999894
v -0.778251 1.348763 -0.999894
v -0.990291 1.348763 -0.999894
v -0.979109 -1.349763 -0.999894
v 1.000000 1.348763 0.787959
v 1.000000 -1.349763 0.988817
v 1.000000 -1.349763 0.990397
v 1.000000 1.348763 0.990396
vn -0.7090 -0.0000 0.7052
vn 0.7090 -0.0000 -0.7052
vn 0.7089 -0.0000 -0.7053
vn 0.7087 -0.0000 -0.7055
vn 0.7088 -0.0000 -0.7054
vn -0.0000 -0.0000 -1.0000
vn 0.5007 0.7079 -0.4982
vn 0.5019 0.7063 -0.4992
vn 0.5020 0.7062 -0.4993
vn 0.5006 0.7080 -0.4982
vn 0.5007 -0.7079 -0.4982
vn 0.5019 -0.7063 -0.4992
vn 0.5006 -0.7080 -0.4982
vn 0.5020 -0.7062 -0.4993
vn -1.0000 -0.0000 -0.0000
vn -0.5018 0.7063 0.4993
vn -0.5008 0.7079 0.4981
vn -0.5018 0.7063 0.4994
vn -0.5007 0.7081 0.4980
vn 1.0000 -0.0000 -0.0000
vn -0.5019 -0.7063 0.4992
vn -0.5007 -0.7079 0.4982
vn -0.5020 -0.7062 0.4993
vn -0.5006 -0.7080 0.4982
vn -0.0000 -0.0000 1.0000
vn 0.7071 -0.0000 -0.7071
vn -0.0000 1.0000 -0.0000
vn -0.0000 -1.0000 -0.0000
vt 0.000000 0.000000
vt 0.375000 0.044431
vt 0.375000 0.183632
vt 0.625000 0.183632
vt 0.625000 0.044431
vt 0.125000 0.705569
vt 0.125000 0.581216
vt 0.125000 0.581205
vt 0.125000 0.567150
vt 0.125000 0.566368
vt 0.669767 0.500000
vt 0.669751 0.500000
vt 0.625000 0.606602
vt 0.625000 0.606659
vt 0.707251 0.500000
s 1
f 3/1/1 1/1/1 2/1/1
f 4/1/1 1/1/1 3/1/1
f 5/1/2 14/1/3 15/1/2
f 6/1/4 7/1/4 13/1/4 16/1/4
f 7/1/4 17/1/5 13/1/4
f 15/1/2 18/1/2 8/1/2 5/1/2
f 19/1/6 22/1/6 9/1/6 10/1/6 8/1/6 20/1/6 21/1/6
f 7/1/6 9/1/6 22/1/6 17/1/6
f 18/1/6 20/1/6 8/1/6
f 8/1/7 11/1/8 5/1/9
f 11/1/8 8/1/7 10/1/10
f 7/1/11 12/1/12 9/1/13
f 12/1/12 7/1/11 6/1/14
f 2/1/15 10/1/15 9/1/15
f 3/1/15 2/1/15 9/1/15
f 2/1/16 11/1/17 10/1/18
f 11/1/17 2/1/16 1/1/19
f 5/1/20 23/1/20 14/1/20
f 12/1/20 6/1/20 16/1/20 24/1/20
f 26/1/20 23/1/20 5/1/20 11/1/20 12/1/20 24/1/20 25/1/20
f 9/1/21 4/1/22 3/1/23
f 4/1/22 9/1/21 12/1/24
f 1/1/25 12/1/25 11/1/25
f 1/1/25 4/1/25 12/1/25
s 0
f 25/2/26 19/3/26 21/4/26 26/5/26
f 16/6/27 13/7/27 17/8/27 22/9/27 19/10/27 25/6/27 24/6/27
f 20/11/28 18/12/28 15/13/28 14/14/28 23/14/28 26/14/28 21/15/28
