# Blender 4.3.2
# www.blender.org
mtllib window Side.mtl
o sFuture_Modules_Pro_Panel_1x1_Plain_Collidermesh.010
v 1.350000 1.350000 0.150000
v -1.350000 1.350000 0.150000
v -1.350000 -1.350000 0.150000
v 1.499048 -1.341987 0.000003
v 1.350000 -1.350000 0.150000
v 1.499047 1.338864 0.000003
v 1.350000 1.350000 -0.150000
v 1.350000 -1.350000 -0.150000
v -1.350000 -1.350000 -0.150000
v -1.350000 1.350000 -0.150000
v -1.500000 -1.500000 0.000000
v -1.500000 1.500000 0.000000
v 1.500000 1.500000 -0.000000
v 1.500000 -1.500000 -0.000000
v -1.341698 1.338864 0.000003
v -1.341698 -1.341988 0.000003
v 1.350000 1.338864 -0.150000
v 1.338864 1.338864 -0.150000
v 1.350000 -1.341987 -0.150000
v -1.341698 -1.341988 -0.150000
v -1.341698 -1.341698 -0.150000
v -1.341698 1.338864 -0.150000
v 1.350586 1.338864 -0.149414
v 1.491684 -1.341987 -0.008317
v 1.500000 1.338864 -0.000000
v 1.499047 1.338864 -0.000953
v 1.499048 -1.341987 -0.000953
v 1.500000 -1.341987 -0.000000
v 1.499047 1.338864 0.000952
v 1.499997 1.338864 0.000003
v 1.499047 -1.341987 0.000952
v 1.499997 -1.341987 0.000003
vn -0.0000 -0.0000 1.0000
vn -0.0000 -0.0000 -1.0000
vn -0.7071 -0.0000 -0.7071
vn -0.0000 0.7071 -0.7071
vn -0.0000 -0.7071 -0.7071
vn -0.7071 -0.0000 0.7071
vn -0.0000 0.7071 0.7071
vn 0.7071 -0.0000 -0.7071
vn -0.0000 -0.7071 0.7071
vn 0.7071 -0.0000 0.7071
vn 1.0000 -0.0000 0.0002
vn 0.0003 -1.0000 -0.0000
vn -0.0003 1.0000 -0.0000
vn 0.0001 -1.0000 -0.0000
vn -0.0000 1.0000 -0.0000
vn 1.0000 -0.0000 -0.0000
vn -0.0000 -1.0000 -0.0000
vt 0.000000 0.000000
vt 0.375000 0.249916
vt 0.375000 0.250000
vt 0.625000 0.250000
vt 0.625000 0.249916
vt 0.874793 0.500000
vt 0.874794 0.500000
vt 0.875000 0.500000
vt 0.125206 0.500000
vt 0.125000 0.500000
vt 0.125000 0.500092
vt 0.125207 0.500000
s 1
f 3/1/1 1/1/1 2/1/1
f 1/1/1 3/1/1 5/1/1
f 7/1/2 17/1/2 18/1/2
f 19/1/2 8/1/2 9/1/2 21/1/2 20/1/2
f 21/1/2 9/1/2 10/1/2 7/1/2 18/1/2 22/1/2
f 10/1/3 11/1/3 12/1/3
f 11/1/3 10/1/3 9/1/3
f 10/1/4 13/1/4 7/1/4
f 13/1/4 10/1/4 12/1/4
f 9/1/5 14/1/5 11/1/5
f 14/1/5 9/1/5 8/1/5
f 11/1/6 2/1/6 12/1/6
f 2/1/6 11/1/6 3/1/6
f 2/1/7 13/1/7 12/1/7
f 13/1/7 2/1/7 1/1/7
f 7/1/8 23/1/8 17/1/8
f 14/1/8 8/1/8 19/1/8 24/1/8
f 14/1/8 24/1/8 27/1/8 28/1/8
f 7/1/8 13/1/8 25/1/8 26/1/8 23/1/8
f 11/1/9 5/1/9 3/1/9
f 5/1/9 11/1/9 14/1/9
f 30/1/10 25/1/10 13/1/10 1/1/10 14/1/10 28/1/10 32/1/10 31/1/10 29/1/10
f 1/1/10 5/1/10 14/1/10
s 0
f 31/2/11 4/3/11 6/4/11 29/5/11
f 25/6/12 30/7/12 6/8/12 26/8/12
f 32/9/13 4/10/13 31/11/13
f 29/8/14 6/8/14 30/7/14
f 16/10/15 4/10/15 27/10/15 24/10/15 19/10/15 20/10/15
f 4/10/15 32/9/15 28/12/15 27/10/15
f 22/3/16 15/3/16 16/3/16 20/3/16 21/3/16
f 15/4/2 6/4/2 4/3/2 16/3/2
f 26/8/17 6/8/17 15/8/17 22/8/17 18/8/17 17/8/17 23/8/17
