# Blender 4.3.2
# www.blender.org
mtllib Corner.mtl
o sFuture_Modules_Pro_Panel_1x1_Plain_Collidermesh
v 0.790588 -1.350000 0.848784
v 0.790588 1.350000 0.848784
v -0.899376 1.350000 -0.850186
v -0.899376 -1.350000 -0.850187
v 1.090588 -1.350000 0.848784
v -0.899376 -1.350000 -1.150187
v -0.899376 1.350000 -1.150186
v 1.090588 1.350000 0.848784
v -1.049376 1.500000 -1.000186
v 0.940588 1.500000 0.998784
v 0.940588 -1.500000 0.998784
v -1.049376 -1.500000 -1.000187
v 0.779504 0.005122 -0.852253
v 0.779504 1.350000 -0.852252
v 0.779504 -1.350000 -0.852253
v 1.105026 0.005122 -1.149427
v 1.105026 -1.350000 -1.149428
v 1.105026 1.350000 -1.149427
v 0.997899 1.421322 -1.070647
v 0.942265 1.500000 -1.015014
v 0.886631 1.421322 -0.959380
v 0.997899 -1.421322 -1.070648
v 0.942265 -1.500000 -1.015014
v 0.886632 -1.421322 -0.959381
vn -0.7044 -0.0000 0.7098
vn -1.0000 -0.0000 0.0065
vn 0.0012 -0.0000 1.0000
vn 0.7098 -0.0000 -0.7044
vn 1.0000 -0.0000 0.0072
vn 0.0004 -0.0000 -1.0000
vn 0.3434 0.8325 -0.4347
vn 0.0016 0.7133 -0.7008
vn 0.4413 0.7483 -0.4952
vn 0.7364 0.6766 -0.0047
vn 0.3520 0.8741 -0.3346
vn 0.7071 -0.0000 0.7071
vn -0.7071 -0.0000 -0.7071
vn -0.4039 0.7959 0.4510
vn -0.7368 0.6761 -0.0062
vn -0.7422 0.6701 -0.0065
vn -0.4447 0.7506 0.4887
vn 0.0094 0.7503 0.6610
vn 0.0095 0.7587 0.6514
vn -0.2998 0.8821 0.3633
vn -0.7071 -0.0000 0.7071
vn 0.3434 -0.8325 -0.4347
vn 0.0016 -0.7133 -0.7008
vn 0.0020 -0.7199 -0.6941
vn 0.3520 -0.8741 -0.3347
vn 0.7364 -0.6766 -0.0047
vn 0.7413 -0.6711 -0.0050
vn 0.4413 -0.7483 -0.4952
vn -0.4039 -0.7959 0.4510
vn 0.0094 -0.7503 0.6610
vn -0.4447 -0.7506 0.4887
vn -0.7368 -0.6761 -0.0062
vn -0.2998 -0.8821 0.3633
vn -0.7422 -0.6701 -0.0065
vn 0.7413 0.6711 -0.0050
vn 0.0020 0.7199 -0.6941
vn 0.0095 -0.7587 0.6514
s 1
f 13//1 1//2 2//2 14//1
f 13//1 3//3 4//3 15//1
f 16//4 5//5 17//4
f 16//4 7//6 18//4
f 19//7 9//8 20//9
f 19//7 8//10 18//11
f 8//12 11//12 5//12
f 11//12 8//12 10//12
f 7//13 12//13 9//13
f 12//13 7//13 6//13
f 21//14 2//15 10//16 20//17
f 21//14 9//18 3//19 14//20
f 2//21 11//21 10//21
f 11//21 2//21 1//21
f 22//22 12//23 6//24 17//25
f 22//22 5//26 11//27 23//28
f 9//21 4//21 3//21
f 4//21 9//21 12//21
f 24//29 12//30 23//31
f 24//29 1//32 15//33
f 1//32 24//29 23//31 11//34
f 12//23 22//22 23//28
f 9//18 21//14 20//17
f 8//10 19//7 20//9 10//35
f 9//8 19//7 18//11 7//36
f 5//26 22//22 17//25
f 7//6 16//4 17//4 6//6
f 5//5 16//4 18//4 8//5
f 12//30 24//29 15//33 4//37
f 2//15 21//14 14//20
f 3//3 13//1 14//1
f 1//2 13//1 15//1
