# Blender 4.3.2
# www.blender.org
mtllib Small.mtl
o sFuture_Modules_Pro_Panel_1x1_Plain_Collidermesh
v 1.350000 -0.149988 0.150000
v -1.350000 -0.149989 0.150000
v -1.350000 -1.350000 0.150000
v 1.350000 -1.350000 0.150000
v 1.350000 -0.149988 -0.150000
v 1.350000 -1.350000 -0.150000
v -1.350000 -1.350000 -0.150000
v -1.350000 -0.149989 -0.150000
v -1.500000 -1.500000 0.000000
v -1.500000 0.000011 0.000000
v 1.500000 0.000012 -0.000000
v 1.500000 -1.500000 -0.000000
vn -0.0000 -0.0000 1.0000
vn -0.0000 -0.0000 -1.0000
vn -0.7071 -0.0000 -0.7071
vn -0.0000 0.7071 -0.7071
vn -0.0000 -0.7071 -0.7071
vn -0.7071 -0.0000 0.7071
vn -0.0000 0.7071 0.7071
vn 0.7071 -0.0000 -0.7071
vn -0.0000 -0.7071 0.7071
vn 0.7071 -0.0000 0.7071
s 1
f 3//1 1//1 2//1
f 1//1 3//1 4//1
f 7//2 5//2 6//2
f 5//2 7//2 8//2
f 8//3 9//3 10//3
f 9//3 8//3 7//3
f 8//4 11//4 5//4
f 11//4 8//4 10//4
f 7//5 12//5 9//5
f 12//5 7//5 6//5
f 9//6 2//6 10//6
f 2//6 9//6 3//6
f 2//7 11//7 10//7
f 11//7 2//7 1//7
f 5//8 12//8 6//8
f 12//8 5//8 11//8
f 9//9 4//9 3//9
f 4//9 9//9 12//9
f 1//10 12//10 11//10
f 12//10 1//10 4//10
