# Blender 4.3.2
# www.blender.org
mtllib SmallQuarts.mtl
o sFuture_Modules_Pro_Panel_1x1_Plain_Collidermesh
v -0.150000 -0.149988 0.150000
v -1.350000 -0.149989 0.150000
v -1.350000 -1.350000 0.150000
v -0.150000 -1.350000 0.150000
v -0.150000 -0.149988 -0.150000
v -0.150000 -1.350000 -0.150000
v -1.350000 -1.350000 -0.150000
v -1.350000 -0.149989 -0.150000
v -1.500000 -1.500000 0.000000
v -1.500000 0.000011 0.000000
v -0.000000 0.000012 -0.000000
v 0.000000 -1.500000 -0.000000
vn -0.0000 -0.0000 1.0000
vn -0.7071 -0.0000 -0.7071
vn -0.0000 0.7071 -0.7071
vn -0.0000 -0.7071 -0.7071
vn -0.7071 -0.0000 0.7071
vn -0.0000 0.7071 0.7071
vn 0.7071 -0.0000 -0.7071
vn -0.0000 -0.7071 0.7071
vn 0.7071 -0.0000 0.7071
vn -0.0000 -0.0000 -1.0000
s 1
f 3//1 1//1 2//1
f 1//1 3//1 4//1
f 8//2 9//2 10//2
f 9//2 8//2 7//2
f 8//3 11//3 5//3
f 11//3 8//3 10//3
f 7//4 12//4 9//4
f 12//4 7//4 6//4
f 9//5 2//5 10//5
f 2//5 9//5 3//5
f 2//6 11//6 10//6
f 11//6 2//6 1//6
f 5//7 12//7 6//7
f 12//7 5//7 11//7
f 9//8 4//8 3//8
f 4//8 9//8 12//8
f 1//9 12//9 11//9
f 12//9 1//9 4//9
f 5//10 6//10 7//10 8//10
