# Blender 4.3.2
# www.blender.org
mtllib WallRotated45Small.mtl
o sFuture_Modules_Pro_Panel_1x1_Plain_Collidermesh.003
v 0.787868 -0.149998 0.999999
v -0.990291 -0.149998 -0.787762
v -0.990291 -1.350000 -0.787762
v 0.787868 -1.350000 0.999999
v 1.000000 -0.149998 0.787867
v 1.000000 -1.350000 0.787867
v -0.778159 -1.350000 -0.999894
v -0.778159 -0.149998 -0.999894
v -0.990291 -1.500000 -0.999894
v -0.990291 0.000002 -0.999894
v 1.000000 0.000002 0.999999
v 1.000000 -1.500000 0.999999
vn -0.7090 -0.0000 0.7052
vn 0.7090 -0.0000 -0.7052
vn -0.0000 -0.0000 -1.0000
vn 0.5007 0.7079 -0.4982
vn 0.5019 0.7063 -0.4992
vn 0.5020 0.7062 -0.4993
vn 0.5006 0.7080 -0.4982
vn 0.5007 -0.7079 -0.4982
vn 0.5019 -0.7063 -0.4992
vn 0.5006 -0.7080 -0.4982
vn 0.5020 -0.7062 -0.4993
vn -1.0000 -0.0000 -0.0000
vn -0.5018 0.7063 0.4993
vn -0.5008 0.7079 0.4981
vn -0.5018 0.7063 0.4994
vn -0.5007 0.7081 0.4980
vn 1.0000 -0.0000 -0.0000
vn -0.5019 -0.7063 0.4992
vn -0.5007 -0.7079 0.4982
vn -0.5020 -0.7062 0.4993
vn -0.5006 -0.7080 0.4982
vn -0.0000 -0.0000 1.0000
s 1
f 3//1 1//1 2//1
f 1//1 3//1 4//1
f 7//2 5//2 6//2
f 5//2 7//2 8//2
f 8//3 9//3 10//3
f 9//3 8//3 7//3
f 8//4 11//5 5//6
f 11//5 8//4 10//7
f 7//8 12//9 9//10
f 12//9 7//8 6//11
f 9//12 2//12 10//12
f 2//12 9//12 3//12
f 2//13 11//14 10//15
f 11//14 2//13 1//16
f 5//17 12//17 6//17
f 12//17 5//17 11//17
f 9//18 4//19 3//20
f 4//19 9//18 12//21
f 1//22 12//22 11//22
f 12//22 1//22 4//22
